<?xml version="1.0" encoding="UTF-8"?>
<svg width="58.98pt" version="1.1" xmlns="http://www.w3.org/2000/svg" height="113.32pt" viewBox="0 0 58.98 113.32" xmlns:xlink="http://www.w3.org/1999/xlink">
 <defs>
  <clipPath id="Clip0">
   <path d="M0 0 L58.9776 0 L58.9776 113.318 L0 113.318 L0 0 Z" transform="translate(0, 0)"/>
  </clipPath>
  <clipPath id="Clip1">
   <path d="M0 0 L16.2312 0 L16.2312 20.692 L0 20.692 L0 0 Z" transform="translate(4.5884, 0)"/>
  </clipPath>
  <clipPath id="Clip2">
   <path d="M0 0 L58.9776 0 L58.9776 103.285 L0 103.285 L0 0 Z" transform="translate(0, 10.0333)"/>
  </clipPath>
  <clipPath id="Clip3">
   <path d="M0 0 L58.9776 0 L58.9776 58.9776 L0 58.9776 L0 0 Z" transform="translate(0, 24.1436)"/>
  </clipPath>
  <clipPath id="Clip4">
   <path d="M0 0 L48.3736 0 L48.3736 51.3536 L0 51.3536 L0 0 Z" transform="translate(5.8236, 61.9648)"/>
  </clipPath>
 </defs>
 <g id="Background">
  <g id="Layer_1" clip-path="url(#Clip0)">
   <g id="INSERT_9_" clip-path="url(#Clip1)">
    <path style="fill:#787a7c; fill-rule:evenodd;stroke:none;" d="M7.6344 10.7768 L7.3688 10.4072 L8.0232 9.9376 L6.9592 8.456 L6.8872 8.3552 L6.296 7.532 L6.2272 7.436 L5.9808 7.0928 L4.1192 7.7984 L2.4544 3.3928 L2.4096 3.2704 L1.8832 1.8816 L1.8368 1.7592 L1.3176 0.388 L1.1336 0 L0.84 0.2112 L0.9048 0.3016 L1.2464 1.9472 L1.2992 2.0944 L1.7208 3.2168 L3.568 8.1 L5.7144 7.284 L7.0296 9.1144 L4.7512 10.7512 L5.7448 12.1344 L7.6344 10.7768 Z M7.0288 9.1144 L5.7136 7.284 L3.5672 8.1 L1.72 3.2168 L1.2984 2.0944 L1.2456 1.9472 L1.4152 2.768 L1.4312 2.8712 L1.5656 3.512 L1.588 3.6088 L2.388 7.4616 L3.6824 9.2632 L3.7512 9.3592 L4.3424 10.1824 L4.4144 10.2824 L4.7496 10.7504 L7.0288 9.1144 Z M1.588 3.6096 L1.5656 3.5128 L1.4312 2.872 L1.4152 2.7688 L1.2456 1.948 L1.0856 1.5312 L0.4624 1.9784 L0.3816 2.4416 L0.1536 3.812 L0.0784 4.2488 L0.1672 4.3712 L0.7176 3.9752 L1.44 4.9816 L0.8896 5.3776 L2.2832 7.3176 L2.3872 7.4624 L1.588 3.6096 Z M1.0864 1.5304 L1.2464 1.9472 L0.9048 0.3016 L0.84 0.2112 L0.62 0.3688 L0.4296 1.5264 L0.412 1.6392 L0.2008 2.9144 L0.1832 3.0216 L0 4.1392 L0.0784 4.2488 L0.1536 3.812 L0.3824 2.4408 L0.4632 1.9776 L1.0864 1.5304 Z M10.9728 13.6856 L10.7408 13.3632 L10.4944 13.5408 L10.2584 13.212 L10.3352 13.1568 L9.5096 12.0064 L9.4304 11.8968 L8.776 12.3664 L8.5096 11.9952 L6.6192 13.3528 L7.0816 13.9968 L7.2088 13.9056 L8.3848 15.5432 L10.9728 13.6856 Z M9.4312 11.8968 L9.0952 11.4296 L8.4408 11.8992 L8.5096 11.9952 L8.776 12.3664 L9.4312 11.8968 Z M9.0216 11.3272 L8.7272 10.9168 L8.0728 11.3872 L8.3672 11.7976 L9.0216 11.3272 Z M8.7272 10.9168 L8.4312 10.5056 L7.7768 10.9752 L8.0728 11.3872 L8.7272 10.9168 Z M8.4312 10.5056 L8.3568 10.4024 L7.7024 10.872 L7.7768 10.9752 L8.4312 10.5056 Z M9.0952 11.4296 L9.0216 11.328 L8.3672 11.7976 L8.4408 11.8992 L9.0952 11.4296 Z M8.3576 10.4024 L8.0232 9.9368 L7.3688 10.4064 L7.6344 10.776 L7.7032 10.872 L8.3576 10.4024 Z M7.7032 10.872 L7.6344 10.776 L5.744 12.1336 L5.8128 12.2296 L7.7032 10.872 Z M7.7776 10.9752 L7.7032 10.872 L5.8128 12.2296 L5.8872 12.3328 L7.7776 10.9752 Z M8.0728 11.3872 L7.7768 10.9752 L5.8864 12.3328 L6.1816 12.7448 L8.0728 11.3872 Z M8.3672 11.7976 L8.0728 11.3872 L6.1824 12.7448 L6.4776 13.1552 L8.3672 11.7976 Z M8.4408 11.8992 L8.3672 11.7976 L6.4776 13.1552 L6.5504 13.2576 L8.4408 11.8992 Z M8.5104 11.9952 L8.4416 11.8992 L6.5512 13.2576 L6.62 13.3536 L8.5104 11.9952 Z" transform="translate(7.01, 4.948)"/>
    <path style="fill:#c5c7c9; fill-rule:evenodd;stroke:none;" d="M2.804 6.5856 L2.6768 6.4376 L2.5736 5.9312 L2.4696 5.7864 L1.076 3.8464 L1.6264 3.4504 L0.904 2.444 L0.3536 2.84 L0.2648 2.7176 L0 4.3008 L1.8104 6.82 L1.8264 7.0184 L2.804 6.5856 Z M1.7736 2.0784 L1.7512 1.9816 L1.6168 1.3408 L1.6008 1.2376 L1.4312 0.4168 L1.2712 0 L0.648 0.4472 L0.5672 0.9104 L0.3392 2.2808 L0.264 2.7176 L0.3528 2.84 L0.9032 2.444 L1.6256 3.4504 L1.0752 3.8464 L2.4688 5.7864 L2.5728 5.9312 L1.7736 2.0784 Z" transform="translate(6.8244, 6.4792)"/>
    <path style="fill:none;stroke:#000000; stroke-width:0.4; stroke-linecap:round; stroke-linejoin:round; stroke-dasharray:none;" d="M0.02 0.0992 L0 0 " transform="translate(8.578, 8.4584)"/>
    <path style="fill:none;stroke:#000000; stroke-width:0.4; stroke-linecap:round; stroke-linejoin:round; stroke-dasharray:none;" d="M0.1336 0.6408 L0 0 " transform="translate(8.4444, 7.8176)"/>
    <path style="fill:none;stroke:#000000; stroke-width:0.4; stroke-linecap:round; stroke-linejoin:round; stroke-dasharray:none;" d="M0.0184 0.1016 L0 0 " transform="translate(8.426, 7.716)"/>
    <path style="fill:#b8babc; fill-rule:evenodd;stroke:none;" d="M3.3848 2.2208 L3.2576 2.0728 L3.1544 1.5664 L5.5752 4.9368 L3.4544 6.4592 L0 1.6504 L0.256 0.1144 L0.4168 0 L2.3808 2.7344 L3.3848 2.2208 Z" transform="translate(6.2436, 10.844)"/>
    <path style="fill:none;stroke:#000000; stroke-width:0.4; stroke-linecap:round; stroke-linejoin:round; stroke-dasharray:928 1000 ; stroke-dashoffset:0;" d="M0 0 L1.964 2.7344 " transform="translate(6.6604, 10.844)"/>
    <path style="fill:none;stroke:#000000; stroke-width:0.4; stroke-linecap:round; stroke-linejoin:round; stroke-dasharray:none;" d="M0 0 L3.4544 4.8088 " transform="translate(6.2436, 12.4944)"/>
    <path style="fill:none;stroke:#000000; stroke-width:0.4; stroke-linecap:round; stroke-linejoin:round; stroke-dasharray:none;" d="M0 1.52 L2.1168 0 " transform="translate(9.698, 15.7832)"/>
    <path style="fill:none;stroke:#000000; stroke-width:0.4; stroke-linecap:round; stroke-linejoin:round; stroke-dasharray:none;" d="M0.256 0 L0 1.536 " transform="translate(6.2436, 10.9584)"/>
    <path style="fill:none;stroke:#000000; stroke-width:0.4; stroke-linecap:round; stroke-linejoin:round; stroke-dasharray:none;" d="M0.1608 0 L0 0.1144 " transform="translate(6.4996, 10.844)"/>
    <path style="fill:none;stroke:#000000; stroke-width:0.4; stroke-linecap:round; stroke-linejoin:round; stroke-dasharray:none;" d="M0 1.3728 L0.2312 0 " transform="translate(7.1612, 7.3888)"/>
    <path style="fill:none;stroke:#000000; stroke-width:0.4; stroke-linecap:round; stroke-linejoin:round; stroke-dasharray:none;" d="M0 0.4592 L0.076 0 " transform="translate(7.3924, 6.9296)"/>
    <path style="fill:none;stroke:#000000; stroke-width:0.4; stroke-linecap:round; stroke-linejoin:round; stroke-dasharray:none;" d="M0 0 L0.2128 0.5632 " transform="translate(8.0964, 6.4784)"/>
    <path style="fill:none;stroke:#000000; stroke-width:0.4; stroke-linecap:round; stroke-linejoin:round; stroke-dasharray:none;" d="M0 0.4512 L0.628 0 " transform="translate(7.4684, 6.4784)"/>
    <path style="fill:#b8babc; fill-rule:evenodd;stroke:none;" d="M7.4 8.4872 L7.0768 8.0376 L6.8432 8.2048 L5.7296 6.6552 L5.3216 6.0872 L4.956 6.3496 L4.8368 6.4352 L6.6816 9.0024 L6.736 8.9632 L7.4 8.4872 Z M6.6808 9.0032 L4.836 6.436 L4.6672 6.5568 L4.9616 6.9672 L5.0352 7.0688 L5.3712 7.536 L5.4504 7.6456 L6.276 8.796 L6.512 9.1248 L6.6808 9.0032 Z M6.512 9.1256 L6.276 8.7968 L6.1992 8.852 L6.4352 9.1808 L6.512 9.1256 Z M4.836 6.436 L3.196 4.1536 L3.6816 3.8048 L3.2976 3.2704 L0.5632 0.0832 L0.0832 0 L0 0.06 L4.6672 6.556 L4.836 6.436 Z M5.1784 6.1896 L5.3216 6.0872 L3.6824 3.8048 L3.1968 4.1536 L4.8368 6.436 L5.1784 6.1896 Z" transform="translate(11.07, 9.308)"/>
    <path style="fill:#c5c7c9; fill-rule:evenodd;stroke:none;" d="M9.1184 10.012 L9.3248 10.2992 L9.44 10.1528 L7.788 7.852 L7.3048 8.1984 L7.7128 8.7664 L8.7816 10.2536 L9.1184 10.012 Z M9.8952 9.5992 L8.3496 7.448 L7.788 7.852 L9.44 10.1528 L9.8952 9.5992 Z M8.3488 7.448 L7.6448 6.468 L4.4248 2.7232 L0.464 0.0336 L0.0912 0 L0 0.0752 L0.784 0.988 L1.0568 1.0112 L5.536 6.0104 L6.148 5.5712 L7.788 7.8528 L8.3488 7.448 Z M7.6312 7.964 L7.788 7.8512 L6.148 5.5696 L5.536 6.0088 L6.4848 7.0616 L6.5984 7.2192 C6.6008 7.2176 6.896 7.628 6.896 7.628 L7.3048 8.1976 L7.6312 7.964 Z" transform="translate(10.7244, 6.02)"/>
    <path style="fill:none;stroke:#000000; stroke-width:0.4; stroke-linecap:round; stroke-linejoin:round; stroke-dasharray:none;" d="M0.2952 0.4104 L0 0 " transform="translate(17.3252, 13.2384)"/>
    <path style="fill:none;stroke:#000000; stroke-width:0.4; stroke-linecap:round; stroke-linejoin:round; stroke-dasharray:none;" d="M0 0 L0.8176 1.1384 " transform="translate(15.982, 14.8256)"/>
    <path style="fill:none;stroke:#000000; stroke-width:0.4; stroke-linecap:round; stroke-linejoin:round; stroke-dasharray:928 1000 ; stroke-dashoffset:0;" d="M0 1.1768 L1.6384 0 " transform="translate(15.982, 13.6488)"/>
    <path style="fill:none;stroke:#000000; stroke-width:0.4; stroke-linecap:round; stroke-linejoin:round; stroke-dasharray:none;" d="M0.8168 1.1376 L0 0 " transform="translate(17.6204, 13.6488)"/>
    <path style="fill:#787a7c; fill-rule:evenodd;stroke:none;" d="M0.2784 0.0624 L0.2336 0 L0 0.168 L0.0448 0.2304 L0.2784 0.0624 Z" transform="translate(17.8684, 17.2832)"/>
    <path style="fill:none;stroke:#000000; stroke-width:0.4; stroke-linecap:round; stroke-linejoin:round; stroke-dasharray:none;" d="M0 0 L1.1128 1.5488 " transform="translate(16.7996, 15.964)"/>
    <path style="fill:none;stroke:#000000; stroke-width:0.4; stroke-linecap:round; stroke-linejoin:round; stroke-dasharray:none;" d="M1.0256 1.428 L0 0 " transform="translate(18.4372, 14.7864)"/>
    <path style="fill:none;stroke:#000000; stroke-width:0.4; stroke-linecap:round; stroke-linejoin:round; stroke-dasharray:none;" d="M0 0.1248 L0.1744 0 " transform="translate(17.9124, 17.388)"/>
    <path style="fill:none;stroke:#000000; stroke-width:0.4; stroke-linecap:round; stroke-linejoin:round; stroke-dasharray:none;" d="M0 0 L0.2944 0.4104 " transform="translate(15.6876, 14.4152)"/>
    <path style="fill:none;stroke:#000000; stroke-width:0.4; stroke-linecap:round; stroke-linejoin:round; stroke-dasharray:none;" d="M1.6376 0 L0 1.1768 " transform="translate(15.6876, 13.2384)"/>
    <path style="fill:none;stroke:#000000; stroke-width:0.4; stroke-linecap:round; stroke-linejoin:round; stroke-dasharray:none;" d="M1.0336 1.4392 L0 0 " transform="translate(18.47, 14.8368)"/>
    <path style="fill:none;stroke:#000000; stroke-width:0.4; stroke-linecap:round; stroke-linejoin:round; stroke-dasharray:none;" d="M0 0 L0.8864 1.2336 " transform="translate(15.9484, 14.7784)"/>
    <path style="fill:none;stroke:#000000; stroke-width:0.4; stroke-linecap:round; stroke-linejoin:round; stroke-dasharray:none;" d="M0.8864 1.2336 L0 0 " transform="translate(17.5836, 13.6032)"/>
    <path style="fill:none;stroke:#000000; stroke-width:0.4; stroke-linecap:round; stroke-linejoin:round; stroke-dasharray:none;" d="M0 0 L0.3008 0.4176 " transform="translate(15.6476, 14.3608)"/>
    <path style="fill:none;stroke:#000000; stroke-width:0.4; stroke-linecap:round; stroke-linejoin:round; stroke-dasharray:928 1000 ; stroke-dashoffset:0;" d="M0 1.1752 L1.6352 0 " transform="translate(15.9484, 13.6032)"/>
    <path style="fill:none;stroke:#000000; stroke-width:0.4; stroke-linecap:round; stroke-linejoin:round; stroke-dasharray:none;" d="M0.236 0.3288 L0 0 " transform="translate(19.7468, 16.1008)"/>
    <path style="fill:none;stroke:#000000; stroke-width:0.4; stroke-linecap:round; stroke-linejoin:round; stroke-dasharray:none;" d="M0.2432 0 L0 0.1752 " transform="translate(19.5036, 16.1008)"/>
    <path style="fill:none;stroke:#000000; stroke-width:0.4; stroke-linecap:round; stroke-linejoin:round; stroke-dasharray:none;" d="M0.3 0.4176 L0 0 " transform="translate(17.2836, 13.1856)"/>
    <path style="fill:none;stroke:#000000; stroke-width:0.4; stroke-linecap:round; stroke-linejoin:round; stroke-dasharray:none;" d="M1.636 0 L0 1.1752 " transform="translate(15.6476, 13.1856)"/>
    <path style="fill:none;stroke:#000000; stroke-width:0.4; stroke-linecap:round; stroke-linejoin:round; stroke-dasharray:none;" d="M0 0 L1.0336 1.4384 " transform="translate(16.8348, 16.012)"/>
    <path style="fill:none;stroke:#000000; stroke-width:0.4; stroke-linecap:round; stroke-linejoin:round; stroke-dasharray:none;" d="M0 1.1056 L1.5392 0 " transform="translate(18.4436, 16.4296)"/>
    <path style="fill:none;stroke:#000000; stroke-width:0.4; stroke-linecap:round; stroke-linejoin:round; stroke-dasharray:none;" d="M0 0 L0.7824 0.9104 " transform="translate(14.934, 11.2384)"/>
    <path style="fill:none;stroke:#000000; stroke-width:0.2; stroke-linecap:butt; stroke-linejoin:miter; stroke-dasharray:none;" d="M0.1216 0.4304 L0 0.5392 L5.4952 6.9288 L5.6152 6.82 L0.1216 0.4304 Z M5.6152 6.82 L5.4952 6.9288 L6.2832 7.8376 L6.3992 7.7312 L5.6152 6.82 Z M6.116 6.388 L5.9936 6.4968 L6.78 7.408 L6.8984 7.3 L6.116 6.388 Z M0.6216 0 L0.5024 0.1064 L5.9944 6.4976 L6.1168 6.3888 L0.6216 0 Z M5.8496 6.3296 L5.6 6.0432 L5.224 6.3624 L5.4728 6.6528 L5.8496 6.3296 Z M5.4728 6.6528 L5.6152 6.82 L5.9936 6.4976 L5.8488 6.3296 L5.4728 6.6528 Z M5.6152 6.82 L5.7592 6.9864 L6.1368 6.664 L5.9936 6.4976 L5.6152 6.82 Z M5.7592 6.9864 L6.0096 7.2752 L6.384 6.9536 L6.136 6.664 L5.7592 6.9864 Z" transform="translate(10.0508, 6.0304)"/>
    <path style="fill:none;stroke:#000000; stroke-width:0.4; stroke-linecap:round; stroke-linejoin:round; stroke-dasharray:none;" d="M0 0 L0.248 0.288 " transform="translate(15.9796, 12.4496)"/>
    <path style="fill:none;stroke:#000000; stroke-width:0.4; stroke-linecap:round; stroke-linejoin:round; stroke-dasharray:none;" d="M0 0 L0.2888 0.3352 " transform="translate(16.2276, 12.7376)"/>
    <path style="fill:none;stroke:#000000; stroke-width:0.4; stroke-linecap:round; stroke-linejoin:round; stroke-dasharray:none;" d="M0 0 L0.248 0.288 " transform="translate(16.5164, 13.0728)"/>
    <path style="fill:none;stroke:#000000; stroke-width:0.4; stroke-linecap:round; stroke-linejoin:round; stroke-dasharray:none;" d="M0.1144 0 L0 0.1048 " transform="translate(16.8316, 13.3336)"/>
    <path style="fill:none;stroke:#000000; stroke-width:0.4; stroke-linecap:round; stroke-linejoin:round; stroke-dasharray:none;" d="M6.2784 7.3016 L0 0 " transform="translate(10.5532, 6.1368)"/>
    <path style="fill:none;stroke:#000000; stroke-width:0.4; stroke-linecap:round; stroke-linejoin:round; stroke-dasharray:none;" d="M0 0.1064 L0.1192 0 " transform="translate(10.5532, 6.0304)"/>
    <path style="fill:none;stroke:#000000; stroke-width:0.4; stroke-linecap:round; stroke-linejoin:round; stroke-dasharray:none;" d="M0.1216 0 L0 0.1088 " transform="translate(16.3292, 13.7616)"/>
    <path style="fill:none;stroke:#000000; stroke-width:0.4; stroke-linecap:round; stroke-linejoin:round; stroke-dasharray:none;" d="M3.9616 2.6896 L0 0 " transform="translate(11.1884, 6.0536)"/>
    <path style="fill:none;stroke:#000000; stroke-width:0.4; stroke-linecap:round; stroke-linejoin:round; stroke-dasharray:none;" d="M0.3768 0.0312 L0 0 " transform="translate(10.8116, 6.0224)"/>
    <path style="fill:none;stroke:#000000; stroke-width:0.4; stroke-linecap:round; stroke-linejoin:round; stroke-dasharray:none;" d="M0 0 L0.2752 0.0208 L5.7656 6.1088 " transform="translate(11.5084, 7.008)"/>
    <path style="fill:none;stroke:#000000; stroke-width:0.4; stroke-linecap:round; stroke-linejoin:round; stroke-dasharray:none;" d="M0.784 0.9128 L0 0 " transform="translate(10.7244, 6.0952)"/>
    <path style="fill:none;stroke:#000000; stroke-width:0.4; stroke-linecap:round; stroke-linejoin:round; stroke-dasharray:none;" d="M0.0872 0 L0 0.0728 " transform="translate(10.7244, 6.0224)"/>
    <path style="fill:none;stroke:#000000; stroke-width:0.4; stroke-linecap:round; stroke-linejoin:round; stroke-dasharray:none;" d="M0 0 L2.2944 3.1928 " transform="translate(17.2092, 13.0832)"/>
    <path style="fill:none;stroke:#000000; stroke-width:0.4; stroke-linecap:round; stroke-linejoin:round; stroke-dasharray:none;" d="M0 0 L3.22 3.7448 " transform="translate(15.15, 8.7432)"/>
    <path style="fill:none;stroke:#000000; stroke-width:0.4; stroke-linecap:round; stroke-linejoin:round; stroke-dasharray:none;" d="M0 0 L2.2496 3.1312 " transform="translate(18.37, 12.488)"/>
    <path style="fill:none;stroke:#000000; stroke-width:0.4; stroke-linecap:round; stroke-linejoin:round; stroke-dasharray:none;" d="M0.5704 0 L0 0.7 " transform="translate(20.0492, 15.6192)"/>
    <path style="fill:none;stroke:#000000; stroke-width:0.4; stroke-linecap:round; stroke-linejoin:round; stroke-dasharray:none;" d="M0.2064 0.2872 L0 0 " transform="translate(19.8428, 16.032)"/>
    <path style="fill:none;stroke:#000000; stroke-width:0.4; stroke-linecap:round; stroke-linejoin:round; stroke-dasharray:none;" d="M1.8704 0 L0 1.344 " transform="translate(17.8796, 15.9024)"/>
    <path style="fill:none;stroke:#000000; stroke-width:0.4; stroke-linecap:round; stroke-linejoin:round; stroke-dasharray:none;" d="M2.74 3.1944 L0 0 " transform="translate(11.6276, 9.384)"/>
    <path style="fill:none;stroke:#000000; stroke-width:0.4; stroke-linecap:round; stroke-linejoin:round; stroke-dasharray:none;" d="M0.4744 0.0752 L0 0 " transform="translate(11.1532, 9.3088)"/>
    <path style="fill:none;stroke:#000000; stroke-width:0.4; stroke-linecap:round; stroke-linejoin:round; stroke-dasharray:none;" d="M0.0832 0 L0 0.06 " transform="translate(11.07, 9.3088)"/>
    <path style="fill:none;stroke:#000000; stroke-width:0.4; stroke-linecap:round; stroke-linejoin:round; stroke-dasharray:none;" d="M3.5008 4.872 L0 0 " transform="translate(14.3676, 12.5784)"/>
    <path style="fill:none;stroke:#000000; stroke-width:0.4; stroke-linecap:round; stroke-linejoin:round; stroke-dasharray:none;" d="M0 0.1672 L0.2336 0 " transform="translate(17.8684, 17.2832)"/>
    <path style="fill:none;stroke:#000000; stroke-width:0.4; stroke-linecap:round; stroke-linejoin:round; stroke-dasharray:none;" d="M0 0 L0.364 0.5072 " transform="translate(18.102, 17.2832)"/>
    <path style="fill:none;stroke:#000000; stroke-width:0.4; stroke-linecap:round; stroke-linejoin:round; stroke-dasharray:none;" d="M0.888 0 L0 0.6376 " transform="translate(17.578, 17.7904)"/>
    <path style="fill:none;stroke:#000000; stroke-width:0.4; stroke-linecap:round; stroke-linejoin:round; stroke-dasharray:none;" d="M6.508 9.0592 L0 0 " transform="translate(11.07, 9.3688)"/>
    <path style="fill:none;stroke:#000000; stroke-width:0.4; stroke-linecap:round; stroke-linejoin:round; stroke-dasharray:928 1000 ; stroke-dashoffset:0;" d="M1.3936 1.94 L0 0 " transform="translate(7.8964, 10.328)"/>
    <path style="fill:#787a7c; fill-rule:evenodd;stroke:none;" d="M4.1752 1.4272 L3.8752 1.644 L3.6392 1.3152 L3.716 1.26 L2.8904 0.1096 L2.8112 0 L2.1568 0.4704 L1.8904 0.0984 L0 1.456 L0.4616 2.1008 L0.5896 2.0096 L1.7656 3.6472 L4.4072 1.7496 L4.1752 1.4272 Z" transform="translate(13.63, 16.8448)"/>
    <path style="fill:none;stroke:#000000; stroke-width:0.4; stroke-linecap:round; stroke-linejoin:round; stroke-dasharray:928 1000 ; stroke-dashoffset:0;" d="M0 0 L0.2672 0.372 " transform="translate(15.5236, 16.9408)"/>
    <path style="fill:none;stroke:#000000; stroke-width:0.4; stroke-linecap:round; stroke-linejoin:round; stroke-dasharray:none;" d="M0.0696 0.096 L0 0 " transform="translate(13.5564, 18.208)"/>
    <path style="fill:none;stroke:#000000; stroke-width:0.4; stroke-linecap:round; stroke-linejoin:round; stroke-dasharray:928 1000 ; stroke-dashoffset:0;" d="M0 1.3632 L1.8976 0 " transform="translate(13.626, 16.9408)"/>
    <path style="fill:none;stroke:#000000; stroke-width:0.4; stroke-linecap:round; stroke-linejoin:round; stroke-dasharray:928 1000 ; stroke-dashoffset:0;" d="M0 0 L0.876 1.2192 " transform="translate(14.6476, 15.7216)"/>
    <path style="fill:none;stroke:#000000; stroke-width:0.4; stroke-linecap:round; stroke-linejoin:round; stroke-dasharray:928 1000 ; stroke-dashoffset:0;" d="M0 1.3632 L1.8968 0 " transform="translate(12.7508, 15.7216)"/>
    <path style="fill:none;stroke:#000000; stroke-width:0.4; stroke-linecap:round; stroke-linejoin:round; stroke-dasharray:none;" d="M0 0 L0.0792 0.1096 " transform="translate(16.4412, 16.8448)"/>
    <path style="fill:none;stroke:#000000; stroke-width:0.4; stroke-linecap:round; stroke-linejoin:round; stroke-dasharray:928 1000 ; stroke-dashoffset:0;" d="M0 0.468 L0.6504 0 " transform="translate(15.7908, 16.8448)"/>
    <path style="fill:none;stroke:#000000; stroke-width:0.4; stroke-linecap:round; stroke-linejoin:round; stroke-dasharray:928 1000 ; stroke-dashoffset:0;" d="M0 0 L0.2648 0.3696 " transform="translate(14.3828, 15.352)"/>
    <path style="fill:none;stroke:#000000; stroke-width:0.4; stroke-linecap:round; stroke-linejoin:round; stroke-dasharray:none;" d="M0 0 L0.3344 0.4656 " transform="translate(15.0332, 14.8848)"/>
    <path style="fill:none;stroke:#000000; stroke-width:0.4; stroke-linecap:round; stroke-linejoin:round; stroke-dasharray:928 1000 ; stroke-dashoffset:0;" d="M0.6504 0 L0 0.4672 " transform="translate(14.3828, 14.8848)"/>
    <path style="fill:none;stroke:#000000; stroke-width:0.4; stroke-linecap:round; stroke-linejoin:round; stroke-dasharray:none;" d="M0 0 L0.0736 0.1024 " transform="translate(16.0316, 16.2752)"/>
    <path style="fill:none;stroke:#000000; stroke-width:0.4; stroke-linecap:round; stroke-linejoin:round; stroke-dasharray:none;" d="M0.5904 0.8216 L0 0 " transform="translate(12.8932, 17.284)"/>
    <path style="fill:none;stroke:#000000; stroke-width:0.4; stroke-linecap:round; stroke-linejoin:round; stroke-dasharray:928 1000 ; stroke-dashoffset:0;" d="M2.548 0 L0 1.8304 " transform="translate(13.4836, 16.2752)"/>
    <path style="fill:none;stroke:#000000; stroke-width:0.4; stroke-linecap:round; stroke-linejoin:round; stroke-dasharray:none;" d="M0.0744 0.1032 L0 0 " transform="translate(12.8188, 17.1808)"/>
    <path style="fill:none;stroke:#000000; stroke-width:0.4; stroke-linecap:round; stroke-linejoin:round; stroke-dasharray:none;" d="M0 0 L0.5904 0.8216 " transform="translate(15.4412, 15.4536)"/>
    <path style="fill:none;stroke:#000000; stroke-width:0.4; stroke-linecap:round; stroke-linejoin:round; stroke-dasharray:928 1000 ; stroke-dashoffset:0;" d="M2.548 0 L0 1.8304 " transform="translate(12.8932, 15.4536)"/>
    <path style="fill:none;stroke:#000000; stroke-width:0.4; stroke-linecap:round; stroke-linejoin:round; stroke-dasharray:none;" d="M0 0 L0.336 0.4672 " transform="translate(16.1052, 16.3776)"/>
    <path style="fill:none;stroke:#000000; stroke-width:0.4; stroke-linecap:round; stroke-linejoin:round; stroke-dasharray:none;" d="M0.0728 0.1024 L0 0 " transform="translate(13.4836, 18.1056)"/>
    <path style="fill:none;stroke:#000000; stroke-width:0.4; stroke-linecap:round; stroke-linejoin:round; stroke-dasharray:928 1000 ; stroke-dashoffset:0;" d="M2.5488 0 L0 1.8304 " transform="translate(13.5564, 16.3776)"/>
    <path style="fill:none;stroke:#000000; stroke-width:0.4; stroke-linecap:round; stroke-linejoin:round; stroke-dasharray:none;" d="M0 0 L0.0736 0.1032 " transform="translate(15.3676, 15.3504)"/>
    <path style="fill:none;stroke:#000000; stroke-width:0.4; stroke-linecap:round; stroke-linejoin:round; stroke-dasharray:none;" d="M0.068 0.096 L0 0 " transform="translate(12.7508, 17.0848)"/>
    <path style="fill:none;stroke:#000000; stroke-width:0.4; stroke-linecap:round; stroke-linejoin:round; stroke-dasharray:928 1000 ; stroke-dashoffset:0;" d="M2.5488 0 L0 1.8304 " transform="translate(12.8188, 15.3504)"/>
    <path style="fill:none;stroke:#000000; stroke-width:0.4; stroke-linecap:round; stroke-linejoin:round; stroke-dasharray:none;" d="M0 0 L0.592 0.8232 " transform="translate(13.3052, 12.48)"/>
    <path style="fill:none;stroke:#000000; stroke-width:0.4; stroke-linecap:round; stroke-linejoin:round; stroke-dasharray:none;" d="M0 0 L0.072 0.1008 " transform="translate(13.8972, 13.3032)"/>
    <path style="fill:none;stroke:#000000; stroke-width:0.4; stroke-linecap:round; stroke-linejoin:round; stroke-dasharray:none;" d="M2.4208 3.3704 L0 0 " transform="translate(9.394, 12.4128)"/>
    <path style="fill:none;stroke:#000000; stroke-width:0.4; stroke-linecap:round; stroke-linejoin:round; stroke-dasharray:none;" d="M0 0 L0.0752 0.1048 " transform="translate(13.23, 12.3752)"/>
    <path style="fill:none;stroke:#000000; stroke-width:0.4; stroke-linecap:round; stroke-linejoin:round; stroke-dasharray:none;" d="M0 0 L1.064 1.4808 " transform="translate(13.9692, 13.404)"/>
    <path style="fill:none;stroke:#000000; stroke-width:0.4; stroke-linecap:round; stroke-linejoin:round; stroke-dasharray:none;" d="M0 0 L1.664 4.4056 " transform="translate(9.4644, 8.3408)"/>
    <path style="fill:none;stroke:#000000; stroke-width:0.4; stroke-linecap:round; stroke-linejoin:round; stroke-dasharray:none;" d="M0 0 L0.0448 0.1232 " transform="translate(9.4196, 8.2176)"/>
    <path style="fill:none;stroke:#000000; stroke-width:0.4; stroke-linecap:round; stroke-linejoin:round; stroke-dasharray:928 1000 ; stroke-dashoffset:0;" d="M0 1.3824 L0.2288 0 " transform="translate(7.1932, 6.5872)"/>
    <path style="fill:none;stroke:#000000; stroke-width:0.4; stroke-linecap:round; stroke-linejoin:round; stroke-dasharray:none;" d="M0 0 L0.5264 1.388 " transform="translate(8.8932, 6.8296)"/>
    <path style="fill:none;stroke:#000000; stroke-width:0.4; stroke-linecap:round; stroke-linejoin:round; stroke-dasharray:none;" d="M0 0.1136 L0.0168 0 " transform="translate(7.422, 6.4736)"/>
    <path style="fill:none;stroke:#000000; stroke-width:0.4; stroke-linecap:round; stroke-linejoin:round; stroke-dasharray:none;" d="M0 0 L0.0464 0.1232 " transform="translate(8.8468, 6.7064)"/>
    <path style="fill:none;stroke:#000000; stroke-width:0.4; stroke-linecap:round; stroke-linejoin:round; stroke-dasharray:928 1000 ; stroke-dashoffset:0;" d="M0 1.1616 L0.1872 0 " transform="translate(7.4388, 5.312)"/>
    <path style="fill:none;stroke:#000000; stroke-width:0.4; stroke-linecap:round; stroke-linejoin:round; stroke-dasharray:none;" d="M0 0.7056 L1.8616 0 " transform="translate(11.1284, 12.0408)"/>
    <path style="fill:none;stroke:#000000; stroke-width:0.4; stroke-linecap:round; stroke-linejoin:round; stroke-dasharray:none;" d="M0.8256 1.1504 L0 0 " transform="translate(16.5204, 16.9544)"/>
    <path style="fill:none;stroke:#000000; stroke-width:0.4; stroke-linecap:round; stroke-linejoin:round; stroke-dasharray:none;" d="M0 0.0552 L0.0768 0 " transform="translate(17.2692, 18.1048)"/>
    <path style="fill:none;stroke:#000000; stroke-width:0.4; stroke-linecap:round; stroke-linejoin:round; stroke-dasharray:none;" d="M0.232 0.3232 L0 0 " transform="translate(17.2692, 18.16)"/>
    <path style="fill:none;stroke:#000000; stroke-width:0.4; stroke-linecap:round; stroke-linejoin:round; stroke-dasharray:none;" d="M0.3016 0 L0 0.216 " transform="translate(17.5012, 18.2672)"/>
    <path style="fill:none;stroke:#000000; stroke-width:0.4; stroke-linecap:round; stroke-linejoin:round; stroke-dasharray:none;" d="M0.2344 0.3272 L0 0 " transform="translate(17.8028, 18.2672)"/>
    <path style="fill:none;stroke:#000000; stroke-width:0.4; stroke-linecap:round; stroke-linejoin:round; stroke-dasharray:none;" d="M0 0 L0.24 0.3344 " transform="translate(12.99, 12.0408)"/>
    <path style="fill:#dadbdc; fill-rule:evenodd;stroke:none;" d="M1.3368 2.8744 L4.7864 10.036 L4.9872 9.9424 L0.2088 0.008 C0.2032 0 0 0.0952 0 0.0952 L1.152 2.4864 L1.236 2.6032 L1.3368 2.8744 Z" transform="translate(6.9908, 2.4608)"/>
    <path style="fill:none;stroke:#000000; stroke-width:0.4; stroke-linecap:round; stroke-linejoin:round; stroke-dasharray:none;" d="M0 0 L0.62 1.6416 " transform="translate(8.2268, 5.0648)"/>
    <path style="fill:none;stroke:#000000; stroke-width:0.4; stroke-linecap:round; stroke-linejoin:round; stroke-dasharray:none;" d="M0 0 L0.088 0.1224 " transform="translate(8.1388, 4.9424)"/>
    <path style="fill:none;stroke:#000000; stroke-width:0.4; stroke-linecap:round; stroke-linejoin:round; stroke-dasharray:928 1000 ; stroke-dashoffset:0;" d="M0 1.12 L0.1864 0 " transform="translate(7.0068, 7.9696)"/>
    <path style="fill:none;stroke:#000000; stroke-width:0.4; stroke-linecap:round; stroke-linejoin:round; stroke-dasharray:928 1000 ; stroke-dashoffset:0;" d="M0.1672 0.2328 L0 0 " transform="translate(7.0068, 9.0896)"/>
    <path style="fill:none;stroke:#000000; stroke-width:0.4; stroke-linecap:round; stroke-linejoin:round; stroke-dasharray:none;" d="M0.5128 0 L0 0.3696 " transform="translate(7.626, 4.9424)"/>
    <path style="fill:none;stroke:#000000; stroke-width:0.4; stroke-linecap:round; stroke-linejoin:round; stroke-dasharray:none;" d="M0.4624 0.644 L0 0 " transform="translate(13.626, 18.304)"/>
    <path style="fill:none;stroke:#000000; stroke-width:0.4; stroke-linecap:round; stroke-linejoin:round; stroke-dasharray:928 1000 ; stroke-dashoffset:0;" d="M0.5544 0 L0 0.3976 " transform="translate(7.8964, 9.9304)"/>
    <path style="fill:none;stroke:#000000; stroke-width:0.4; stroke-linecap:round; stroke-linejoin:round; stroke-dasharray:928 1000 ; stroke-dashoffset:0;" d="M0 0 L0.7224 1.0064 " transform="translate(7.7284, 8.924)"/>
    <path style="fill:none;stroke:#000000; stroke-width:0.4; stroke-linecap:round; stroke-linejoin:round; stroke-dasharray:928 1000 ; stroke-dashoffset:0;" d="M0 0.3984 L0.5544 0 " transform="translate(7.174, 8.924)"/>
    <path style="fill:none;stroke:#000000; stroke-width:0.4; stroke-linecap:round; stroke-linejoin:round; stroke-dasharray:none;" d="M0 1.8976 L2.6416 0 " transform="translate(15.3956, 18.5944)"/>
    <path style="fill:none;stroke:#000000; stroke-width:0.4; stroke-linecap:round; stroke-linejoin:round; stroke-dasharray:none;" d="M0 0 L1.176 1.6376 " transform="translate(14.2196, 18.8544)"/>
    <path style="fill:none;stroke:#000000; stroke-width:0.4; stroke-linecap:round; stroke-linejoin:round; stroke-dasharray:none;" d="M0 0.0936 L0.1312 0 " transform="translate(14.0884, 18.8544)"/>
    <path style="fill:none;stroke:#000000; stroke-width:0.4; stroke-linecap:round; stroke-linejoin:round; stroke-dasharray:none;" d="M0.2008 0 L0 0.0936 " transform="translate(11.7772, 12.404)"/>
    <path style="fill:#787a7c; fill-rule:evenodd;stroke:none;" d="M10.7776 11.9432 L10.8616 11.8736 L2.4824 2.1832 L0.0736 0 L0 0.0832 L2.4056 2.2616 C2.4104 2.2688 10.7776 11.9432 10.7776 11.9432 Z" transform="translate(4.7892, 0.2)"/>
    <path style="fill:none;stroke:#000000; stroke-width:0.4; stroke-linecap:round; stroke-linejoin:round; stroke-dasharray:none;" d="M0 0 L4.784 9.9424 " transform="translate(7.194, 2.4616)"/>
    <path style="fill:none;stroke:#000000; stroke-width:0.4; stroke-linecap:round; stroke-linejoin:round; stroke-dasharray:none;" d="M0 0.0952 L0.2032 0 " transform="translate(6.9908, 2.4616)"/>
    <path style="fill:#b8babc; fill-rule:evenodd;stroke:none;" d="M0.4616 0 L0 0.2672 L0.9024 1.9808 L1.6008 1.5856 L0.4616 0 Z" transform="translate(11.1196, 10.256)"/>
    <path style="fill:none;stroke:#000000; stroke-width:0.4; stroke-linecap:round; stroke-linejoin:round; stroke-dasharray:none;" d="M0.9064 1.2624 L0 0 " transform="translate(11.6508, 10.3128)"/>
    <path style="fill:none;stroke:#000000; stroke-width:0.4; stroke-linecap:round; stroke-linejoin:round; stroke-dasharray:none;" d="M0.672 1.3968 L0 0 " transform="translate(11.1948, 10.5896)"/>
    <path style="fill:none;stroke:#000000; stroke-width:0.4; stroke-linecap:round; stroke-linejoin:round; stroke-dasharray:none;" d="M0.9064 1.2624 L0 0 " transform="translate(11.7156, 10.2664)"/>
    <path style="fill:none;stroke:#000000; stroke-width:0.4; stroke-linecap:round; stroke-linejoin:round; stroke-dasharray:none;" d="M0.676 1.4056 L0 0 " transform="translate(11.1236, 10.6192)"/>
    <path style="fill:none;stroke:#000000; stroke-width:0.4; stroke-linecap:round; stroke-linejoin:round; stroke-dasharray:none;" d="M0 0 L2.4088 2.1832 " transform="translate(4.8628, 0.2)"/>
    <path style="fill:none;stroke:#000000; stroke-width:0.2; stroke-linecap:round; stroke-linejoin:round; stroke-dasharray:none;" d="M8.3728 9.6816 L0 0 " transform="translate(7.194, 2.4616)"/>
    <path style="fill:none;stroke:#000000; stroke-width:0.4; stroke-linecap:round; stroke-linejoin:round; stroke-dasharray:none;" d="M0 0.0832 L0.0744 0 " transform="translate(4.7884, 0.2)"/>
    <path style="fill:none;stroke:#000000; stroke-width:0.4; stroke-linecap:round; stroke-linejoin:round; stroke-dasharray:none;" d="M2.4056 2.1784 L0 0 " transform="translate(4.7884, 0.2832)"/>
    <path style="fill:none;stroke:#000000; stroke-width:0.4; stroke-linecap:round; stroke-linejoin:round; stroke-dasharray:none;" d="M0 0 L8.3792 9.6896 " transform="translate(7.2716, 2.3832)"/>
    <path style="fill:none;stroke:#000000; stroke-width:0.4; stroke-linecap:round; stroke-linejoin:round; stroke-dasharray:none;" d="M0.1776 0.4352 C0 0.844 0.1832 1.3152 0.5856 1.492 C0.9832 1.672 1.4616 1.496 1.6392 1.0872 C1.8224 0.6864 1.6392 0.2136 1.2336 0.0288 C1.2136 0.0248 1.1824 0.0128 1.1584 0 " transform="translate(8.4724, 13.0624)"/>
    <path style="fill:none;stroke:#000000; stroke-width:0.4; stroke-linecap:round; stroke-linejoin:round; stroke-dasharray:928 1000 ; stroke-dashoffset:0;" d="M0.1368 0 C0 0.4208 0.224 0.872 0.6464 1.016 C0.8912 1.1 1.1552 1.0552 1.364 0.9056 " transform="translate(8.4828, 13.5704)"/>
    <path style="fill:none;stroke:#000000; stroke-width:0.4; stroke-linecap:round; stroke-linejoin:round; stroke-dasharray:none;" d="M0 0.4112 C0.0968 0.6112 0.3384 0.696 0.5384 0.596 C0.74 0.5016 0.824 0.2664 0.7312 0.0616 C0.7192 0.04 0.7048 0.02 0.6904 0 " transform="translate(11.8668, 11.5752)"/>
    <path style="fill:none;stroke:#000000; stroke-width:0.4; stroke-linecap:round; stroke-linejoin:round; stroke-dasharray:none;" d="M0.5144 0.1504 C0.4312 0.0344 0.2616 0 0.1416 0.0864 C0.0352 0.1632 0 0.3032 0.0584 0.4272 " transform="translate(11.1364, 10.1624)"/>
    <path style="fill:none;stroke:#000000; stroke-width:0.4; stroke-linecap:round; stroke-linejoin:round; stroke-dasharray:none;" d="M0.6672 0.1896 C0.5536 0.032 0.3384 0 0.1848 0.1096 C0.048 0.208 0 0.3872 0.0752 0.5424 " transform="translate(11.0484, 10.0768)"/>
    <path style="fill:none;stroke:#000000; stroke-width:0.4; stroke-linecap:round; stroke-linejoin:round; stroke-dasharray:none;" d="M0 0.4968 C0.1136 0.7352 0.3976 0.8352 0.6432 0.7192 C0.8808 0.6016 0.9856 0.3192 0.864 0.072 C0.8536 0.0496 0.84 0.0248 0.8216 0 " transform="translate(11.7996, 11.528)"/>
    <path style="fill:none;stroke:#000000; stroke-width:0.4; stroke-linecap:round; stroke-linejoin:round; stroke-dasharray:none;" d="M0.016 0.1984 C0.0448 0.136 0.0408 0.0568 0 0 " transform="translate(8.634, 13.2992)"/>
    <path style="fill:none;stroke:#000000; stroke-width:0.4; stroke-linecap:round; stroke-linejoin:round; stroke-dasharray:none;" d="M0 0 C0.0064 0.0672 0.0632 0.132 0.1304 0.1464 " transform="translate(9.5012, 12.9168)"/>
    <path style="fill:#58595b; fill-rule:evenodd;stroke:none;" d="M0.6672 0.1896 C0.5536 0.032 0.3384 0 0.1848 0.1096 C0.048 0.208 0 0.3872 0.0752 0.5424 L0.7512 1.948 C0.8648 2.1864 1.1488 2.2864 1.3944 2.1704 C1.632 2.0528 1.7368 1.7704 1.6152 1.5232 C1.6072 1.4984 1.5912 1.476 1.5728 1.4512 L0.6672 0.1896 L0.6672 0.1896 Z M0.6024 0.236 C0.5192 0.12 0.3496 0.0856 0.2296 0.172 C0.1232 0.2488 0.088 0.3888 0.1464 0.5128 L0.8208 1.908 C0.9152 2.1096 1.156 2.1944 1.356 2.0944 C1.5576 2 1.6464 1.7616 1.5488 1.56 C1.5344 1.54 1.5224 1.5184 1.508 1.4984 L0.6024 0.236 L0.6024 0.236 Z" transform="translate(11.0484, 10.0768)"/>
    <path style="fill:none;stroke:#000000; stroke-width:0.4; stroke-linecap:round; stroke-linejoin:round; stroke-dasharray:none;" d="M0.1072 0.504 L0 0 " transform="translate(9.394, 12.4128)"/>
   </g>
   <g id="INSERT_10_" clip-path="url(#Clip2)">
    <path style="fill:#97999b; fill-rule:nonzero;stroke:#000000; stroke-width:0.56696; stroke-linecap:round; stroke-linejoin:round; stroke-dasharray:none;" d="M0 22.8496 L1.136 23.2496 L9.2104 0.4008 L8.076 0 L0 22.8496 " transform="translate(4.238, 22.1968)"/>
    <g id="Group2" clip-path="url(#Clip3)">
     <path style="fill:none;stroke:#a5a7aa; stroke-width:3.2; stroke-linecap:butt; stroke-linejoin:miter; stroke-dasharray:none;" d="M48.3216 24.1608 C48.3216 37.5049 37.5049 48.3216 24.1608 48.3216 C10.8172 48.3216 0 37.5049 0 24.1608 C0 10.8172 10.8172 0 24.1608 0 C37.5049 0 48.3216 10.8172 48.3216 24.1608 Z" transform="translate(5.1556, 29.5056)"/>
     <path style="fill:none;stroke:#1a1a19; stroke-width:0.5672; stroke-linecap:butt; stroke-linejoin:miter; stroke-dasharray:none;" d="M50.1152 14.1856 C58.4104 25.7328 55.776 41.8184 44.2264 50.1152 C32.6792 58.4104 16.5928 55.7744 8.2968 44.228 C0 32.6776 2.6376 16.592 14.1856 8.296 C25.7328 0 41.8184 2.636 50.1152 14.1856 Z" transform="translate(0.2836, 24.4272)"/>
     <path style="fill:none;stroke:#1a1a19; stroke-width:0.5672; stroke-linecap:butt; stroke-linejoin:miter; stroke-dasharray:none;" d="M44.3344 12.5488 C51.6736 22.764 49.3408 36.9936 39.1232 44.3328 C28.9088 51.672 14.6784 49.3392 7.34 39.1248 C0 28.908 2.3336 14.6768 12.548 7.34 C22.7656 0 36.9952 2.332 44.3344 12.5488 Z" transform="translate(3.5108, 28)"/>
    </g>
    <path style="fill:#a5a7aa; fill-rule:nonzero;stroke:#000000; stroke-width:0.56696; stroke-linecap:round; stroke-linejoin:round; stroke-dasharray:none;" d="M9.9104 9.9424 L16.4672 19.0688 L13.8608 20.9416 L0 1.648 L2.2768 0 L2.2824 0.0088 L9.5856 10.1752 L9.9104 9.9424 Z" transform="translate(5.81, 10.3168)"/>
    <g id="Group3" clip-path="url(#Clip4)">
     <path style="fill:none;stroke:#000000; stroke-width:0.56696; stroke-linecap:round; stroke-linejoin:round; stroke-dasharray:none;" d="M0 0 L0.14 0.3816 " transform="translate(6.2332, 64.892)"/>
     <path style="fill:#97999b; fill-rule:nonzero;stroke:#000000; stroke-width:0.6; stroke-linecap:round; stroke-linejoin:round; stroke-dasharray:none;" d="M0 2.1712 C1.028 4.4824 2.3552 6.568 3.916 8.3992 L3.948 8.4256 L16.5104 42.6424 C18.0408 46.8016 22.652 48.9424 26.8128 47.408 C29.0848 46.5752 30.8624 44.7568 31.6424 42.4624 L43.3784 7.9464 L43.3704 7.9624 C44.672 6.364 45.7704 4.6184 46.6472 2.7736 L47.7736 0 L33.1608 42.9816 C32.2232 45.7328 30.0936 47.916 27.3672 48.9192 C22.3736 50.7536 16.8408 48.1928 15.0016 43.196 L0.2496 3.0088 L0 2.1712 Z" transform="translate(6.1236, 62.2648)"/>
    </g>
   </g>
   <path style="fill:#787a7c; fill-rule:evenodd;stroke:none;" d="M0 1.02229 L1.4228 0 L3.08134 2.30831 L1.65854 3.33061 L0 1.02229 Z" transform="translate(16.1432, 13.8085)"/>
   <path style="fill:#787a7c; fill-rule:evenodd;stroke:none;" d="M0 1.01482 L1.4124 0 L1.59819 0.258573 L0.185786 1.2734 L0 1.01482 Z" transform="translate(18.1916, 16.1417)"/>
  </g>
 </g>
</svg>
