<?xml version="1.0" encoding="utf-8"?>
<!-- Generator: Adobe Illustrator 23.0.3, SVG Export Plug-In . SVG Version: 6.00 Build 0)  -->
<svg version="1.1" id="Logo" xmlns="http://www.w3.org/2000/svg" xmlns:xlink="http://www.w3.org/1999/xlink" x="0px" y="0px"
	 viewBox="0 0 629.86 157.88" style="enable-background:new 0 0 629.86 157.88;" xml:space="preserve">
<style type="text/css">
	.st0{fill-rule:evenodd;clip-rule:evenodd;fill:#00833F;}
	.st1{fill-rule:evenodd;clip-rule:evenodd;fill:#FFFFFF;}
	.st2{fill-rule:evenodd;clip-rule:evenodd;fill:none;stroke:#FFFFFF;stroke-width:2.6436;stroke-miterlimit:10;}
	.st3{fill-rule:evenodd;clip-rule:evenodd;fill:#00833F;stroke:#FFFFFF;stroke-width:2.6436;stroke-miterlimit:10;}
	.st4{fill-rule:evenodd;clip-rule:evenodd;fill:none;stroke:#FFFFFF;stroke-width:2.6697;stroke-miterlimit:10;}
	.st5{fill-rule:evenodd;clip-rule:evenodd;fill:none;stroke:#FFFFFF;stroke-width:2.1555;stroke-miterlimit:10;}
	.st6{fill-rule:evenodd;clip-rule:evenodd;fill:none;stroke:#FFFFFF;stroke-width:2.2337;stroke-miterlimit:10;}
	.st7{fill-rule:evenodd;clip-rule:evenodd;fill:none;stroke:#FFFFFF;stroke-width:2.4639;stroke-miterlimit:10;}
	.st8{fill-rule:evenodd;clip-rule:evenodd;fill:none;stroke:#FFFFFF;stroke-width:2.461;stroke-miterlimit:10;}
	.st9{fill-rule:evenodd;clip-rule:evenodd;fill:none;stroke:#FFFFFF;stroke-width:2.6433;stroke-miterlimit:10;}
	.st10{fill-rule:evenodd;clip-rule:evenodd;fill:none;stroke:#000000;stroke-width:1.4136;stroke-miterlimit:10;}
</style>
<polygon class="st0" points="535.1,0.29 17.71,0 13.03,0.29 9.29,0.94 6.48,2.16 4.03,4.03 2.16,6.26 0.94,9.36 0.29,12.74 0,17.14 
	0,102.17 0.29,106.27 1.51,109.66 3.1,112.46 5.54,114.98 8.35,116.86 11.81,118.08 15.55,118.73 19.94,119.02 468.5,119.02 
	470.3,118.73 472.54,118.08 474.7,117.14 476.86,115.56 478.44,113.69 480.02,111.53 481.25,108.72 481.54,105.62 481.54,91.87 
	482.83,79.13 485.57,67.9 489.67,57.31 494.64,47.95 500.9,39.89 507.38,33.05 514.87,27.43 522.65,23.4 531.07,20.88 539.5,19.66 
	547.92,20.23 556.34,22.46 564.41,26.5 572.18,32.11 579.38,39.6 578.74,33.34 576.86,26.78 573.48,20.23 568.8,14.04 562.54,8.71 
	555.05,4.39 545.76,1.22 "/>
<path class="st1" d="M381.89,95.04V85.03c0.07,0,0.14,0,0.29,0c7.49,0,9-7.13,9-26.14c0-13.39,0.36-25.85-9.29-25.85V23.4
	c22.68,0,23.62,17.71,23.62,35.5C405.5,87.84,397.73,95.04,381.89,95.04L381.89,95.04z M413.64,24.62v68.83h13.1V45.79l16.78,47.66
	h15.91V24.62h-12.74v47.02l-16.85-47.02H413.64z M381.89,23.4v9.65c-9.72,0-9.36,12.74-9.36,25.49c0,18.14,1.51,26.28,9.36,26.5
	v10.01c-16.56,0-23.69-8.14-23.69-36.14C358.2,41.4,359.71,23.4,381.89,23.4L381.89,23.4z M232.7,95.04V85.03c0.07,0,0.22,0,0.29,0
	c7.49,0,9.07-7.13,9.07-26.14c0-13.39,0.29-25.85-9.36-25.85V23.4c22.75,0,23.69,17.71,23.69,35.5
	C256.39,87.84,248.62,95.04,232.7,95.04L232.7,95.04z M264.46,24.62v68.83h38.95V81.94H278.5V24.62H264.46L264.46,24.62z
	 M307.15,72.29c0,0.29,0,0.65,0,0.94c0,6.19,0.94,12.46,5.54,16.85c4.39,4.32,10.87,4.97,16.49,4.97c13.75,0,23.11-5.9,23.11-20.59
	c0-15.55-8.42-17.71-20.59-22.75c-4.97-1.87-10.01-4.32-10.01-10.3c0-5.26,2.52-8.35,8.14-8.35c6.26,0,7.49,4.97,7.49,9.94h13.1
	c0-13.68-6.91-19.58-20.88-19.58c-12.46,0-21.46,6.19-21.46,19.3c0,10.3,4.32,15.55,13.61,19.3l7.49,3.1
	c5.62,2.23,9.07,4.39,9.07,10.94c0,5.62-3.46,9-9.07,9c-7.13,0-8.42-6.19-8.42-11.81v-0.94H307.15z M24.55,24.62v68.83h13.1V45.79
	L54.5,93.46h15.91V24.62H57.6v47.02L40.75,24.62H24.55L24.55,24.62z M232.7,23.4v9.65c-9.65,0-9.36,12.74-9.36,25.49
	c0,18.14,1.51,26.28,9.36,26.5v10.01c-16.49,0-23.4-8.14-23.4-36.14C209.3,41.4,210.89,23.4,232.7,23.4L232.7,23.4z M81,24.62v68.83
	h13.68V24.62H81L81,24.62z M135.5,67.32c0,6.19,0,17.71-8.71,17.71c-4.68,0-7.2-3.74-7.78-8.06c-1.3-5.9-1.3-11.88-1.3-18.07
	c0-6.26,0-12.82,1.3-18.72c0.94-4.32,3.38-7.13,8.06-7.13c7.49,0,7.78,8.35,7.78,13.97h13.75c0-4.68,0-9.65-2.23-13.68
	c-3.74-7.49-10.87-9.94-18.65-9.94c-5.04,0-10.01,0.58-14.33,3.38c-4.68,3.1-7.49,7.49-8.42,13.1c-1.58,6.19-1.58,13.1-1.58,19.58
	c0,3.74,0,7.85,0.36,11.88c0.58,4.32,1.22,8.42,3.1,12.46c3.74,8.42,10.87,11.23,19.94,11.23c17.71,0,22.39-12.17,22.39-27.72H135.5
	L135.5,67.32z M170.71,51.12v-26.5h-14.04v68.83h14.04V62.64h16.49v30.82h14.04V24.62H187.2v26.5H170.71z"/>
<polygon class="st0" points="507.74,73.87 507.74,72.58 508.03,71.06 508.03,69.77 508.03,68.54 508.32,68.26 508.97,67.61 
	509.26,66.67 509.26,66.02 510.55,63.86 512.06,61.34 513.36,58.9 514.87,57.02 516.46,57.02 518.33,56.74 519.84,56.38 
	521.14,56.38 522.36,55.44 522.36,51.41 522.65,50.76 522.65,48.6 523.94,46.44 525.46,44.86 527.33,43.63 529.2,42.05 
	531.07,42.05 532.01,42.98 532.66,42.98 532.94,42.98 533.3,43.27 533.59,43.27 534.82,42.98 535.75,42.7 536.69,42.05 537.34,41.4 
	537.34,41.11 537.62,40.54 537.91,40.18 537.91,39.89 537.91,36.79 539.21,35.5 540.43,34.27 542.02,33.05 543.24,31.75 
	549.5,31.75 550.08,32.4 551.02,33.05 551.66,33.62 552.6,33.98 553.18,34.56 553.82,35.21 554.11,36.14 554.76,36.79 555.98,35.86 
	556.92,34.56 557.86,33.62 559.44,33.05 559.73,32.4 561.02,32.4 561.96,32.69 562.9,32.4 563.83,32.11 564.12,32.4 565.06,33.05 
	565.7,33.62 565.99,33.62 567.58,34.92 568.8,35.86 570.02,36.79 571.25,37.37 572.54,38.3 573.77,39.24 575.35,40.54 577.22,42.05 
	587.81,45.5 596.23,49.82 602.14,55.15 606.46,60.12 609.62,65.09 612.07,69.19 614.59,72.29 617.4,73.87 618.91,73.87 620.5,74.16 
	622.08,74.45 623.59,75.1 624.89,75.67 626.11,76.61 627.7,77.54 628.92,78.48 628.92,78.84 629.21,79.42 629.21,79.78 
	629.21,80.35 629.21,82.58 629.21,84.74 629.21,87.26 629.86,89.14 629.86,91.3 629.86,91.58 629.57,91.87 629.21,92.52 
	629.21,92.81 628.63,93.74 627.05,95.33 625.82,97.2 625.18,98.78 625.18,99.36 625.82,101.23 627.05,102.82 628.27,104.4 
	628.92,106.56 628.63,107.5 627.98,108.72 627.7,109.94 627.7,111.24 627.7,111.53 627.34,111.82 627.05,112.46 627.05,112.75 
	626.11,114.05 625.18,115.27 624.24,116.5 622.66,116.86 622.37,116.86 621.72,117.14 621.43,117.43 620.78,117.43 620.5,117.43 
	620.21,117.43 619.56,117.79 619.27,117.79 618.91,118.37 617.98,118.73 617.4,119.3 616.46,119.95 616.46,120.89 617.11,121.18 
	617.4,121.82 617.4,122.76 618.34,124.63 618.34,126.5 617.69,128.66 616.75,131.18 615.24,133.34 613.37,135.5 611.78,137.38 
	610.56,138.67 609.62,139.61 608.04,139.9 606.82,139.9 605.23,139.61 603.65,139.25 602.14,138.96 600.55,138.67 599.33,138.67 
	597.46,139.9 596.23,141.12 595.3,142.7 594.65,144.22 593.71,145.73 592.78,147.31 591.84,148.82 590.62,150.41 588.74,151.34 
	586.87,151.99 585,152.28 583.13,152.28 582.48,151.99 581.9,151.63 581.26,151.34 580.32,151.34 580.03,150.7 579.1,150.7 
	578.45,150.41 577.51,150.12 576.86,149.76 576.29,149.18 575.93,148.54 575.64,148.25 575.35,147.6 574.7,147.6 574.42,147.31 
	574.06,147.31 573.77,147.31 572.18,147.89 570.67,148.82 569.09,150.12 567.86,151.34 567.22,151.34 566.93,151.63 566.28,151.99 
	565.99,151.99 564.12,151.63 561.96,151.34 560.09,151.06 558.5,150.7 557.86,150.41 553.54,150.41 551.95,149.47 550.08,148.82 
	548.57,147.6 547.92,145.73 547.63,145.08 547.27,144.5 546.7,143.93 546.34,143.64 545.11,143.64 543.89,143.64 542.59,143.28 
	541.08,143.28 539.78,143.28 538.56,142.99 536.98,142.99 535.75,142.99 534.53,141.77 533.3,140.47 532.01,139.61 530.78,138.31 
	529.56,137.09 528.26,135.86 527.04,134.28 525.82,133.06 526.1,130.25 524.88,128.38 523.01,127.08 520.2,126.79 519.55,126.14 
	518.9,125.57 518.04,125.21 517.39,124.63 516.74,122.47 516.17,120.6 515.81,119.02 517.39,116.86 518.33,116.21 519.55,115.27 
	520.49,114.05 520.78,112.75 518.9,111.82 516.46,111.53 513.94,111.53 511.78,111.53 511.49,111.53 511.13,111.24 510.55,111.24 
	510.19,111.24 506.45,107.21 506.45,104.98 506.16,102.53 505.87,100.3 505.51,97.85 505.22,95.62 504.94,93.17 504.58,90.94 
	504.58,88.49 505.22,87.84 506.16,86.62 507.38,85.39 508.32,84.1 509.62,82.58 510.19,81.29 510.84,80.06 511.13,79.13 
	507.74,75.67 "/>
<polygon class="st0" points="567.58,134.93 558.79,133.99 550.44,131.47 542.95,127.44 536.4,122.11 530.78,115.56 526.75,108.07 
	524.23,99.72 523.3,90.65 524.23,81.94 526.75,73.87 530.78,66.38 536.4,59.83 542.95,54.22 550.44,50.18 558.79,47.66 
	567.58,46.73 576.29,47.66 584.64,50.18 591.84,54.22 598.39,59.83 604.01,66.38 608.04,73.87 610.56,81.94 611.5,90.65 
	610.56,99.72 608.04,108.07 604.01,115.56 598.39,122.11 591.84,127.44 584.64,131.47 576.29,133.99 "/>
<polyline class="st2" points="567.58,134.93 567.58,134.93 558.79,133.99 550.44,131.47 542.95,127.44 536.4,122.11 530.78,115.56 
	526.75,108.07 524.23,99.72 523.3,90.65 523.3,90.65 524.23,81.94 526.75,73.87 530.78,66.38 536.4,59.83 542.95,54.22 
	550.44,50.18 558.79,47.66 567.58,46.73 567.58,46.73 576.29,47.66 584.64,50.18 591.84,54.22 598.39,59.83 604.01,66.38 
	608.04,73.87 610.56,81.94 611.5,90.65 611.5,90.65 610.56,99.72 608.04,108.07 604.01,115.56 598.39,122.11 591.84,127.44 
	584.64,131.47 576.29,133.99 567.58,134.93 "/>
<polygon class="st3" points="567.22,128.95 559.73,128.38 552.6,125.86 546.05,122.47 540.43,117.79 535.75,112.18 532.37,105.62 
	529.85,98.42 529.2,90.65 529.85,83.16 532.37,76.32 535.75,69.77 540.43,64.15 546.05,59.47 552.6,56.09 559.73,53.57 
	567.22,52.99 574.99,53.57 582.19,56.09 588.38,59.47 594,64.15 598.68,69.77 602.14,76.32 604.58,83.16 605.23,90.65 604.58,98.42 
	602.14,105.62 598.68,112.18 594,117.79 588.38,122.47 582.19,125.86 574.99,128.38 "/>
<polyline class="st2" points="567.22,128.95 567.22,128.95 559.73,128.38 552.6,125.86 546.05,122.47 540.43,117.79 535.75,112.18 
	532.37,105.62 529.85,98.42 529.2,90.65 529.2,90.65 529.85,83.16 532.37,76.32 535.75,69.77 540.43,64.15 546.05,59.47 
	552.6,56.09 559.73,53.57 567.22,52.99 567.22,52.99 574.99,53.57 582.19,56.09 588.38,59.47 594,64.15 598.68,69.77 602.14,76.32 
	604.58,83.16 605.23,90.65 605.23,90.65 604.58,98.42 602.14,105.62 598.68,112.18 594,117.79 588.38,122.47 582.19,125.86 
	574.99,128.38 567.22,128.95 "/>
<polygon class="st3" points="567.58,122.47 561.31,121.82 555.05,119.95 549.79,116.86 545.11,113.11 541.37,108.43 538.27,103.1 
	536.4,96.91 535.75,90.65 536.4,84.46 538.27,78.19 541.37,73.22 545.11,68.54 549.79,64.8 555.05,61.7 561.31,59.83 567.58,59.18 
	573.77,59.83 580.03,61.7 585.29,64.8 589.68,68.54 593.42,73.22 596.52,78.19 598.39,84.46 599.04,90.65 598.39,96.91 
	596.52,103.1 593.42,108.43 589.68,113.11 585.29,116.86 580.03,119.95 573.77,121.82 "/>
<polyline class="st2" points="567.58,122.47 567.58,122.47 561.31,121.82 555.05,119.95 549.79,116.86 545.11,113.11 541.37,108.43 
	538.27,103.1 536.4,96.91 535.75,90.65 535.75,90.65 536.4,84.46 538.27,78.19 541.37,73.22 545.11,68.54 549.79,64.8 555.05,61.7 
	561.31,59.83 567.58,59.18 567.58,59.18 573.77,59.83 580.03,61.7 585.29,64.8 589.68,68.54 593.42,73.22 596.52,78.19 
	598.39,84.46 599.04,90.65 599.04,90.65 598.39,96.91 596.52,103.1 593.42,108.43 589.68,113.11 585.29,116.86 580.03,119.95 
	573.77,121.82 567.58,122.47 "/>
<polygon class="st3" points="567.22,115.92 562.25,115.27 557.57,114.05 553.18,111.53 549.79,108.43 546.7,104.69 544.18,100.66 
	542.95,95.62 542.3,90.65 542.95,85.68 544.18,80.71 546.7,76.97 549.79,73.22 553.18,70.13 557.57,67.61 562.25,66.38 
	567.22,65.74 572.54,66.38 577.22,67.61 581.54,70.13 585.29,73.22 588.1,76.97 590.62,80.71 591.84,85.68 592.49,90.65 
	591.84,95.62 590.62,100.66 588.1,104.69 585.29,108.43 581.54,111.53 577.22,114.05 572.54,115.27 "/>
<polyline class="st2" points="567.22,115.92 567.22,115.92 562.25,115.27 557.57,114.05 553.18,111.53 549.79,108.43 546.7,104.69 
	544.18,100.66 542.95,95.62 542.3,90.65 542.3,90.65 542.95,85.68 544.18,80.71 546.7,76.97 549.79,73.22 553.18,70.13 
	557.57,67.61 562.25,66.38 567.22,65.74 567.22,65.74 572.54,66.38 577.22,67.61 581.54,70.13 585.29,73.22 588.1,76.97 
	590.62,80.71 591.84,85.68 592.49,90.65 592.49,90.65 591.84,95.62 590.62,100.66 588.1,104.69 585.29,108.43 581.54,111.53 
	577.22,114.05 572.54,115.27 567.22,115.92 "/>
<polygon class="st3" points="567.22,110.59 563.47,110.3 559.73,109.01 556.34,107.21 553.54,104.69 551.02,101.88 549.14,98.42 
	547.92,94.68 547.63,90.65 547.92,86.62 549.14,82.87 551.02,79.78 553.54,76.97 556.34,74.74 559.73,72.94 563.47,71.64 
	567.22,71.35 571.25,71.64 574.99,72.94 578.45,74.74 581.26,76.97 583.78,79.78 585.58,82.87 586.51,86.62 586.87,90.65 
	586.51,94.68 585.58,98.42 583.78,101.88 581.26,104.69 578.45,107.21 574.99,109.01 571.25,110.3 "/>
<polyline class="st2" points="567.22,110.59 567.22,110.59 563.47,110.3 559.73,109.01 556.34,107.21 553.54,104.69 551.02,101.88 
	549.14,98.42 547.92,94.68 547.63,90.65 547.63,90.65 547.92,86.62 549.14,82.87 551.02,79.78 553.54,76.97 556.34,74.74 
	559.73,72.94 563.47,71.64 567.22,71.35 567.22,71.35 571.25,71.64 574.99,72.94 578.45,74.74 581.26,76.97 583.78,79.78 
	585.58,82.87 586.51,86.62 586.87,90.65 586.87,90.65 586.51,94.68 585.58,98.42 583.78,101.88 581.26,104.69 578.45,107.21 
	574.99,109.01 571.25,110.3 567.22,110.59 "/>
<polyline class="st4" points="569.74,46.94 569.74,46.94 569.74,47.23 570.31,47.59 570.67,48.17 570.67,48.53 570.67,51.41 
	570.96,51.98 570.96,53.93 570.96,53.93 570.96,53.93 570.31,54.22 570.02,54.58 569.74,54.58 569.74,54.58 569.74,55.8 
	569.38,56.81 568.8,58.03 568.8,58.97 568.8,58.97 569.09,59.62 569.38,59.98 569.74,60.62 569.74,61.2 570.67,62.21 570.67,62.21 
	570.67,63.79 570.31,65.66 569.74,66.96 568.8,68.18 568.8,71.06 568.8,71.06 569.38,72 570.02,73.01 570.67,73.94 570.96,74.88 
	570.96,74.88 570.96,75.53 570.67,76.46 570.02,77.11 570.02,77.76 "/>
<polyline class="st2" points="594.07,127.08 594.07,127.08 593.78,126.14 593.42,124.92 592.85,123.7 592.2,122.11 591.91,120.89 
	591.26,119.59 590.62,118.37 590.33,117.43 590.33,117.43 588.74,116.5 587.23,115.27 585.36,114.34 584.06,113.4 584.06,113.4 
	583.78,111.82 583.13,110.3 582.55,108.72 581.33,107.14 580.03,105.62 578.81,104.33 577.58,103.1 576.65,102.17 "/>
<polygon class="st3" points="567.86,77.54 570.67,77.9 573.12,78.19 575.35,79.42 577.51,81 579.1,83.16 580.61,85.39 581.26,87.84 
	581.54,90.65 581.26,93.46 580.61,96.26 579.1,98.42 577.51,100.66 575.35,102.17 573.12,103.46 570.67,104.4 567.86,104.69 
	565.06,104.4 562.54,103.46 560.38,102.17 558.22,100.66 556.63,98.42 555.41,96.26 554.47,93.46 554.11,90.65 554.47,87.84 
	555.41,85.39 556.63,83.16 558.22,81 560.38,79.42 562.54,78.19 565.06,77.9 "/>
<polyline class="st2" points="567.86,77.54 567.86,77.54 570.67,77.9 573.12,78.19 575.35,79.42 577.51,81 579.1,83.16 
	580.61,85.39 581.26,87.84 581.54,90.65 581.54,90.65 581.26,93.46 580.61,96.26 579.1,98.42 577.51,100.66 575.35,102.17 
	573.12,103.46 570.67,104.4 567.86,104.69 567.86,104.69 565.06,104.4 562.54,103.46 560.38,102.17 558.22,100.66 556.63,98.42 
	555.41,96.26 554.47,93.46 554.11,90.65 554.11,90.65 554.47,87.84 555.41,85.39 556.63,83.16 558.22,81 560.38,79.42 562.54,78.19 
	565.06,77.9 567.86,77.54 "/>
<polygon class="st3" points="568.44,83.52 571.25,84.1 573.48,85.68 574.7,87.84 575.35,90.65 574.7,93.17 573.48,95.33 
	571.25,96.91 568.44,97.49 565.7,96.91 563.47,95.33 561.96,93.17 561.31,90.65 561.96,87.84 563.47,85.68 565.7,84.1 "/>
<line class="st2" x1="557.86" y1="90.65" x2="577.8" y2="90.65"/>
<line class="st2" x1="568.15" y1="81" x2="568.15" y2="101.59"/>
<polyline class="st5" points="597.38,58.68 597.38,58.68 597.17,59.18 596.88,59.47 596.66,59.98 596.66,60.48 596.66,60.48 
	595.87,60.48 595.37,60.7 595.08,61.2 594.58,61.49 594.58,61.49 594.58,62.5 594.36,63.29 594.07,64.3 593.86,65.02 593.86,65.02 
	593.35,65.52 593.06,65.81 592.85,66.31 592.56,66.82 592.56,66.82 591.26,67.61 590.04,68.62 588.74,70.13 588.24,71.35 
	588.24,71.35 587.45,72.14 586.22,73.15 584.42,74.66 582.41,75.96 580.39,77.26 578.3,78.48 577.08,79.78 576.29,80.28 "/>
<polyline class="st6" points="542.38,54.65 544.75,56.74 544.75,59.9 544.75,59.9 546.05,60.98 547.63,61.99 549.22,62.78 
	551.09,63.07 551.88,63.86 551.88,63.86 552.38,65.16 553.68,66.74 555.05,68.33 556.06,69.62 556.06,69.62 556.63,70.2 
	557.14,70.42 557.93,70.99 558.43,71.21 558.43,71.21 558.72,71.71 559.01,72.79 559.51,74.09 560.02,75.46 560.81,76.75 
	561.38,78.05 561.89,78.84 562.1,79.42 "/>
<polyline class="st7" points="558.79,134.57 558.79,134.57 559.37,133.13 560.23,131.4 561.17,129.38 562.03,128.23 562.03,122.18 
	562.03,122.18 562.61,120.74 562.9,119.02 563.47,117.29 564.05,115.85 564.05,115.85 564.34,114.98 564.62,113.54 565.2,111.53 
	565.85,109.8 566.71,107.78 567.29,106.06 567.58,104.9 567.58,104.04 "/>
<polyline class="st8" points="528.91,113.33 528.91,113.33 530.35,112.68 532.15,111.96 534.17,111.1 535.61,110.88 539.78,106.49 
	539.78,106.49 541.22,105.84 542.66,104.76 544.25,103.9 545.69,103.25 545.69,103.25 546.48,102.82 547.7,101.95 549.5,100.87 
	551.16,100.08 553.18,99.14 554.76,98.35 555.84,97.7 556.42,97.06 "/>
<polyline class="st9" points="610.85,100.15 610.85,100.15 609.98,99.65 608.98,98.86 607.68,98.28 606.24,97.49 605.23,96.7 
	603.94,96.12 602.64,95.54 601.85,95.04 601.85,95.04 600.05,95.26 598.03,95.26 596.02,95.76 594.43,95.76 594.43,95.76 
	593.21,94.75 591.77,93.96 590.33,93.17 588.31,92.74 586.37,92.3 584.64,92.09 582.91,91.94 581.54,91.8 "/>
<g>
	<path class="st10" d="M605.02,157.18c3.46,0,6.26-2.81,6.26-6.26c0-3.46-2.81-6.26-6.26-6.26c-3.38,0-6.19,2.81-6.19,6.26
		C598.82,154.37,601.63,157.18,605.02,157.18z"/>
	<path d="M605.23,146.95h0.36c0.72,0,1.22,0.07,1.58,0.22c0.36,0.14,0.65,0.36,0.86,0.72s0.29,0.72,0.29,1.15
		c0,0.58-0.14,1.08-0.5,1.44s-0.94,0.58-1.66,0.72c0.29,0.14,0.5,0.22,0.65,0.36c0.29,0.29,0.58,0.65,0.86,1.08l1.3,2.09h-1.3
		l-1.01-1.58c-0.29-0.5-0.58-0.86-0.72-1.08c-0.22-0.29-0.36-0.43-0.58-0.58c0,0-0.07-0.07-0.14-0.07v-1.01h0.14
		c0.5,0,0.86-0.07,1.08-0.14c0.29-0.14,0.5-0.29,0.65-0.5c0.14-0.22,0.22-0.43,0.22-0.72c0-0.36-0.14-0.65-0.43-0.86
		c-0.29-0.29-0.65-0.36-1.22-0.36h-0.43V146.95z M602.14,154.73v-7.78h3.1v0.86h-2.09v2.59h2.09v1.01
		c-0.07-0.07-0.22-0.07-0.29-0.07c-0.14-0.07-0.29-0.07-0.58-0.07h-1.22v3.46H602.14z"/>
</g>
</svg>
