<?xml version="1.0" encoding="UTF-8" standalone="no"?>
<svg
   xmlns:dc="http://purl.org/dc/elements/1.1/"
   xmlns:cc="http://creativecommons.org/ns#"
   xmlns:rdf="http://www.w3.org/1999/02/22-rdf-syntax-ns#"
   xmlns:svg="http://www.w3.org/2000/svg"
   xmlns="http://www.w3.org/2000/svg"
   id="svg38"
   viewBox="0 0 32.883757 8.997879"
   height="8.997879pt"
   version="1.1"
   width="32.883759pt">
  <metadata
     id="metadata42">
    <rdf:RDF>
      <cc:Work
         rdf:about="">
        <dc:format>image/svg+xml</dc:format>
        <dc:type
           rdf:resource="http://purl.org/dc/dcmitype/StillImage" />
        <dc:title></dc:title>
      </cc:Work>
    </rdf:RDF>
  </metadata>
  <defs
     id="defs30">
    <clipPath
       id="Clip0">
      <path
         id="path27"
         d="M 0,0 H 32.8838 V 17.9958 H 0 Z" />
    </clipPath>
    <clipPath
       id="clipPath85"
       clipPathUnits="userSpaceOnUse">
      <g
         style="stroke-width:1"
         id="g93">
        <g
           style="stroke-width:1"
           id="g91"
           clip-path="url(#Clip0)">
          <path
             style="fill:none;stroke:#000000;stroke-width:0.56695998;stroke-linecap:butt;stroke-linejoin:miter;stroke-dasharray:none"
             d="m 31.2576,8.2984 c 0,4.5832 -6.9969,8.2984 -15.6288,8.2984 C 6.99725,16.5968 0,12.8816 0,8.2984 0,3.71532 6.99725,0 15.6288,0 24.2607,0 31.2576,3.71532 31.2576,8.2984 Z"
             transform="translate(0.78748,0.69948)"
             id="path87" />
          <path
             style="fill:none;stroke:#000000;stroke-width:0.56695998;stroke-linecap:butt;stroke-linejoin:miter;stroke-dasharray:none;stroke-dashoffset:0"
             d="m 32.3168,8.7144 c 0,4.813 -7.234,8.7144 -16.1584,8.7144 C 7.23436,17.4288 0,13.5274 0,8.7144 0,3.90157 7.23436,0 16.1584,0 25.0828,0 32.3168,3.90157 32.3168,8.7144 Z"
             transform="translate(0.28348,0.28348)"
             id="path89" />
        </g>
      </g>
    </clipPath>
    <clipPath
       id="clipPath3843"
       clipPathUnits="userSpaceOnUse">
      <rect
         style="fill:#0005f9;fill-opacity:1;stroke-width:0.75"
         id="rect3845"
         width="37.329433"
         height="15.049553"
         x="-2.1265674"
         y="8.9978809" />
    </clipPath>
  </defs>
  <g
     transform="rotate(180,16.44188,8.99788)"
     clip-path="url(#clipPath3843)"
     id="Background">
    <g
       clip-path="url(#Clip0)"
       id="Layer_1">
      <path
         id="path32"
         transform="translate(0.78748,0.69948)"
         d="m 31.2576,8.2984 c 0,4.5832 -6.9969,8.2984 -15.6288,8.2984 C 6.99725,16.5968 0,12.8816 0,8.2984 0,3.71532 6.99725,0 15.6288,0 24.2607,0 31.2576,3.71532 31.2576,8.2984 Z"
         style="fill:none;stroke:#000000;stroke-width:0.56695998;stroke-linecap:butt;stroke-linejoin:miter;stroke-dasharray:none" />
      <path
         id="path34"
         transform="translate(0.28348,0.28348)"
         d="m 32.3168,8.7144 c 0,4.813 -7.234,8.7144 -16.1584,8.7144 C 7.23436,17.4288 0,13.5274 0,8.7144 0,3.90157 7.23436,0 16.1584,0 25.0828,0 32.3168,3.90157 32.3168,8.7144 Z"
         style="fill:none;stroke:#000000;stroke-width:0.56695998;stroke-linecap:butt;stroke-linejoin:miter;stroke-dasharray:none;stroke-dashoffset:0" />
    </g>
  </g>
</svg>
