<?xml version="1.0" encoding="UTF-8"?>
<svg width="10.16pt" version="1.1" xmlns="http://www.w3.org/2000/svg" height="43.67pt" viewBox="0 0 10.16 43.67" xmlns:xlink="http://www.w3.org/1999/xlink">
 <title>Produce by Acme CAD Converter</title>
 <desc>Produce by Acme CAD Converter</desc>
 <defs/>
 <g id="Background">
  <path style="fill:none;stroke:#000000; stroke-width:0.5; stroke-linecap:butt; stroke-linejoin:miter; stroke-dasharray:none;" d="M0 4.64 L0 0 " transform="translate(0.25, 4.84)"/>
  <path style="fill:none;stroke:#000000; stroke-width:0.5; stroke-linecap:butt; stroke-linejoin:miter; stroke-dasharray:none;" d="M0 0 L0.89 0 " transform="translate(0.25, 4.84)"/>
  <path style="fill:none;stroke:#000000; stroke-width:0.5; stroke-linecap:butt; stroke-linejoin:miter; stroke-dasharray:none;" d="M0 0 L1.56 0 " transform="translate(1.14, 4.84)"/>
  <path style="fill:none;stroke:#000000; stroke-width:0.5; stroke-linecap:butt; stroke-linejoin:miter; stroke-dasharray:none;" d="M0 4.59 L0 0 " transform="translate(2.7, 0.25)"/>
  <path style="fill:none;stroke:#000000; stroke-width:0.5; stroke-linecap:butt; stroke-linejoin:miter; stroke-dasharray:none;" d="M0 0.9 L0 0 " transform="translate(4.08, 1.64)"/>
  <path style="fill:none;stroke:#000000; stroke-width:0.5; stroke-linecap:butt; stroke-linejoin:miter; stroke-dasharray:none;" d="M0.89 0 L0 0 " transform="translate(9.02, 4.84)"/>
  <path style="fill:none;stroke:#000000; stroke-width:0.5; stroke-linecap:butt; stroke-linejoin:miter; stroke-dasharray:none;" d="M6.32 0 L0 0 " transform="translate(2.7, 4.84)"/>
  <path style="fill:none;stroke:#000000; stroke-width:0.5; stroke-linecap:butt; stroke-linejoin:miter; stroke-dasharray:none;" d="M0 4.59 L0 0 " transform="translate(7.46, 0.25)"/>
  <path style="fill:none;stroke:#000000; stroke-width:0.5; stroke-linecap:butt; stroke-linejoin:miter; stroke-dasharray:none;" d="M0 0.9 L0 0 " transform="translate(6.08, 1.64)"/>
  <path style="fill:none;stroke:#000000; stroke-width:0.5; stroke-linecap:butt; stroke-linejoin:miter; stroke-dasharray:none;" d="M0 0.01 L4.76 0 " transform="translate(2.7, 0.25)"/>
  <path style="fill:none;stroke:#000000; stroke-width:0.5; stroke-linecap:butt; stroke-linejoin:miter; stroke-dasharray:none;" d="M0 0 L2 0 " transform="translate(4.08, 1.64)"/>
  <path style="fill:none;stroke:#000000; stroke-width:0.5; stroke-linecap:butt; stroke-linejoin:miter; stroke-dasharray:none;" d="M0 0 L2 0 " transform="translate(4.08, 2.54)"/>
  <path style="fill:none;stroke:#000000; stroke-width:0.5; stroke-linecap:butt; stroke-linejoin:miter; stroke-dasharray:none;" d="M0 0 L9.66 0 " transform="translate(0.25, 9.48)"/>
  <path style="fill:none;stroke:#000000; stroke-width:0.5; stroke-linecap:butt; stroke-linejoin:miter; stroke-dasharray:none;" d="M0 0 L0 21.2 " transform="translate(0.91, 9.48)"/>
  <path style="fill:none;stroke:#000000; stroke-width:0.5; stroke-linecap:butt; stroke-linejoin:miter; stroke-dasharray:none;" d="M0 0 L9.66 0 " transform="translate(0.25, 30.68)"/>
  <path style="fill:none;stroke:#000000; stroke-width:0.5; stroke-linecap:butt; stroke-linejoin:miter; stroke-dasharray:none;" d="M0 21.2 L0 0 " transform="translate(9.25, 9.48)"/>
  <path style="fill:none;stroke:#000000; stroke-width:0.5; stroke-linecap:butt; stroke-linejoin:miter; stroke-dasharray:none;" d="M0 0 L0 1.61 " transform="translate(0.25, 30.68)"/>
  <path style="fill:none;stroke:#000000; stroke-width:0.5; stroke-linecap:butt; stroke-linejoin:miter; stroke-dasharray:none;" d="M0 0 L1.29 2.07 " transform="translate(0.25, 32.29)"/>
  <path style="fill:none;stroke:#000000; stroke-width:0.5; stroke-linecap:butt; stroke-linejoin:miter; stroke-dasharray:none;" d="M1.29 0 L0 2.07 " transform="translate(8.62, 32.29)"/>
  <path style="fill:none;stroke:#000000; stroke-width:0.5; stroke-linecap:butt; stroke-linejoin:miter; stroke-dasharray:none;" d="M0 0 L7.08 0 " transform="translate(1.54, 34.36)"/>
  <path style="fill:none;stroke:#000000; stroke-width:0.5; stroke-linecap:butt; stroke-linejoin:miter; stroke-dasharray:none;" d="M0 0.32 L0 0 " transform="translate(6.85, 35.14)"/>
  <path style="fill:none;stroke:#000000; stroke-width:0.5; stroke-linecap:butt; stroke-linejoin:miter; stroke-dasharray:none;" d="M0 0 L0 0.32 " transform="translate(3.3, 35.14)"/>
  <path style="fill:none;stroke:#000000; stroke-width:0.5; stroke-linecap:butt; stroke-linejoin:miter; stroke-dasharray:none;" d="M0 0 L0.04 0.04 " transform="translate(3.35, 35.46)"/>
  <path style="fill:none;stroke:#000000; stroke-width:0.5; stroke-linecap:butt; stroke-linejoin:miter; stroke-dasharray:none;" d="M0 0.04 L0.03 0 " transform="translate(6.77, 35.46)"/>
  <path style="fill:none;stroke:#000000; stroke-width:0.5; stroke-linecap:butt; stroke-linejoin:miter; stroke-dasharray:none;" d="M0 0.37 L0 0 " transform="translate(6.77, 35.5)"/>
  <path style="fill:none;stroke:#000000; stroke-width:0.5; stroke-linecap:butt; stroke-linejoin:miter; stroke-dasharray:none;" d="M0 0.73 L0 0 " transform="translate(6.77, 37.86)"/>
  <path style="fill:none;stroke:#000000; stroke-width:0.5; stroke-linecap:butt; stroke-linejoin:miter; stroke-dasharray:none;" d="M0 0 L0 3.09 " transform="translate(3.39, 35.5)"/>
  <path style="fill:none;stroke:#000000; stroke-width:0.5; stroke-linecap:butt; stroke-linejoin:miter; stroke-dasharray:none;" d="M0.1 0.11 L0 0 " transform="translate(6.77, 35.87)"/>
  <path style="fill:none;stroke:#000000; stroke-width:0.5; stroke-linecap:butt; stroke-linejoin:miter; stroke-dasharray:none;" d="M0 0.11 L0.1 0 " transform="translate(6.77, 37.75)"/>
  <path style="fill:none;stroke:#000000; stroke-width:0.5; stroke-linecap:butt; stroke-linejoin:miter; stroke-dasharray:none;" d="M0 0 L0.83 0 " transform="translate(6.87, 37.75)"/>
  <path style="fill:none;stroke:#000000; stroke-width:0.5; stroke-linecap:butt; stroke-linejoin:miter; stroke-dasharray:none;" d="M0.1 0 L0 0 " transform="translate(7.6, 35.98)"/>
  <path style="fill:none;stroke:#000000; stroke-width:0.5; stroke-linecap:butt; stroke-linejoin:miter; stroke-dasharray:none;" d="M0.21 0 L0 0 " transform="translate(6.87, 35.98)"/>
  <path style="fill:none;stroke:#000000; stroke-width:0.5; stroke-linecap:butt; stroke-linejoin:miter; stroke-dasharray:none;" d="M0.01 0 L0 0.02 " transform="translate(8.37, 36.42)"/>
  <path style="fill:none;stroke:#000000; stroke-width:0.5; stroke-linecap:butt; stroke-linejoin:miter; stroke-dasharray:none;" d="M0 0 L0 0 L0 0 Z" transform="translate(8.4, 37.29)"/>
  <path style="fill:none;stroke:#000000; stroke-width:0.5; stroke-linecap:butt; stroke-linejoin:miter; stroke-dasharray:none;" d="M0 0.01 L0.02 0 " transform="translate(8.4, 37.28)"/>
  <path style="fill:none;stroke:#000000; stroke-width:0.5; stroke-linecap:butt; stroke-linejoin:miter; stroke-dasharray:none;" d="M0.02 0.01 L0 0 " transform="translate(8.4, 36.44)"/>
  <path style="fill:none;stroke:#000000; stroke-width:0.5; stroke-linecap:butt; stroke-linejoin:miter; stroke-dasharray:none;" d="M0 0 L0 0 L0 0 Z" transform="translate(8.35, 37.31)"/>
  <path style="fill:none;stroke:#000000; stroke-width:0.5; stroke-linecap:butt; stroke-linejoin:miter; stroke-dasharray:none;" d="M0.01 0 L0 0 " transform="translate(8.31, 36.42)"/>
  <path style="fill:none;stroke:#000000; stroke-width:0.5; stroke-linecap:butt; stroke-linejoin:miter; stroke-dasharray:none;" d="M0 0 L0 0 L0 0 Z" transform="translate(8.28, 37.31)"/>
  <path style="fill:none;stroke:#000000; stroke-width:0.5; stroke-linecap:butt; stroke-linejoin:miter; stroke-dasharray:none;" d="M0 0 L0 0 L0 0 Z" transform="translate(8.25, 36.42)"/>
  <path style="fill:none;stroke:#000000; stroke-width:0.5; stroke-linecap:butt; stroke-linejoin:miter; stroke-dasharray:none;" d="M0 0 L0 0.02 " transform="translate(8.34, 36.42)"/>
  <path style="fill:none;stroke:#000000; stroke-width:0.5; stroke-linecap:butt; stroke-linejoin:miter; stroke-dasharray:none;" d="M0 0 L0.01 0.02 " transform="translate(8.37, 37.29)"/>
  <path style="fill:none;stroke:#000000; stroke-width:0.5; stroke-linecap:butt; stroke-linejoin:miter; stroke-dasharray:none;" d="M0 0 L0.01 0 " transform="translate(8.21, 37.31)"/>
  <path style="fill:none;stroke:#000000; stroke-width:0.5; stroke-linecap:butt; stroke-linejoin:miter; stroke-dasharray:none;" d="M0 0 L0 0 L0 0 Z" transform="translate(8.18, 36.42)"/>
  <path style="fill:none;stroke:#000000; stroke-width:0.5; stroke-linecap:butt; stroke-linejoin:miter; stroke-dasharray:none;" d="M0 0 L0 0 L0 0 Z" transform="translate(8.25, 37.31)"/>
  <path style="fill:none;stroke:#000000; stroke-width:0.5; stroke-linecap:butt; stroke-linejoin:miter; stroke-dasharray:none;" d="M0.01 0 L0 0 " transform="translate(8.21, 36.42)"/>
  <path style="fill:none;stroke:#000000; stroke-width:0.5; stroke-linecap:butt; stroke-linejoin:miter; stroke-dasharray:none;" d="M0 0 L0.01 0 " transform="translate(8.31, 37.31)"/>
  <path style="fill:none;stroke:#000000; stroke-width:0.5; stroke-linecap:butt; stroke-linejoin:miter; stroke-dasharray:none;" d="M0 0 L0 0 L0 0 Z" transform="translate(8.28, 36.42)"/>
  <path style="fill:none;stroke:#000000; stroke-width:0.5; stroke-linecap:butt; stroke-linejoin:miter; stroke-dasharray:none;" d="M0 0 L0 0 L0 0 Z" transform="translate(8.38, 37.31)"/>
  <path style="fill:none;stroke:#000000; stroke-width:0.5; stroke-linecap:butt; stroke-linejoin:miter; stroke-dasharray:none;" d="M0.01 0 L0 0 " transform="translate(8.34, 36.42)"/>
  <path style="fill:none;stroke:#000000; stroke-width:0.5; stroke-linecap:butt; stroke-linejoin:miter; stroke-dasharray:none;" d="M0 0.02 L0.01 0 " transform="translate(8.38, 37.29)"/>
  <path style="fill:none;stroke:#000000; stroke-width:0.5; stroke-linecap:butt; stroke-linejoin:miter; stroke-dasharray:none;" d="M0.01 0.02 L0 0 " transform="translate(8.35, 36.42)"/>
  <path style="fill:none;stroke:#000000; stroke-width:0.5; stroke-linecap:butt; stroke-linejoin:miter; stroke-dasharray:none;" d="M0 0 L0.01 0.01 " transform="translate(8.17, 37.3)"/>
  <path style="fill:none;stroke:#000000; stroke-width:0.5; stroke-linecap:butt; stroke-linejoin:miter; stroke-dasharray:none;" d="M0 0.02 L0.01 0 " transform="translate(8.35, 37.29)"/>
  <path style="fill:none;stroke:#000000; stroke-width:0.5; stroke-linecap:butt; stroke-linejoin:miter; stroke-dasharray:none;" d="M0.01 0.02 L0 0 " transform="translate(8.32, 36.42)"/>
  <path style="fill:none;stroke:#000000; stroke-width:0.5; stroke-linecap:butt; stroke-linejoin:miter; stroke-dasharray:none;" d="M0.01 0 L0 0.02 " transform="translate(8.3, 36.42)"/>
  <path style="fill:none;stroke:#000000; stroke-width:0.5; stroke-linecap:butt; stroke-linejoin:miter; stroke-dasharray:none;" d="M0 0 L0.02 0.02 " transform="translate(8.33, 37.29)"/>
  <path style="fill:none;stroke:#000000; stroke-width:0.5; stroke-linecap:butt; stroke-linejoin:miter; stroke-dasharray:none;" d="M0 0.02 L0.01 0 " transform="translate(8.32, 37.29)"/>
  <path style="fill:none;stroke:#000000; stroke-width:0.5; stroke-linecap:butt; stroke-linejoin:miter; stroke-dasharray:none;" d="M0.01 0.02 L0 0 " transform="translate(8.28, 36.42)"/>
  <path style="fill:none;stroke:#000000; stroke-width:0.5; stroke-linecap:butt; stroke-linejoin:miter; stroke-dasharray:none;" d="M0 0 L0.01 0 " transform="translate(8.18, 37.31)"/>
  <path style="fill:none;stroke:#000000; stroke-width:0.5; stroke-linecap:butt; stroke-linejoin:miter; stroke-dasharray:none;" d="M0.01 0 L0 0.02 " transform="translate(8.24, 36.42)"/>
  <path style="fill:none;stroke:#000000; stroke-width:0.5; stroke-linecap:butt; stroke-linejoin:miter; stroke-dasharray:none;" d="M0 0 L0.01 0.02 " transform="translate(8.27, 37.29)"/>
  <path style="fill:none;stroke:#000000; stroke-width:0.5; stroke-linecap:butt; stroke-linejoin:miter; stroke-dasharray:none;" d="M0.01 0 L0 0.02 " transform="translate(8.2, 36.42)"/>
  <path style="fill:none;stroke:#000000; stroke-width:0.5; stroke-linecap:butt; stroke-linejoin:miter; stroke-dasharray:none;" d="M0 0 L0.01 0.02 " transform="translate(8.24, 37.29)"/>
  <path style="fill:none;stroke:#000000; stroke-width:0.5; stroke-linecap:butt; stroke-linejoin:miter; stroke-dasharray:none;" d="M0 0.02 L0.01 0 " transform="translate(8.22, 37.29)"/>
  <path style="fill:none;stroke:#000000; stroke-width:0.5; stroke-linecap:butt; stroke-linejoin:miter; stroke-dasharray:none;" d="M0.02 0.02 L0 0 " transform="translate(8.18, 36.42)"/>
  <path style="fill:none;stroke:#000000; stroke-width:0.5; stroke-linecap:butt; stroke-linejoin:miter; stroke-dasharray:none;" d="M0 0.01 L0 0 " transform="translate(7.7, 37.29)"/>
  <path style="fill:none;stroke:#000000; stroke-width:0.5; stroke-linecap:butt; stroke-linejoin:miter; stroke-dasharray:none;" d="M0 0.02 L0 0 " transform="translate(8.19, 37.29)"/>
  <path style="fill:none;stroke:#000000; stroke-width:0.5; stroke-linecap:butt; stroke-linejoin:miter; stroke-dasharray:none;" d="M0 0.02 L0.01 0 " transform="translate(8.28, 37.29)"/>
  <path style="fill:none;stroke:#000000; stroke-width:0.5; stroke-linecap:butt; stroke-linejoin:miter; stroke-dasharray:none;" d="M0.01 0.02 L0 0 " transform="translate(8.25, 36.42)"/>
  <path style="fill:none;stroke:#000000; stroke-width:0.5; stroke-linecap:butt; stroke-linejoin:miter; stroke-dasharray:none;" d="M0.01 0 L0 0.02 " transform="translate(8.27, 36.42)"/>
  <path style="fill:none;stroke:#000000; stroke-width:0.5; stroke-linecap:butt; stroke-linejoin:miter; stroke-dasharray:none;" d="M0 0 L0.01 0.02 " transform="translate(8.3, 37.29)"/>
  <path style="fill:none;stroke:#000000; stroke-width:0.5; stroke-linecap:butt; stroke-linejoin:miter; stroke-dasharray:none;" d="M0.01 0 L0 0.02 " transform="translate(8.17, 36.42)"/>
  <path style="fill:none;stroke:#000000; stroke-width:0.5; stroke-linecap:butt; stroke-linejoin:miter; stroke-dasharray:none;" d="M0 0 L0.01 0.02 " transform="translate(8.2, 37.29)"/>
  <path style="fill:none;stroke:#000000; stroke-width:0.5; stroke-linecap:butt; stroke-linejoin:miter; stroke-dasharray:none;" d="M0 0.02 L0.01 0 " transform="translate(8.25, 37.29)"/>
  <path style="fill:none;stroke:#000000; stroke-width:0.5; stroke-linecap:butt; stroke-linejoin:miter; stroke-dasharray:none;" d="M0.01 0.02 L0 0 " transform="translate(8.22, 36.42)"/>
  <path style="fill:none;stroke:#000000; stroke-width:0.5; stroke-linecap:butt; stroke-linejoin:miter; stroke-dasharray:none;" d="M0 0.01 L0 0 " transform="translate(7.7, 36.43)"/>
  <path style="fill:none;stroke:#000000; stroke-width:0.5; stroke-linecap:butt; stroke-linejoin:miter; stroke-dasharray:none;" d="M0.01 0 L0 0 " transform="translate(8.36, 36.44)"/>
  <path style="fill:none;stroke:#000000; stroke-width:0.5; stroke-linecap:butt; stroke-linejoin:miter; stroke-dasharray:none;" d="M0 0 L0.01 0 " transform="translate(8.39, 37.29)"/>
  <path style="fill:none;stroke:#000000; stroke-width:0.5; stroke-linecap:butt; stroke-linejoin:miter; stroke-dasharray:none;" d="M0.01 0 L0 0 " transform="translate(7.7, 36.44)"/>
  <path style="fill:none;stroke:#000000; stroke-width:0.5; stroke-linecap:butt; stroke-linejoin:miter; stroke-dasharray:none;" d="M0 0 L0.01 0 " transform="translate(7.7, 37.29)"/>
  <path style="fill:none;stroke:#000000; stroke-width:0.5; stroke-linecap:butt; stroke-linejoin:miter; stroke-dasharray:none;" d="M0.01 0 L0 0 " transform="translate(8.29, 36.44)"/>
  <path style="fill:none;stroke:#000000; stroke-width:0.5; stroke-linecap:butt; stroke-linejoin:miter; stroke-dasharray:none;" d="M0 0 L0 0 L0 0 Z" transform="translate(8.33, 37.29)"/>
  <path style="fill:none;stroke:#000000; stroke-width:0.5; stroke-linecap:butt; stroke-linejoin:miter; stroke-dasharray:none;" d="M0 0 L0 0 L0 0 Z" transform="translate(8.2, 36.44)"/>
  <path style="fill:none;stroke:#000000; stroke-width:0.5; stroke-linecap:butt; stroke-linejoin:miter; stroke-dasharray:none;" d="M0 0 L0.01 0 " transform="translate(8.23, 37.29)"/>
  <path style="fill:none;stroke:#000000; stroke-width:0.5; stroke-linecap:butt; stroke-linejoin:miter; stroke-dasharray:none;" d="M0.01 0 L0 0 " transform="translate(8.33, 36.44)"/>
  <path style="fill:none;stroke:#000000; stroke-width:0.5; stroke-linecap:butt; stroke-linejoin:miter; stroke-dasharray:none;" d="M0 0 L0.01 0 " transform="translate(8.36, 37.29)"/>
  <path style="fill:none;stroke:#000000; stroke-width:0.5; stroke-linecap:butt; stroke-linejoin:miter; stroke-dasharray:none;" d="M0.01 0 L0 0 " transform="translate(8.23, 36.44)"/>
  <path style="fill:none;stroke:#000000; stroke-width:0.5; stroke-linecap:butt; stroke-linejoin:miter; stroke-dasharray:none;" d="M0 0 L0.01 0 " transform="translate(8.26, 37.29)"/>
  <path style="fill:none;stroke:#000000; stroke-width:0.5; stroke-linecap:butt; stroke-linejoin:miter; stroke-dasharray:none;" d="M0 0 L0.01 0 " transform="translate(8.19, 37.29)"/>
  <path style="fill:none;stroke:#000000; stroke-width:0.5; stroke-linecap:butt; stroke-linejoin:miter; stroke-dasharray:none;" d="M0.01 0 L0 0 " transform="translate(8.26, 36.44)"/>
  <path style="fill:none;stroke:#000000; stroke-width:0.5; stroke-linecap:butt; stroke-linejoin:miter; stroke-dasharray:none;" d="M0 0 L0.01 0 " transform="translate(8.29, 37.29)"/>
  <path style="fill:none;stroke:#000000; stroke-width:0.5; stroke-linecap:butt; stroke-linejoin:miter; stroke-dasharray:none;" d="M0.01 0 L0 0 " transform="translate(8.39, 36.44)"/>
  <path style="fill:none;stroke:#000000; stroke-width:0.5; stroke-linecap:butt; stroke-linejoin:miter; stroke-dasharray:none;" d="M0.01 0.02 L0 0 " transform="translate(8.38, 36.42)"/>
  <path style="fill:none;stroke:#000000; stroke-width:0.5; stroke-linecap:butt; stroke-linejoin:miter; stroke-dasharray:none;" d="M0 0 L0 0 L0 0 Z" transform="translate(8.38, 36.42)"/>
  <path style="fill:none;stroke:#000000; stroke-width:0.5; stroke-linecap:butt; stroke-linejoin:miter; stroke-dasharray:none;" d="M0 0 L0 0.78 " transform="translate(3.46, 38.59)"/>
  <path style="fill:none;stroke:#000000; stroke-width:0.5; stroke-linecap:butt; stroke-linejoin:miter; stroke-dasharray:none;" d="M0 0.78 L0 0 " transform="translate(6.7, 38.59)"/>
  <path style="fill:none;stroke:#000000; stroke-width:0.5; stroke-linecap:butt; stroke-linejoin:miter; stroke-dasharray:none;" d="M0 0 L0 0.78 " transform="translate(3.46, 34.36)"/>
  <path style="fill:none;stroke:#000000; stroke-width:0.5; stroke-linecap:butt; stroke-linejoin:miter; stroke-dasharray:none;" d="M0 0.78 L0 0 " transform="translate(6.7, 34.36)"/>
  <path style="fill:none;stroke:#000000; stroke-width:0.5; stroke-linecap:butt; stroke-linejoin:miter; stroke-dasharray:none;" d="M0 0 L0.01 0.05 L0 0 Z M0.01 0.05 L0.06 0.07 " transform="translate(8.42, 43.35)"/>
  <path style="fill:none;stroke:#000000; stroke-width:0.5; stroke-linecap:butt; stroke-linejoin:miter; stroke-dasharray:none;" d="M0 0.07 L0.05 0.05 L0 0.07 Z M0.05 0.05 L0.07 0 " transform="translate(8.7, 43.35)"/>
  <path style="fill:none;stroke:#000000; stroke-width:0.5; stroke-linecap:butt; stroke-linejoin:miter; stroke-dasharray:none;" d="M0 0 L0.05 0.11 " transform="translate(7.87, 37.58)"/>
  <path style="fill:none;stroke:#000000; stroke-width:0.5; stroke-linecap:butt; stroke-linejoin:miter; stroke-dasharray:none;" d="M0 0.11 L0.05 0 " transform="translate(8.12, 37.58)"/>
  <path style="fill:none;stroke:#000000; stroke-width:0.5; stroke-linecap:butt; stroke-linejoin:miter; stroke-dasharray:none;" d="M0.05 0.11 L0 0 " transform="translate(8.12, 36.05)"/>
  <path style="fill:none;stroke:#000000; stroke-width:0.5; stroke-linecap:butt; stroke-linejoin:miter; stroke-dasharray:none;" d="M0.05 0 L0 0.11 " transform="translate(7.87, 36.05)"/>
  <path style="fill:none;stroke:#000000; stroke-width:0.5; stroke-linecap:butt; stroke-linejoin:miter; stroke-dasharray:none;" d="M3.55 0 L0 0 " transform="translate(3.3, 35.46)"/>
  <path style="fill:none;stroke:#000000; stroke-width:0.5; stroke-linecap:butt; stroke-linejoin:miter; stroke-dasharray:none;" d="M3.55 0 L0 0 " transform="translate(3.3, 35.14)"/>
  <path style="fill:none;stroke:#000000; stroke-width:0.5; stroke-linecap:butt; stroke-linejoin:miter; stroke-dasharray:none;" d="M3.38 0 L0 0 " transform="translate(3.39, 35.5)"/>
  <path style="fill:none;stroke:#000000; stroke-width:0.5; stroke-linecap:butt; stroke-linejoin:miter; stroke-dasharray:none;" d="M0.28 1.99 L0.28 1.99 L0.28 1.99 Z M0.28 1.99 L0.28 1.99 Z M0.28 1.99 L0.28 1.98 L0.28 1.99 Z M0.28 1.98 L0.27 1.98 L0.28 1.98 Z M0.27 1.98 L0.27 1.98 Z M0.27 1.98 L0.27 1.97 L0.27 1.98 Z M0.27 1.97 L0.27 1.97 Z M0.27 1.97 L0.27 1.96 L0.27 1.97 Z M0.27 1.96 L0.26 1.96 L0.27 1.96 Z M0.26 1.96 L0.26 1.94 L0.26 1.96 Z M0.26 1.94 L0.25 1.93 L0.26 1.94 Z M0.25 1.93 L0.24 1.91 L0.25 1.93 Z M0.24 1.91 L0.23 1.89 L0.24 1.91 Z M0.23 1.89 L0.22 1.86 L0.23 1.89 Z M0.22 1.86 L0.2 1.84 L0.22 1.86 Z M0.2 1.84 L0.19 1.81 L0.2 1.84 Z M0.19 1.81 L0.18 1.78 L0.19 1.81 Z M0.18 1.78 L0.17 1.75 L0.18 1.78 Z M0.17 1.75 L0.15 1.72 L0.17 1.75 Z M0.15 1.72 L0.14 1.69 L0.15 1.72 Z M0.14 1.69 L0.13 1.65 L0.14 1.69 Z M0.13 1.65 L0.11 1.62 L0.13 1.65 Z M0.11 1.62 L0.1 1.58 L0.11 1.62 Z M0.1 1.58 L0.09 1.54 L0.1 1.58 Z M0.09 1.54 L0.07 1.5 L0.09 1.54 Z M0.07 1.5 L0.06 1.46 L0.07 1.5 Z M0.06 1.46 L0.05 1.41 L0.06 1.46 Z M0.05 1.41 L0.04 1.37 L0.05 1.41 Z M0.04 1.37 L0.03 1.33 L0.04 1.37 Z M0.03 1.33 L0.02 1.28 L0.03 1.33 Z M0.02 1.28 L0.01 1.23 L0.02 1.28 Z M0.01 1.23 L0.01 1.19 L0.01 1.23 Z M0.01 1.19 L0 1.14 L0.01 1.19 Z M0 1.14 L0 1.09 L0 1.14 Z M0 1.09 L0 1.04 L0 1.09 Z M0 1.04 L0 1 L0 1.04 Z M0 1 L0 0.95 L0 1 Z M0 0.95 L0 0.9 L0 0.95 Z M0 0.9 L0 0.85 L0 0.9 Z M0 0.85 L0.01 0.8 L0 0.85 Z M0.01 0.8 L0.01 0.76 L0.01 0.8 Z M0.01 0.76 L0.02 0.71 L0.01 0.76 Z M0.02 0.71 L0.03 0.67 L0.02 0.71 Z M0.03 0.67 L0.04 0.62 L0.03 0.67 Z M0.04 0.62 L0.05 0.58 L0.04 0.62 Z M0.05 0.58 L0.06 0.53 L0.05 0.58 Z M0.06 0.53 L0.07 0.49 L0.06 0.53 Z M0.07 0.49 L0.09 0.45 L0.07 0.49 Z M0.09 0.45 L0.1 0.41 L0.09 0.45 Z M0.1 0.41 L0.11 0.38 L0.1 0.41 Z M0.11 0.38 L0.13 0.34 L0.11 0.38 Z M0.13 0.34 L0.14 0.3 L0.13 0.34 Z M0.14 0.3 L0.15 0.27 L0.14 0.3 Z M0.15 0.27 L0.17 0.24 L0.15 0.27 Z M0.17 0.24 L0.18 0.21 L0.17 0.24 Z M0.18 0.21 L0.19 0.18 L0.18 0.21 Z M0.19 0.18 L0.2 0.15 L0.19 0.18 Z M0.2 0.15 L0.22 0.13 L0.2 0.15 Z M0.22 0.13 L0.23 0.11 L0.22 0.13 Z M0.23 0.11 L0.24 0.08 L0.23 0.11 Z M0.24 0.08 L0.25 0.07 L0.24 0.08 Z M0.25 0.07 L0.26 0.05 L0.25 0.07 Z M0.26 0.05 L0.26 0.04 L0.26 0.05 Z M0.26 0.04 L0.27 0.02 L0.26 0.04 Z M0.27 0.02 L0.27 0.02 Z M0.27 0.02 L0.27 0.01 L0.27 0.02 Z M0.27 0.01 L0.27 0.01 Z M0.27 0.01 L0.28 0.01 L0.27 0.01 Z M0.28 0.01 L0.28 0 L0.28 0.01 Z M0.28 0 L0.28 0 Z M0.28 0 L0.28 0 " transform="translate(6.49, 35.87)"/>
  <path style="fill:none;stroke:#000000; stroke-width:0.5; stroke-linecap:butt; stroke-linejoin:miter; stroke-dasharray:none;" d="M3.38 0 L0 0 " transform="translate(3.39, 38.59)"/>
  <path style="fill:none;stroke:#000000; stroke-width:0.5; stroke-linecap:butt; stroke-linejoin:miter; stroke-dasharray:none;" d="M0.06 0 L0 0 " transform="translate(4.24, 39.37)"/>
  <path style="fill:none;stroke:#000000; stroke-width:0.5; stroke-linecap:butt; stroke-linejoin:miter; stroke-dasharray:none;" d="M0 0 L0 0.78 " transform="translate(4.24, 38.59)"/>
  <path style="fill:none;stroke:#000000; stroke-width:0.5; stroke-linecap:butt; stroke-linejoin:miter; stroke-dasharray:none;" d="M0 0.78 L0 0 " transform="translate(4.3, 38.59)"/>
  <path style="fill:none;stroke:#000000; stroke-width:0.5; stroke-linecap:butt; stroke-linejoin:miter; stroke-dasharray:none;" d="M0.06 0 L0 0 " transform="translate(5.86, 39.37)"/>
  <path style="fill:none;stroke:#000000; stroke-width:0.5; stroke-linecap:butt; stroke-linejoin:miter; stroke-dasharray:none;" d="M0 0 L0 0.78 " transform="translate(5.86, 38.59)"/>
  <path style="fill:none;stroke:#000000; stroke-width:0.5; stroke-linecap:butt; stroke-linejoin:miter; stroke-dasharray:none;" d="M0 0.78 L0 0 " transform="translate(5.92, 38.59)"/>
  <path style="fill:none;stroke:#000000; stroke-width:0.5; stroke-linecap:butt; stroke-linejoin:miter; stroke-dasharray:none;" d="M0 0 L1.56 0 " transform="translate(4.3, 34.36)"/>
  <path style="fill:none;stroke:#000000; stroke-width:0.5; stroke-linecap:butt; stroke-linejoin:miter; stroke-dasharray:none;" d="M0 0 L0 0.78 " transform="translate(5.86, 34.36)"/>
  <path style="fill:none;stroke:#000000; stroke-width:0.5; stroke-linecap:butt; stroke-linejoin:miter; stroke-dasharray:none;" d="M0 0.78 L0 0 " transform="translate(4.3, 34.36)"/>
  <path style="fill:none;stroke:#000000; stroke-width:0.5; stroke-linecap:butt; stroke-linejoin:miter; stroke-dasharray:none;" d="M0.06 0 L0 0 " transform="translate(5.86, 34.36)"/>
  <path style="fill:none;stroke:#000000; stroke-width:0.5; stroke-linecap:butt; stroke-linejoin:miter; stroke-dasharray:none;" d="M0 0.78 L0 0 " transform="translate(5.92, 34.36)"/>
  <path style="fill:none;stroke:#000000; stroke-width:0.5; stroke-linecap:butt; stroke-linejoin:miter; stroke-dasharray:none;" d="M1.56 0 L0 0 " transform="translate(4.3, 39.37)"/>
  <path style="fill:none;stroke:#000000; stroke-width:0.5; stroke-linecap:butt; stroke-linejoin:miter; stroke-dasharray:none;" d="M0 0 L0 0.78 " transform="translate(4.24, 34.36)"/>
  <path style="fill:none;stroke:#000000; stroke-width:0.5; stroke-linecap:butt; stroke-linejoin:miter; stroke-dasharray:none;" d="M0.06 0 L0 0 " transform="translate(4.24, 34.36)"/>
  <path style="fill:none;stroke:#000000; stroke-width:0.5; stroke-linecap:butt; stroke-linejoin:miter; stroke-dasharray:none;" d="M0 0 L0 0.78 " transform="translate(6.7, 34.36)"/>
  <path style="fill:none;stroke:#000000; stroke-width:0.5; stroke-linecap:butt; stroke-linejoin:miter; stroke-dasharray:none;" d="M0 0 L0.78 0 " transform="translate(5.92, 34.36)"/>
  <path style="fill:none;stroke:#000000; stroke-width:0.5; stroke-linecap:butt; stroke-linejoin:miter; stroke-dasharray:none;" d="M0 0.78 L0 0 " transform="translate(3.46, 34.36)"/>
  <path style="fill:none;stroke:#000000; stroke-width:0.5; stroke-linecap:butt; stroke-linejoin:miter; stroke-dasharray:none;" d="M0 0 L0.78 0 " transform="translate(3.46, 34.36)"/>
  <path style="fill:none;stroke:#000000; stroke-width:0.5; stroke-linecap:butt; stroke-linejoin:miter; stroke-dasharray:none;" d="M0 0 L0 0.78 " transform="translate(6.7, 38.59)"/>
  <path style="fill:none;stroke:#000000; stroke-width:0.5; stroke-linecap:butt; stroke-linejoin:miter; stroke-dasharray:none;" d="M0.78 0 L0 0 " transform="translate(5.92, 39.37)"/>
  <path style="fill:none;stroke:#000000; stroke-width:0.5; stroke-linecap:butt; stroke-linejoin:miter; stroke-dasharray:none;" d="M0 0.78 L0 0 " transform="translate(3.46, 38.59)"/>
  <path style="fill:none;stroke:#000000; stroke-width:0.5; stroke-linecap:butt; stroke-linejoin:miter; stroke-dasharray:none;" d="M0.78 0 L0 0 " transform="translate(3.46, 39.37)"/>
  <path style="fill:none;stroke:#000000; stroke-width:0.5; stroke-linecap:butt; stroke-linejoin:miter; stroke-dasharray:none;" d="M0.3 0 L0.3 0 L0.3 0 Z M0.3 0 L0.3 0 Z M0.3 0 L0.3 0 Z M0.3 0 L0.3 0.01 L0.3 0 Z M0.3 0.01 L0.29 0.02 L0.3 0.01 Z M0.29 0.02 L0.29 0.03 L0.29 0.02 Z M0.29 0.03 L0.28 0.04 L0.29 0.03 Z M0.28 0.04 L0.27 0.05 L0.28 0.04 Z M0.27 0.05 L0.26 0.07 L0.27 0.05 Z M0.26 0.07 L0.25 0.09 L0.26 0.07 Z M0.25 0.09 L0.24 0.11 L0.25 0.09 Z M0.24 0.11 L0.23 0.13 L0.24 0.11 Z M0.23 0.13 L0.22 0.15 L0.23 0.13 Z M0.22 0.15 L0.2 0.18 L0.22 0.15 Z M0.2 0.18 L0.19 0.2 L0.2 0.18 Z M0.19 0.2 L0.18 0.23 L0.19 0.2 Z M0.18 0.23 L0.16 0.26 L0.18 0.23 Z M0.16 0.26 L0.15 0.29 L0.16 0.26 Z M0.15 0.29 L0.13 0.32 L0.15 0.29 Z M0.13 0.32 L0.12 0.36 L0.13 0.32 Z M0.12 0.36 L0.1 0.39 L0.12 0.36 Z M0.1 0.39 L0.09 0.43 L0.1 0.39 Z M0.09 0.43 L0.08 0.46 L0.09 0.43 Z M0.08 0.46 L0.07 0.5 L0.08 0.46 Z M0.07 0.5 L0.05 0.54 L0.07 0.5 Z M0.05 0.54 L0.04 0.58 L0.05 0.54 Z M0.04 0.58 L0.03 0.62 L0.04 0.58 Z M0.03 0.62 L0.03 0.67 L0.03 0.62 Z M0.03 0.67 L0.02 0.71 L0.03 0.67 Z M0.02 0.71 L0.01 0.75 L0.02 0.71 Z M0.01 0.75 L0.01 0.8 L0.01 0.75 Z M0.01 0.8 L0.01 0.84 L0.01 0.8 Z M0.01 0.84 L0 0.89 L0.01 0.84 Z M0 0.89 L0.01 0.93 L0 0.89 Z M0.01 0.93 L0.01 0.98 L0.01 0.93 Z M0.01 0.98 L0.01 1.02 L0.01 0.98 Z M0.01 1.02 L0.02 1.06 L0.01 1.02 Z M0.02 1.06 L0.03 1.11 L0.02 1.06 Z M0.03 1.11 L0.03 1.15 L0.03 1.11 Z M0.03 1.15 L0.04 1.19 L0.03 1.15 Z M0.04 1.19 L0.05 1.23 L0.04 1.19 Z M0.05 1.23 L0.07 1.27 L0.05 1.23 Z M0.07 1.27 L0.08 1.31 L0.07 1.27 Z M0.08 1.31 L0.09 1.35 L0.08 1.31 Z M0.09 1.35 L0.1 1.38 L0.09 1.35 Z M0.1 1.38 L0.12 1.42 L0.1 1.38 Z M0.12 1.42 L0.13 1.45 L0.12 1.42 Z M0.13 1.45 L0.15 1.48 L0.13 1.45 Z M0.15 1.48 L0.16 1.51 L0.15 1.48 Z M0.16 1.51 L0.18 1.54 L0.16 1.51 Z M0.18 1.54 L0.19 1.57 L0.18 1.54 Z M0.19 1.57 L0.2 1.6 L0.19 1.57 Z M0.2 1.6 L0.22 1.62 L0.2 1.6 Z M0.22 1.62 L0.23 1.64 L0.22 1.62 Z M0.23 1.64 L0.24 1.67 L0.23 1.64 Z M0.24 1.67 L0.25 1.69 L0.24 1.67 Z M0.25 1.69 L0.26 1.7 L0.25 1.69 Z M0.26 1.7 L0.27 1.72 L0.26 1.7 Z M0.27 1.72 L0.28 1.73 L0.27 1.72 Z M0.28 1.73 L0.29 1.75 L0.28 1.73 Z M0.29 1.75 L0.29 1.76 L0.29 1.75 Z M0.29 1.76 L0.3 1.76 L0.29 1.76 Z M0.3 1.76 L0.3 1.77 L0.3 1.76 Z M0.3 1.77 L0.3 1.77 Z M0.3 1.77 L0.3 1.77 Z M0.3 1.77 L0.3 1.77 " transform="translate(6.57, 35.98)"/>
  <path style="fill:none;stroke:#000000; stroke-width:0.5; stroke-linecap:butt; stroke-linejoin:miter; stroke-dasharray:none;" d="M0.7 0 L0 0 " transform="translate(6.9, 36.28)"/>
  <path style="fill:none;stroke:#000000; stroke-width:0.5; stroke-linecap:butt; stroke-linejoin:miter; stroke-dasharray:none;" d="M0 1.77 L0 0 " transform="translate(7.7, 35.98)"/>
  <path style="fill:none;stroke:#000000; stroke-width:0.5; stroke-linecap:butt; stroke-linejoin:miter; stroke-dasharray:none;" d="M0 0 L0.37 0 " transform="translate(7.23, 35.71)"/>
  <path style="fill:none;stroke:#000000; stroke-width:0.5; stroke-linecap:butt; stroke-linejoin:miter; stroke-dasharray:none;" d="M0 0 L0 0.57 " transform="translate(7.6, 35.71)"/>
  <path style="fill:none;stroke:#000000; stroke-width:0.5; stroke-linecap:butt; stroke-linejoin:miter; stroke-dasharray:none;" d="M0.33 0 L0 0.57 " transform="translate(6.9, 35.71)"/>
  <path style="fill:none;stroke:#000000; stroke-width:0.5; stroke-linecap:butt; stroke-linejoin:miter; stroke-dasharray:none;" d="M0 0 L0.03 0.85 " transform="translate(8.37, 36.44)"/>
  <path style="fill:none;stroke:#000000; stroke-width:0.5; stroke-linecap:butt; stroke-linejoin:miter; stroke-dasharray:none;" d="M0 0 L0 0 L0 0 Z M0 0 L0 0.01 L0 0 Z M0 0.01 L0 0.01 Z M0 0.01 L0 0.01 Z M0 0.01 L0 0.02 L0 0.01 Z M0 0.02 L0 0.03 L0 0.02 Z M0 0.03 L0 0.04 L0 0.03 Z M0 0.04 L0 0.05 L0 0.04 Z M0 0.05 L0 0.06 L0 0.05 Z M0 0.06 L0 0.07 L0 0.06 Z M0 0.07 L0 0.08 L0 0.07 Z M0 0.08 L0 0.1 L0 0.08 Z M0 0.1 L0 0.11 L0 0.1 Z M0 0.11 L0 0.13 L0 0.11 Z M0 0.13 L0 0.15 L0 0.13 Z M0 0.15 L0 0.17 " transform="translate(8.38, 36.42)"/>
  <path style="fill:none;stroke:#000000; stroke-width:0.5; stroke-linecap:butt; stroke-linejoin:miter; stroke-dasharray:none;" d="M0 0 L0 0.02 L0 0 Z M0 0.02 L0 0.05 L0 0.02 Z M0 0.05 L0.01 0.07 L0 0.05 Z M0.01 0.07 L0.01 0.1 L0.01 0.07 Z M0.01 0.1 L0.01 0.16 L0.01 0.1 Z M0.01 0.16 L0.01 0.22 L0.01 0.16 Z M0.01 0.22 L0.01 0.34 L0.01 0.22 Z M0.01 0.34 L0.01 0.4 L0.01 0.34 Z M0.01 0.4 L0.01 0.43 L0.01 0.4 Z M0.01 0.43 L0.01 0.46 L0.01 0.43 Z M0.01 0.46 L0.02 0.48 L0.01 0.46 Z M0.02 0.48 L0.02 0.51 L0.02 0.48 Z M0.02 0.51 L0.02 0.53 L0.02 0.51 Z M0.02 0.53 L0.02 0.56 L0.02 0.53 Z M0.02 0.56 L0.02 0.58 L0.02 0.56 Z M0.02 0.58 L0.02 0.6 L0.02 0.58 Z M0.02 0.6 L0.02 0.62 L0.02 0.6 Z M0.02 0.62 L0.02 0.64 L0.02 0.62 Z M0.02 0.64 L0.02 0.65 L0.02 0.64 Z M0.02 0.65 L0.02 0.66 L0.02 0.65 Z M0.02 0.66 L0.02 0.68 L0.02 0.66 Z M0.02 0.68 L0.02 0.69 L0.02 0.68 Z M0.02 0.69 L0.02 0.69 Z M0.02 0.69 L0.02 0.7 L0.02 0.69 Z M0.02 0.7 L0.02 0.7 Z M0.02 0.7 L0.02 0.7 " transform="translate(8.38, 36.59)"/>
  <path style="fill:none;stroke:#000000; stroke-width:0.5; stroke-linecap:butt; stroke-linejoin:miter; stroke-dasharray:none;" d="M0 0.14 L0 0 " transform="translate(8.38, 36.45)"/>
  <path style="fill:none;stroke:#000000; stroke-width:0.5; stroke-linecap:butt; stroke-linejoin:miter; stroke-dasharray:none;" d="M0.02 0.19 L0.02 0.16 L0.02 0.19 Z M0.02 0.16 L0.02 0.13 L0.02 0.16 Z M0.02 0.13 L0.01 0.1 L0.02 0.13 Z M0.01 0.1 L0.01 0.08 L0.01 0.1 Z M0.01 0.08 L0.01 0.06 L0.01 0.08 Z M0.01 0.06 L0.01 0.04 L0.01 0.06 Z M0.01 0.04 L0.01 0.02 L0.01 0.04 Z M0.01 0.02 L0 0 " transform="translate(8.38, 36.45)"/>
  <path style="fill:none;stroke:#000000; stroke-width:0.5; stroke-linecap:butt; stroke-linejoin:miter; stroke-dasharray:none;" d="M0 0 L0 0 L0 0 Z M0 0 L0 0 Z M0 0 L0 0.01 L0 0 Z M0 0.01 L0 0.01 Z M0 0.01 L0 0.02 L0 0.01 Z M0 0.02 L0 0.03 L0 0.02 Z M0 0.03 L0 0.04 L0 0.03 Z M0 0.04 L0 0.05 L0 0.04 Z M0 0.05 L0 0.07 L0 0.05 Z M0 0.07 L0 0.08 L0 0.07 Z M0 0.08 L0 0.1 L0 0.08 Z M0 0.1 L0 0.12 L0 0.1 Z M0 0.12 L0 0.14 L0 0.12 Z M0 0.14 L0 0.16 L0 0.14 Z M0 0.16 L0 0.18 L0 0.16 Z M0 0.18 L0 0.2 " transform="translate(8.4, 36.44)"/>
  <path style="fill:none;stroke:#000000; stroke-width:0.5; stroke-linecap:butt; stroke-linejoin:miter; stroke-dasharray:none;" d="M0 0 L0 0.83 " transform="translate(8.42, 36.45)"/>
  <path style="fill:none;stroke:#000000; stroke-width:0.5; stroke-linecap:butt; stroke-linejoin:miter; stroke-dasharray:none;" d="M0 0 L0 0 L0 0 Z M0 0 L0 0 Z M0 0 L0 0.01 L0 0 Z M0 0.01 L0 0.01 Z M0 0.01 L0 0.02 L0 0.01 Z M0 0.02 L0 0.02 Z M0 0.02 L0 0.03 L0 0.02 Z M0 0.03 L0 0.04 L0 0.03 Z M0 0.04 L0 0.05 L0 0.04 Z M0 0.05 L0 0.05 Z M0 0.05 L0 0.07 L0 0.05 Z M0 0.07 L0 0.08 L0 0.07 Z M0 0.08 L0 0.09 L0 0.08 Z M0 0.09 L0.01 0.1 L0 0.09 Z M0.01 0.1 L0.01 0.12 L0.01 0.1 Z M0.01 0.12 L0.01 0.13 L0.01 0.12 Z M0.01 0.13 L0.01 0.15 L0.01 0.13 Z M0.01 0.15 L0.01 0.16 L0.01 0.15 Z M0.01 0.16 L0.01 0.2 L0.01 0.16 Z M0.01 0.2 L0.01 0.24 L0.01 0.2 Z M0.01 0.24 L0.01 0.28 L0.01 0.24 Z M0.01 0.28 L0.01 0.32 L0.01 0.28 Z M0.01 0.32 L0.01 0.36 L0.01 0.32 Z M0.01 0.36 L0.02 0.45 L0.01 0.36 Z M0.02 0.45 L0.02 0.53 L0.02 0.45 Z M0.02 0.53 L0.02 0.57 L0.02 0.53 Z M0.02 0.57 L0.02 0.62 L0.02 0.57 Z M0.02 0.62 L0.03 0.65 L0.02 0.62 Z M0.03 0.65 L0.03 0.69 L0.03 0.65 Z M0.03 0.69 L0.03 0.73 L0.03 0.69 Z M0.03 0.73 L0.03 0.74 L0.03 0.73 Z M0.03 0.74 L0.03 0.76 L0.03 0.74 Z M0.03 0.76 L0.03 0.77 L0.03 0.76 Z M0.03 0.77 L0.03 0.79 L0.03 0.77 Z M0.03 0.79 L0.03 0.8 L0.03 0.79 Z M0.03 0.8 L0.03 0.81 L0.03 0.8 Z M0.03 0.81 L0.03 0.83 L0.03 0.81 Z M0.03 0.83 L0.03 0.84 L0.03 0.83 Z M0.03 0.84 L0.03 0.85 L0.03 0.84 Z M0.03 0.85 L0.03 0.86 L0.03 0.85 Z M0.03 0.86 L0.03 0.86 Z M0.03 0.86 L0.03 0.87 L0.03 0.86 Z M0.03 0.87 L0.03 0.88 L0.03 0.87 Z M0.03 0.88 L0.03 0.88 Z M0.03 0.88 L0.03 0.88 Z M0.03 0.88 L0.04 0.89 L0.03 0.88 Z M0.04 0.89 L0.04 0.89 Z M0.04 0.89 L0.04 0.89 " transform="translate(8.31, 36.42)"/>
  <path style="fill:none;stroke:#000000; stroke-width:0.5; stroke-linecap:butt; stroke-linejoin:miter; stroke-dasharray:none;" d="M0.03 0.89 L0.03 0.89 L0.03 0.89 Z M0.03 0.89 L0.03 0.89 Z M0.03 0.89 L0.03 0.88 L0.03 0.89 Z M0.03 0.88 L0.03 0.88 Z M0.03 0.88 L0.03 0.88 Z M0.03 0.88 L0.03 0.87 L0.03 0.88 Z M0.03 0.87 L0.03 0.86 L0.03 0.87 Z M0.03 0.86 L0.03 0.86 Z M0.03 0.86 L0.03 0.85 L0.03 0.86 Z M0.03 0.85 L0.03 0.84 L0.03 0.85 Z M0.03 0.84 L0.03 0.83 L0.03 0.84 Z M0.03 0.83 L0.03 0.81 L0.03 0.83 Z M0.03 0.81 L0.03 0.8 L0.03 0.81 Z M0.03 0.8 L0.03 0.79 L0.03 0.8 Z M0.03 0.79 L0.03 0.77 L0.03 0.79 Z M0.03 0.77 L0.03 0.76 L0.03 0.77 Z M0.03 0.76 L0.02 0.74 L0.03 0.76 Z M0.02 0.74 L0.02 0.73 L0.02 0.74 Z M0.02 0.73 L0.02 0.69 L0.02 0.73 Z M0.02 0.69 L0.02 0.65 L0.02 0.69 Z M0.02 0.65 L0.02 0.62 L0.02 0.65 Z M0.02 0.62 L0.02 0.57 L0.02 0.62 Z M0.02 0.57 L0.02 0.53 L0.02 0.57 Z M0.02 0.53 L0.01 0.45 L0.02 0.53 Z M0.01 0.45 L0.01 0.36 L0.01 0.45 Z M0.01 0.36 L0.01 0.32 L0.01 0.36 Z M0.01 0.32 L0.01 0.28 L0.01 0.32 Z M0.01 0.28 L0.01 0.24 L0.01 0.28 Z M0.01 0.24 L0 0.2 L0.01 0.24 Z M0 0.2 L0 0.16 L0 0.2 Z M0 0.16 L0 0.15 L0 0.16 Z M0 0.15 L0 0.13 L0 0.15 Z M0 0.13 L0 0.12 L0 0.13 Z M0 0.12 L0 0.1 L0 0.12 Z M0 0.1 L0 0.09 L0 0.1 Z M0 0.09 L0 0.08 L0 0.09 Z M0 0.08 L0 0.07 L0 0.08 Z M0 0.07 L0 0.05 L0 0.07 Z M0 0.05 L0 0.05 Z M0 0.05 L0 0.04 L0 0.05 Z M0 0.04 L0 0.03 L0 0.04 Z M0 0.03 L0 0.02 L0 0.03 Z M0 0.02 L0 0.02 Z M0 0.02 L0 0.01 L0 0.02 Z M0 0.01 L0 0.01 Z M0 0.01 L0 0 L0 0.01 Z M0 0 L0 0 Z M0 0 L0 0 " transform="translate(8.32, 36.42)"/>
  <path style="fill:none;stroke:#000000; stroke-width:0.5; stroke-linecap:butt; stroke-linejoin:miter; stroke-dasharray:none;" d="M0 0 L0 0 L0 0 Z M0 0 L0 0 Z M0 0 L0 0.01 L0 0 Z M0 0.01 L0 0.01 Z M0 0.01 L0 0.02 L0 0.01 Z M0 0.02 L0 0.02 Z M0 0.02 L0 0.03 L0 0.02 Z M0 0.03 L0 0.04 L0 0.03 Z M0 0.04 L0 0.05 L0 0.04 Z M0 0.05 L0 0.05 Z M0 0.05 L0 0.07 L0 0.05 Z M0 0.07 L0 0.08 L0 0.07 Z M0 0.08 L0 0.09 L0 0.08 Z M0 0.09 L0 0.1 L0 0.09 Z M0 0.1 L0 0.12 L0 0.1 Z M0 0.12 L0 0.13 L0 0.12 Z M0 0.13 L0 0.15 L0 0.13 Z M0 0.15 L0 0.16 L0 0.15 Z M0 0.16 L0 0.2 L0 0.16 Z M0 0.2 L0 0.24 L0 0.2 Z M0 0.24 L0.01 0.28 L0 0.24 Z M0.01 0.28 L0.01 0.32 L0.01 0.28 Z M0.01 0.32 L0.01 0.36 L0.01 0.32 Z M0.01 0.36 L0.01 0.45 L0.01 0.36 Z M0.01 0.45 L0.02 0.53 L0.01 0.45 Z M0.02 0.53 L0.02 0.57 L0.02 0.53 Z M0.02 0.57 L0.02 0.62 L0.02 0.57 Z M0.02 0.62 L0.02 0.65 L0.02 0.62 Z M0.02 0.65 L0.02 0.69 L0.02 0.65 Z M0.02 0.69 L0.02 0.73 L0.02 0.69 Z M0.02 0.73 L0.02 0.74 L0.02 0.73 Z M0.02 0.74 L0.02 0.76 L0.02 0.74 Z M0.02 0.76 L0.02 0.77 L0.02 0.76 Z M0.02 0.77 L0.03 0.79 L0.02 0.77 Z M0.03 0.79 L0.03 0.8 L0.03 0.79 Z M0.03 0.8 L0.03 0.81 L0.03 0.8 Z M0.03 0.81 L0.03 0.83 L0.03 0.81 Z M0.03 0.83 L0.03 0.84 L0.03 0.83 Z M0.03 0.84 L0.03 0.85 L0.03 0.84 Z M0.03 0.85 L0.03 0.86 L0.03 0.85 Z M0.03 0.86 L0.03 0.86 Z M0.03 0.86 L0.03 0.87 L0.03 0.86 Z M0.03 0.87 L0.03 0.88 L0.03 0.87 Z M0.03 0.88 L0.03 0.88 Z M0.03 0.88 L0.03 0.88 Z M0.03 0.88 L0.03 0.89 L0.03 0.88 Z M0.03 0.89 L0.03 0.89 Z M0.03 0.89 L0.03 0.89 " transform="translate(8.25, 36.42)"/>
  <path style="fill:none;stroke:#000000; stroke-width:0.5; stroke-linecap:butt; stroke-linejoin:miter; stroke-dasharray:none;" d="M0.03 0.89 L0.03 0.89 L0.03 0.89 Z M0.03 0.89 L0.03 0.89 Z M0.03 0.89 L0.03 0.88 L0.03 0.89 Z M0.03 0.88 L0.03 0.88 Z M0.03 0.88 L0.03 0.88 Z M0.03 0.88 L0.03 0.87 L0.03 0.88 Z M0.03 0.87 L0.03 0.86 L0.03 0.87 Z M0.03 0.86 L0.03 0.86 Z M0.03 0.86 L0.03 0.85 L0.03 0.86 Z M0.03 0.85 L0.03 0.84 L0.03 0.85 Z M0.03 0.84 L0.03 0.83 L0.03 0.84 Z M0.03 0.83 L0.03 0.81 L0.03 0.83 Z M0.03 0.81 L0.03 0.8 L0.03 0.81 Z M0.03 0.8 L0.03 0.79 L0.03 0.8 Z M0.03 0.79 L0.03 0.77 L0.03 0.79 Z M0.03 0.77 L0.03 0.76 L0.03 0.77 Z M0.03 0.76 L0.03 0.74 L0.03 0.76 Z M0.03 0.74 L0.03 0.73 L0.03 0.74 Z M0.03 0.73 L0.03 0.69 L0.03 0.73 Z M0.03 0.69 L0.03 0.65 L0.03 0.69 Z M0.03 0.65 L0.02 0.62 L0.03 0.65 Z M0.02 0.62 L0.02 0.57 L0.02 0.62 Z M0.02 0.57 L0.02 0.53 L0.02 0.57 Z M0.02 0.53 L0.02 0.45 L0.02 0.53 Z M0.02 0.45 L0.01 0.36 L0.02 0.45 Z M0.01 0.36 L0.01 0.32 L0.01 0.36 Z M0.01 0.32 L0.01 0.28 L0.01 0.32 Z M0.01 0.28 L0.01 0.24 L0.01 0.28 Z M0.01 0.24 L0.01 0.2 L0.01 0.24 Z M0.01 0.2 L0.01 0.16 L0.01 0.2 Z M0.01 0.16 L0.01 0.15 L0.01 0.16 Z M0.01 0.15 L0.01 0.13 L0.01 0.15 Z M0.01 0.13 L0.01 0.12 L0.01 0.13 Z M0.01 0.12 L0 0.1 L0.01 0.12 Z M0 0.1 L0 0.09 L0 0.1 Z M0 0.09 L0 0.08 L0 0.09 Z M0 0.08 L0 0.07 L0 0.08 Z M0 0.07 L0 0.05 L0 0.07 Z M0 0.05 L0 0.05 Z M0 0.05 L0 0.04 L0 0.05 Z M0 0.04 L0 0.03 L0 0.04 Z M0 0.03 L0 0.02 L0 0.03 Z M0 0.02 L0 0.02 Z M0 0.02 L0 0.01 L0 0.02 Z M0 0.01 L0 0.01 Z M0 0.01 L0 0 L0 0.01 Z M0 0 L0 0 Z M0 0 L0 0 " transform="translate(8.25, 36.42)"/>
  <path style="fill:none;stroke:#000000; stroke-width:0.5; stroke-linecap:butt; stroke-linejoin:miter; stroke-dasharray:none;" d="M0 0 L0 0.07 L0 0 Z M0 0.07 L0 0.14 L0 0.07 Z M0 0.14 L0.01 0.21 L0 0.14 Z M0.01 0.21 L0.01 0.24 L0.01 0.21 Z M0.01 0.24 L0.01 0.28 " transform="translate(7.7, 36.74)"/>
  <path style="fill:none;stroke:#000000; stroke-width:0.5; stroke-linecap:butt; stroke-linejoin:miter; stroke-dasharray:none;" d="M0.01 0.28 L0.01 0.2 L0.01 0.28 Z M0.01 0.2 L0 0.13 L0.01 0.2 Z M0 0.13 L0 0.1 L0 0.13 Z M0 0.1 L0 0.06 L0 0.1 Z M0 0.06 L0 0.03 L0 0.06 Z M0 0.03 L0 0 " transform="translate(7.7, 36.6)"/>
  <path style="fill:none;stroke:#000000; stroke-width:0.5; stroke-linecap:butt; stroke-linejoin:miter; stroke-dasharray:none;" d="M0 0 L0.03 0.85 " transform="translate(8.34, 36.44)"/>
  <path style="fill:none;stroke:#000000; stroke-width:0.5; stroke-linecap:butt; stroke-linejoin:miter; stroke-dasharray:none;" d="M0 0 L0 0 L0 0 Z M0 0 L0 0 Z M0 0 L0 0.01 L0 0 Z M0 0.01 L0 0.01 Z M0 0.01 L0.01 0.02 L0 0.01 Z M0.01 0.02 L0.01 0.02 Z M0.01 0.02 L0.01 0.03 L0.01 0.02 Z M0.01 0.03 L0.01 0.04 L0.01 0.03 Z M0.01 0.04 L0.01 0.05 L0.01 0.04 Z M0.01 0.05 L0.01 0.05 Z M0.01 0.05 L0.01 0.07 L0.01 0.05 Z M0.01 0.07 L0.01 0.08 L0.01 0.07 Z M0.01 0.08 L0.01 0.09 L0.01 0.08 Z M0.01 0.09 L0.01 0.1 L0.01 0.09 Z M0.01 0.1 L0.01 0.12 L0.01 0.1 Z M0.01 0.12 L0.01 0.13 L0.01 0.12 Z M0.01 0.13 L0.01 0.15 L0.01 0.13 Z M0.01 0.15 L0.01 0.16 L0.01 0.15 Z M0.01 0.16 L0.01 0.2 L0.01 0.16 Z M0.01 0.2 L0.01 0.24 L0.01 0.2 Z M0.01 0.24 L0.01 0.28 L0.01 0.24 Z M0.01 0.28 L0.02 0.32 L0.01 0.28 Z M0.02 0.32 L0.02 0.36 L0.02 0.32 Z M0.02 0.36 L0.02 0.45 L0.02 0.36 Z M0.02 0.45 L0.02 0.53 L0.02 0.45 Z M0.02 0.53 L0.03 0.57 L0.02 0.53 Z M0.03 0.57 L0.03 0.62 L0.03 0.57 Z M0.03 0.62 L0.03 0.65 L0.03 0.62 Z M0.03 0.65 L0.03 0.69 L0.03 0.65 Z M0.03 0.69 L0.03 0.73 L0.03 0.69 Z M0.03 0.73 L0.03 0.74 L0.03 0.73 Z M0.03 0.74 L0.03 0.76 L0.03 0.74 Z M0.03 0.76 L0.03 0.77 L0.03 0.76 Z M0.03 0.77 L0.03 0.79 L0.03 0.77 Z M0.03 0.79 L0.03 0.8 L0.03 0.79 Z M0.03 0.8 L0.04 0.81 L0.03 0.8 Z M0.04 0.81 L0.04 0.83 L0.04 0.81 Z M0.04 0.83 L0.04 0.84 L0.04 0.83 Z M0.04 0.84 L0.04 0.85 L0.04 0.84 Z M0.04 0.85 L0.04 0.86 L0.04 0.85 Z M0.04 0.86 L0.04 0.86 Z M0.04 0.86 L0.04 0.87 L0.04 0.86 Z M0.04 0.87 L0.04 0.88 L0.04 0.87 Z M0.04 0.88 L0.04 0.88 Z M0.04 0.88 L0.04 0.88 Z M0.04 0.88 L0.04 0.89 L0.04 0.88 Z M0.04 0.89 L0.04 0.89 Z M0.04 0.89 L0.04 0.89 " transform="translate(8.34, 36.42)"/>
  <path style="fill:none;stroke:#000000; stroke-width:0.5; stroke-linecap:butt; stroke-linejoin:miter; stroke-dasharray:none;" d="M0 0 L0 0 L0 0 Z M0 0 L0 0 Z M0 0 L0 0.01 L0 0 Z M0 0.01 L0 0.01 Z M0 0.01 L0 0.02 L0 0.01 Z M0 0.02 L0 0.02 Z M0 0.02 L0 0.03 L0 0.02 Z M0 0.03 L0 0.04 L0 0.03 Z M0 0.04 L0 0.05 L0 0.04 Z M0 0.05 L0 0.05 Z M0 0.05 L0 0.07 L0 0.05 Z M0 0.07 L0 0.08 L0 0.07 Z M0 0.08 L0 0.09 L0 0.08 Z M0 0.09 L0 0.1 L0 0.09 Z M0 0.1 L0 0.12 L0 0.1 Z M0 0.12 L0 0.13 L0 0.12 Z M0 0.13 L0.01 0.15 L0 0.13 Z M0.01 0.15 L0.01 0.16 L0.01 0.15 Z M0.01 0.16 L0.01 0.2 L0.01 0.16 Z M0.01 0.2 L0.01 0.24 L0.01 0.2 Z M0.01 0.24 L0.01 0.28 L0.01 0.24 Z M0.01 0.28 L0.01 0.32 L0.01 0.28 Z M0.01 0.32 L0.01 0.36 L0.01 0.32 Z M0.01 0.36 L0.02 0.45 L0.01 0.36 Z M0.02 0.45 L0.02 0.53 L0.02 0.45 Z M0.02 0.53 L0.02 0.57 L0.02 0.53 Z M0.02 0.57 L0.02 0.62 L0.02 0.57 Z M0.02 0.62 L0.02 0.65 L0.02 0.62 Z M0.02 0.65 L0.03 0.69 L0.02 0.65 Z M0.03 0.69 L0.03 0.73 L0.03 0.69 Z M0.03 0.73 L0.03 0.74 L0.03 0.73 Z M0.03 0.74 L0.03 0.76 L0.03 0.74 Z M0.03 0.76 L0.03 0.77 L0.03 0.76 Z M0.03 0.77 L0.03 0.79 L0.03 0.77 Z M0.03 0.79 L0.03 0.8 L0.03 0.79 Z M0.03 0.8 L0.03 0.81 L0.03 0.8 Z M0.03 0.81 L0.03 0.83 L0.03 0.81 Z M0.03 0.83 L0.03 0.84 L0.03 0.83 Z M0.03 0.84 L0.03 0.85 L0.03 0.84 Z M0.03 0.85 L0.03 0.86 L0.03 0.85 Z M0.03 0.86 L0.03 0.86 Z M0.03 0.86 L0.03 0.87 L0.03 0.86 Z M0.03 0.87 L0.03 0.88 L0.03 0.87 Z M0.03 0.88 L0.03 0.88 Z M0.03 0.88 L0.03 0.88 Z M0.03 0.88 L0.03 0.89 L0.03 0.88 Z M0.03 0.89 L0.03 0.89 Z M0.03 0.89 L0.03 0.89 " transform="translate(8.18, 36.42)"/>
  <path style="fill:none;stroke:#000000; stroke-width:0.5; stroke-linecap:butt; stroke-linejoin:miter; stroke-dasharray:none;" d="M0.04 0.89 L0.04 0.89 L0.04 0.89 Z M0.04 0.89 L0.04 0.89 Z M0.04 0.89 L0.04 0.88 L0.04 0.89 Z M0.04 0.88 L0.04 0.88 Z M0.04 0.88 L0.04 0.88 Z M0.04 0.88 L0.04 0.87 L0.04 0.88 Z M0.04 0.87 L0.04 0.86 L0.04 0.87 Z M0.04 0.86 L0.04 0.86 Z M0.04 0.86 L0.04 0.85 L0.04 0.86 Z M0.04 0.85 L0.04 0.84 L0.04 0.85 Z M0.04 0.84 L0.04 0.83 L0.04 0.84 Z M0.04 0.83 L0.04 0.81 L0.04 0.83 Z M0.04 0.81 L0.04 0.8 L0.04 0.81 Z M0.04 0.8 L0.03 0.79 L0.04 0.8 Z M0.03 0.79 L0.03 0.77 L0.03 0.79 Z M0.03 0.77 L0.03 0.76 L0.03 0.77 Z M0.03 0.76 L0.03 0.74 L0.03 0.76 Z M0.03 0.74 L0.03 0.73 L0.03 0.74 Z M0.03 0.73 L0.03 0.69 L0.03 0.73 Z M0.03 0.69 L0.03 0.65 L0.03 0.69 Z M0.03 0.65 L0.03 0.62 L0.03 0.65 Z M0.03 0.62 L0.03 0.57 L0.03 0.62 Z M0.03 0.57 L0.03 0.53 L0.03 0.57 Z M0.03 0.53 L0.02 0.45 L0.03 0.53 Z M0.02 0.45 L0.02 0.36 L0.02 0.45 Z M0.02 0.36 L0.02 0.32 L0.02 0.36 Z M0.02 0.32 L0.02 0.28 L0.02 0.32 Z M0.02 0.28 L0.01 0.24 L0.02 0.28 Z M0.01 0.24 L0.01 0.2 L0.01 0.24 Z M0.01 0.2 L0.01 0.16 L0.01 0.2 Z M0.01 0.16 L0.01 0.15 L0.01 0.16 Z M0.01 0.15 L0.01 0.13 L0.01 0.15 Z M0.01 0.13 L0.01 0.12 L0.01 0.13 Z M0.01 0.12 L0.01 0.1 L0.01 0.12 Z M0.01 0.1 L0.01 0.09 L0.01 0.1 Z M0.01 0.09 L0.01 0.08 L0.01 0.09 Z M0.01 0.08 L0.01 0.07 L0.01 0.08 Z M0.01 0.07 L0.01 0.05 L0.01 0.07 Z M0.01 0.05 L0.01 0.05 Z M0.01 0.05 L0.01 0.04 L0.01 0.05 Z M0.01 0.04 L0.01 0.03 L0.01 0.04 Z M0.01 0.03 L0.01 0.02 L0.01 0.03 Z M0.01 0.02 L0.01 0.02 Z M0.01 0.02 L0.01 0.01 L0.01 0.02 Z M0.01 0.01 L0.01 0.01 Z M0.01 0.01 L0 0 L0.01 0.01 Z M0 0 L0 0 Z M0 0 L0 0 " transform="translate(8.18, 36.42)"/>
  <path style="fill:none;stroke:#000000; stroke-width:0.5; stroke-linecap:butt; stroke-linejoin:miter; stroke-dasharray:none;" d="M0 0 L0 0 L0 0 Z M0 0 L0 0 Z M0 0 L0 0.01 L0 0 Z M0 0.01 L0 0.01 Z M0 0.01 L0 0.02 L0 0.01 Z M0 0.02 L0 0.02 Z M0 0.02 L0 0.03 L0 0.02 Z M0 0.03 L0 0.04 L0 0.03 Z M0 0.04 L0 0.05 L0 0.04 Z M0 0.05 L0 0.05 Z M0 0.05 L0.01 0.07 L0 0.05 Z M0.01 0.07 L0.01 0.08 L0.01 0.07 Z M0.01 0.08 L0.01 0.09 L0.01 0.08 Z M0.01 0.09 L0.01 0.1 L0.01 0.09 Z M0.01 0.1 L0.01 0.12 L0.01 0.1 Z M0.01 0.12 L0.01 0.13 L0.01 0.12 Z M0.01 0.13 L0.01 0.15 L0.01 0.13 Z M0.01 0.15 L0.01 0.16 L0.01 0.15 Z M0.01 0.16 L0.01 0.2 L0.01 0.16 Z M0.01 0.2 L0.01 0.24 L0.01 0.2 Z M0.01 0.24 L0.01 0.28 L0.01 0.24 Z M0.01 0.28 L0.01 0.32 L0.01 0.28 Z M0.01 0.32 L0.02 0.36 L0.01 0.32 Z M0.02 0.36 L0.02 0.45 L0.02 0.36 Z M0.02 0.45 L0.02 0.53 L0.02 0.45 Z M0.02 0.53 L0.02 0.57 L0.02 0.53 Z M0.02 0.57 L0.03 0.62 L0.02 0.57 Z M0.03 0.62 L0.03 0.65 L0.03 0.62 Z M0.03 0.65 L0.03 0.69 L0.03 0.65 Z M0.03 0.69 L0.03 0.73 L0.03 0.69 Z M0.03 0.73 L0.03 0.74 L0.03 0.73 Z M0.03 0.74 L0.03 0.76 L0.03 0.74 Z M0.03 0.76 L0.03 0.77 L0.03 0.76 Z M0.03 0.77 L0.03 0.79 L0.03 0.77 Z M0.03 0.79 L0.03 0.8 L0.03 0.79 Z M0.03 0.8 L0.03 0.81 L0.03 0.8 Z M0.03 0.81 L0.03 0.83 L0.03 0.81 Z M0.03 0.83 L0.03 0.84 L0.03 0.83 Z M0.03 0.84 L0.03 0.85 L0.03 0.84 Z M0.03 0.85 L0.04 0.86 L0.03 0.85 Z M0.04 0.86 L0.04 0.86 Z M0.04 0.86 L0.04 0.87 L0.04 0.86 Z M0.04 0.87 L0.04 0.88 L0.04 0.87 Z M0.04 0.88 L0.04 0.88 Z M0.04 0.88 L0.04 0.88 Z M0.04 0.88 L0.04 0.89 L0.04 0.88 Z M0.04 0.89 L0.04 0.89 Z M0.04 0.89 L0.04 0.89 " transform="translate(8.21, 36.42)"/>
  <path style="fill:none;stroke:#000000; stroke-width:0.5; stroke-linecap:butt; stroke-linejoin:miter; stroke-dasharray:none;" d="M0.03 0.89 L0.03 0.89 L0.03 0.89 Z M0.03 0.89 L0.03 0.89 Z M0.03 0.89 L0.03 0.88 L0.03 0.89 Z M0.03 0.88 L0.03 0.88 Z M0.03 0.88 L0.03 0.88 Z M0.03 0.88 L0.03 0.87 L0.03 0.88 Z M0.03 0.87 L0.03 0.86 L0.03 0.87 Z M0.03 0.86 L0.03 0.86 Z M0.03 0.86 L0.03 0.85 L0.03 0.86 Z M0.03 0.85 L0.03 0.84 L0.03 0.85 Z M0.03 0.84 L0.03 0.83 L0.03 0.84 Z M0.03 0.83 L0.03 0.81 L0.03 0.83 Z M0.03 0.81 L0.03 0.8 L0.03 0.81 Z M0.03 0.8 L0.03 0.79 L0.03 0.8 Z M0.03 0.79 L0.03 0.77 L0.03 0.79 Z M0.03 0.77 L0.03 0.76 L0.03 0.77 Z M0.03 0.76 L0.03 0.74 L0.03 0.76 Z M0.03 0.74 L0.03 0.73 L0.03 0.74 Z M0.03 0.73 L0.02 0.69 L0.03 0.73 Z M0.02 0.69 L0.02 0.65 L0.02 0.69 Z M0.02 0.65 L0.02 0.62 L0.02 0.65 Z M0.02 0.62 L0.02 0.57 L0.02 0.62 Z M0.02 0.57 L0.02 0.53 L0.02 0.57 Z M0.02 0.53 L0.01 0.45 L0.02 0.53 Z M0.01 0.45 L0.01 0.36 L0.01 0.45 Z M0.01 0.36 L0.01 0.32 L0.01 0.36 Z M0.01 0.32 L0.01 0.28 L0.01 0.32 Z M0.01 0.28 L0.01 0.24 L0.01 0.28 Z M0.01 0.24 L0.01 0.2 L0.01 0.24 Z M0.01 0.2 L0 0.16 L0.01 0.2 Z M0 0.16 L0 0.15 L0 0.16 Z M0 0.15 L0 0.13 L0 0.15 Z M0 0.13 L0 0.12 L0 0.13 Z M0 0.12 L0 0.1 L0 0.12 Z M0 0.1 L0 0.09 L0 0.1 Z M0 0.09 L0 0.08 L0 0.09 Z M0 0.08 L0 0.07 L0 0.08 Z M0 0.07 L0 0.05 L0 0.07 Z M0 0.05 L0 0.05 Z M0 0.05 L0 0.04 L0 0.05 Z M0 0.04 L0 0.03 L0 0.04 Z M0 0.03 L0 0.02 L0 0.03 Z M0 0.02 L0 0.02 Z M0 0.02 L0 0.01 L0 0.02 Z M0 0.01 L0 0.01 Z M0 0.01 L0 0 L0 0.01 Z M0 0 L0 0 Z M0 0 L0 0 " transform="translate(8.22, 36.42)"/>
  <path style="fill:none;stroke:#000000; stroke-width:0.5; stroke-linecap:butt; stroke-linejoin:miter; stroke-dasharray:none;" d="M0 0 L0 0 L0 0 Z M0 0 L0 0 Z M0 0 L0 0.01 L0 0 Z M0 0.01 L0 0.01 Z M0 0.01 L0 0.02 L0 0.01 Z M0 0.02 L0 0.02 Z M0 0.02 L0 0.03 L0 0.02 Z M0 0.03 L0 0.04 L0 0.03 Z M0 0.04 L0 0.05 L0 0.04 Z M0 0.05 L0 0.05 Z M0 0.05 L0 0.07 L0 0.05 Z M0 0.07 L0 0.08 L0 0.07 Z M0 0.08 L0 0.09 L0 0.08 Z M0 0.09 L0 0.1 L0 0.09 Z M0 0.1 L0 0.12 L0 0.1 Z M0 0.12 L0 0.13 L0 0.12 Z M0 0.13 L0 0.15 L0 0.13 Z M0 0.15 L0 0.16 L0 0.15 Z M0 0.16 L0.01 0.2 L0 0.16 Z M0.01 0.2 L0.01 0.24 L0.01 0.2 Z M0.01 0.24 L0.01 0.28 L0.01 0.24 Z M0.01 0.28 L0.01 0.32 L0.01 0.28 Z M0.01 0.32 L0.01 0.36 L0.01 0.32 Z M0.01 0.36 L0.02 0.45 L0.01 0.36 Z M0.02 0.45 L0.02 0.53 L0.02 0.45 Z M0.02 0.53 L0.02 0.57 L0.02 0.53 Z M0.02 0.57 L0.02 0.62 L0.02 0.57 Z M0.02 0.62 L0.02 0.65 L0.02 0.62 Z M0.02 0.65 L0.02 0.69 L0.02 0.65 Z M0.02 0.69 L0.03 0.73 L0.02 0.69 Z M0.03 0.73 L0.03 0.74 L0.03 0.73 Z M0.03 0.74 L0.03 0.76 L0.03 0.74 Z M0.03 0.76 L0.03 0.77 L0.03 0.76 Z M0.03 0.77 L0.03 0.79 L0.03 0.77 Z M0.03 0.79 L0.03 0.8 L0.03 0.79 Z M0.03 0.8 L0.03 0.81 L0.03 0.8 Z M0.03 0.81 L0.03 0.83 L0.03 0.81 Z M0.03 0.83 L0.03 0.84 L0.03 0.83 Z M0.03 0.84 L0.03 0.85 L0.03 0.84 Z M0.03 0.85 L0.03 0.86 L0.03 0.85 Z M0.03 0.86 L0.03 0.86 Z M0.03 0.86 L0.03 0.87 L0.03 0.86 Z M0.03 0.87 L0.03 0.88 L0.03 0.87 Z M0.03 0.88 L0.03 0.88 Z M0.03 0.88 L0.03 0.88 Z M0.03 0.88 L0.03 0.89 L0.03 0.88 Z M0.03 0.89 L0.03 0.89 Z M0.03 0.89 L0.03 0.89 " transform="translate(8.28, 36.42)"/>
  <path style="fill:none;stroke:#000000; stroke-width:0.5; stroke-linecap:butt; stroke-linejoin:miter; stroke-dasharray:none;" d="M0.04 0.89 L0.04 0.89 L0.04 0.89 Z M0.04 0.89 L0.04 0.89 Z M0.04 0.89 L0.04 0.88 L0.04 0.89 Z M0.04 0.88 L0.04 0.88 Z M0.04 0.88 L0.04 0.88 Z M0.04 0.88 L0.04 0.87 L0.04 0.88 Z M0.04 0.87 L0.04 0.86 L0.04 0.87 Z M0.04 0.86 L0.04 0.86 Z M0.04 0.86 L0.04 0.85 L0.04 0.86 Z M0.04 0.85 L0.04 0.84 L0.04 0.85 Z M0.04 0.84 L0.03 0.83 L0.04 0.84 Z M0.03 0.83 L0.03 0.81 L0.03 0.83 Z M0.03 0.81 L0.03 0.8 L0.03 0.81 Z M0.03 0.8 L0.03 0.79 L0.03 0.8 Z M0.03 0.79 L0.03 0.77 L0.03 0.79 Z M0.03 0.77 L0.03 0.76 L0.03 0.77 Z M0.03 0.76 L0.03 0.74 L0.03 0.76 Z M0.03 0.74 L0.03 0.73 L0.03 0.74 Z M0.03 0.73 L0.03 0.69 L0.03 0.73 Z M0.03 0.69 L0.03 0.65 L0.03 0.69 Z M0.03 0.65 L0.03 0.62 L0.03 0.65 Z M0.03 0.62 L0.03 0.57 L0.03 0.62 Z M0.03 0.57 L0.02 0.53 L0.03 0.57 Z M0.02 0.53 L0.02 0.45 L0.02 0.53 Z M0.02 0.45 L0.02 0.36 L0.02 0.45 Z M0.02 0.36 L0.02 0.32 L0.02 0.36 Z M0.02 0.32 L0.01 0.28 L0.02 0.32 Z M0.01 0.28 L0.01 0.24 L0.01 0.28 Z M0.01 0.24 L0.01 0.2 L0.01 0.24 Z M0.01 0.2 L0.01 0.16 L0.01 0.2 Z M0.01 0.16 L0.01 0.15 L0.01 0.16 Z M0.01 0.15 L0.01 0.13 L0.01 0.15 Z M0.01 0.13 L0.01 0.12 L0.01 0.13 Z M0.01 0.12 L0.01 0.1 L0.01 0.12 Z M0.01 0.1 L0.01 0.09 L0.01 0.1 Z M0.01 0.09 L0.01 0.08 L0.01 0.09 Z M0.01 0.08 L0.01 0.07 L0.01 0.08 Z M0.01 0.07 L0.01 0.05 L0.01 0.07 Z M0.01 0.05 L0.01 0.05 Z M0.01 0.05 L0 0.04 L0.01 0.05 Z M0 0.04 L0 0.03 L0 0.04 Z M0 0.03 L0 0.02 L0 0.03 Z M0 0.02 L0 0.02 Z M0 0.02 L0 0.01 L0 0.02 Z M0 0.01 L0 0.01 Z M0 0.01 L0 0 L0 0.01 Z M0 0 L0 0 Z M0 0 L0 0 " transform="translate(8.28, 36.42)"/>
  <path style="fill:none;stroke:#000000; stroke-width:0.5; stroke-linecap:butt; stroke-linejoin:miter; stroke-dasharray:none;" d="M0.03 0.89 L0.03 0.89 L0.03 0.89 Z M0.03 0.89 L0.03 0.89 Z M0.03 0.89 L0.03 0.88 L0.03 0.89 Z M0.03 0.88 L0.03 0.88 Z M0.03 0.88 L0.03 0.88 Z M0.03 0.88 L0.03 0.87 L0.03 0.88 Z M0.03 0.87 L0.03 0.86 L0.03 0.87 Z M0.03 0.86 L0.03 0.86 Z M0.03 0.86 L0.03 0.85 L0.03 0.86 Z M0.03 0.85 L0.03 0.84 L0.03 0.85 Z M0.03 0.84 L0.03 0.83 L0.03 0.84 Z M0.03 0.83 L0.03 0.81 L0.03 0.83 Z M0.03 0.81 L0.03 0.8 L0.03 0.81 Z M0.03 0.8 L0.03 0.79 L0.03 0.8 Z M0.03 0.79 L0.03 0.77 L0.03 0.79 Z M0.03 0.77 L0.03 0.76 L0.03 0.77 Z M0.03 0.76 L0.03 0.74 L0.03 0.76 Z M0.03 0.74 L0.03 0.73 L0.03 0.74 Z M0.03 0.73 L0.03 0.69 L0.03 0.73 Z M0.03 0.69 L0.02 0.65 L0.03 0.69 Z M0.02 0.65 L0.02 0.62 L0.02 0.65 Z M0.02 0.62 L0.02 0.57 L0.02 0.62 Z M0.02 0.57 L0.02 0.53 L0.02 0.57 Z M0.02 0.53 L0.02 0.45 L0.02 0.53 Z M0.02 0.45 L0.01 0.36 L0.02 0.45 Z M0.01 0.36 L0.01 0.32 L0.01 0.36 Z M0.01 0.32 L0.01 0.28 L0.01 0.32 Z M0.01 0.28 L0.01 0.24 L0.01 0.28 Z M0.01 0.24 L0.01 0.2 L0.01 0.24 Z M0.01 0.2 L0.01 0.16 L0.01 0.2 Z M0.01 0.16 L0.01 0.15 L0.01 0.16 Z M0.01 0.15 L0 0.13 L0.01 0.15 Z M0 0.13 L0 0.12 L0 0.13 Z M0 0.12 L0 0.1 L0 0.12 Z M0 0.1 L0 0.09 L0 0.1 Z M0 0.09 L0 0.08 L0 0.09 Z M0 0.08 L0 0.07 L0 0.08 Z M0 0.07 L0 0.05 L0 0.07 Z M0 0.05 L0 0.05 Z M0 0.05 L0 0.04 L0 0.05 Z M0 0.04 L0 0.03 L0 0.04 Z M0 0.03 L0 0.02 L0 0.03 Z M0 0.02 L0 0.02 Z M0 0.02 L0 0.01 L0 0.02 Z M0 0.01 L0 0.01 Z M0 0.01 L0 0 L0 0.01 Z M0 0 L0 0 Z M0 0 L0 0 " transform="translate(8.35, 36.42)"/>
  <path style="fill:none;stroke:#000000; stroke-width:0.5; stroke-linecap:butt; stroke-linejoin:miter; stroke-dasharray:none;" d="M0 0 L0.03 0.85 " transform="translate(8.36, 36.44)"/>
  <path style="fill:none;stroke:#000000; stroke-width:0.5; stroke-linecap:butt; stroke-linejoin:miter; stroke-dasharray:none;" d="M0 0 L0 0.03 L0 0 Z M0 0.03 L0 0.05 L0 0.03 Z M0 0.05 L0 0.07 L0 0.05 Z M0 0.07 L0.01 0.09 L0 0.07 Z M0.01 0.09 L0.01 0.11 L0.01 0.09 Z M0.01 0.11 L0.01 0.13 L0.01 0.11 Z M0.01 0.13 L0.01 0.15 L0.01 0.13 Z M0.01 0.15 L0.01 0.16 L0.01 0.15 Z M0.01 0.16 L0.01 0.17 L0.01 0.16 Z M0.01 0.17 L0.01 0.19 L0.01 0.17 Z M0.01 0.19 L0.01 0.2 L0.01 0.19 Z M0.01 0.2 L0.01 0.2 Z M0.01 0.2 L0.01 0.21 L0.01 0.2 Z M0.01 0.21 L0.01 0.22 L0.01 0.21 Z M0.01 0.22 L0.01 0.22 Z M0.01 0.22 L0.01 0.22 " transform="translate(8.17, 37.09)"/>
  <path style="fill:none;stroke:#000000; stroke-width:0.5; stroke-linecap:butt; stroke-linejoin:miter; stroke-dasharray:none;" d="M0 0 L0.03 0.85 " transform="translate(8.33, 36.44)"/>
  <path style="fill:none;stroke:#000000; stroke-width:0.5; stroke-linecap:butt; stroke-linejoin:miter; stroke-dasharray:none;" d="M0 0 L0.03 0.85 " transform="translate(8.3, 36.44)"/>
  <path style="fill:none;stroke:#000000; stroke-width:0.5; stroke-linecap:butt; stroke-linejoin:miter; stroke-dasharray:none;" d="M0 0 L0.04 0.85 " transform="translate(8.29, 36.44)"/>
  <path style="fill:none;stroke:#000000; stroke-width:0.5; stroke-linecap:butt; stroke-linejoin:miter; stroke-dasharray:none;" d="M0.02 0.36 L0.02 0.36 L0.02 0.36 Z M0.02 0.36 L0.02 0.36 Z M0.02 0.36 L0.02 0.36 Z M0.02 0.36 L0.02 0.35 L0.02 0.36 Z M0.02 0.35 L0.02 0.35 Z M0.02 0.35 L0.01 0.34 L0.02 0.35 Z M0.01 0.34 L0.01 0.34 Z M0.01 0.34 L0.01 0.33 L0.01 0.34 Z M0.01 0.33 L0.01 0.33 Z M0.01 0.33 L0.01 0.32 L0.01 0.33 Z M0.01 0.32 L0.01 0.31 L0.01 0.32 Z M0.01 0.31 L0.01 0.3 L0.01 0.31 Z M0.01 0.3 L0.01 0.28 L0.01 0.3 Z M0.01 0.28 L0.01 0.26 L0.01 0.28 Z M0.01 0.26 L0.01 0.23 L0.01 0.26 Z M0.01 0.23 L0.01 0.21 L0.01 0.23 Z M0.01 0.21 L0.01 0.18 L0.01 0.21 Z M0.01 0.18 L0.01 0.15 L0.01 0.18 Z M0.01 0.15 L0.01 0.11 L0.01 0.15 Z M0.01 0.11 L0 0.08 L0.01 0.11 Z M0 0.08 L0 0.04 L0 0.08 Z M0 0.04 L0 0 " transform="translate(8.17, 36.95)"/>
  <path style="fill:none;stroke:#000000; stroke-width:0.5; stroke-linecap:butt; stroke-linejoin:miter; stroke-dasharray:none;" d="M0 0 L0.03 0.85 " transform="translate(8.24, 36.44)"/>
  <path style="fill:none;stroke:#000000; stroke-width:0.5; stroke-linecap:butt; stroke-linejoin:miter; stroke-dasharray:none;" d="M0 0 L0.04 0.85 " transform="translate(8.2, 36.44)"/>
  <path style="fill:none;stroke:#000000; stroke-width:0.5; stroke-linecap:butt; stroke-linejoin:miter; stroke-dasharray:none;" d="M0 0 L0.03 0.85 " transform="translate(8.2, 36.44)"/>
  <path style="fill:none;stroke:#000000; stroke-width:0.5; stroke-linecap:butt; stroke-linejoin:miter; stroke-dasharray:none;" d="M0 0 L0 0.07 " transform="translate(7.7, 37.22)"/>
  <path style="fill:none;stroke:#000000; stroke-width:0.5; stroke-linecap:butt; stroke-linejoin:miter; stroke-dasharray:none;" d="M0 0 L0.02 0.6 " transform="translate(8.17, 36.69)"/>
  <path style="fill:none;stroke:#000000; stroke-width:0.5; stroke-linecap:butt; stroke-linejoin:miter; stroke-dasharray:none;" d="M0 0 L0.03 0.85 " transform="translate(8.26, 36.44)"/>
  <path style="fill:none;stroke:#000000; stroke-width:0.5; stroke-linecap:butt; stroke-linejoin:miter; stroke-dasharray:none;" d="M0 0 L0.01 0.28 " transform="translate(7.7, 37)"/>
  <path style="fill:none;stroke:#000000; stroke-width:0.5; stroke-linecap:butt; stroke-linejoin:miter; stroke-dasharray:none;" d="M0 0 L0.03 0.85 " transform="translate(8.27, 36.44)"/>
  <path style="fill:none;stroke:#000000; stroke-width:0.5; stroke-linecap:butt; stroke-linejoin:miter; stroke-dasharray:none;" d="M0 0 L0.03 0.82 " transform="translate(8.17, 36.47)"/>
  <path style="fill:none;stroke:#000000; stroke-width:0.5; stroke-linecap:butt; stroke-linejoin:miter; stroke-dasharray:none;" d="M0 0 L0.03 0.85 " transform="translate(8.23, 36.44)"/>
  <path style="fill:none;stroke:#000000; stroke-width:0.5; stroke-linecap:butt; stroke-linejoin:miter; stroke-dasharray:none;" d="M0 0 L0.01 0.18 " transform="translate(7.7, 36.44)"/>
  <path style="fill:none;stroke:#000000; stroke-width:0.5; stroke-linecap:butt; stroke-linejoin:miter; stroke-dasharray:none;" d="M0 0 L0.01 0.2 " transform="translate(8.39, 36.44)"/>
  <path style="fill:none;stroke:#000000; stroke-width:0.5; stroke-linecap:butt; stroke-linejoin:miter; stroke-dasharray:none;" d="M0 0.03 L0 0.03 L0 0.03 Z M0 0.03 L0 0.02 L0 0.03 Z M0 0.02 L0 0.02 Z M0 0.02 L0 0.01 L0 0.02 Z M0 0.01 L0 0.01 Z M0 0.01 L0 0 L0 0.01 Z M0 0 L0 0 Z M0 0 L0 0 " transform="translate(8.38, 36.42)"/>
  <path style="fill:none;stroke:#000000; stroke-width:0.5; stroke-linecap:butt; stroke-linejoin:miter; stroke-dasharray:none;" d="M0 0 L0 0 L0 0 Z" transform="translate(3.46, 39.37)"/>
  <path style="fill:none;stroke:#000000; stroke-width:0.5; stroke-linecap:butt; stroke-linejoin:miter; stroke-dasharray:none;" d="M0 0 L0 0 L0 0 Z" transform="translate(6.7, 39.37)"/>
  <path style="fill:none;stroke:#000000; stroke-width:0.5; stroke-linecap:butt; stroke-linejoin:miter; stroke-dasharray:none;" d="M0 0 L0 0 L0 0 Z" transform="translate(3.46, 34.36)"/>
  <path style="fill:none;stroke:#000000; stroke-width:0.5; stroke-linecap:butt; stroke-linejoin:miter; stroke-dasharray:none;" d="M0 0 L0 0 L0 0 Z" transform="translate(6.7, 34.36)"/>
  <path style="fill:none;stroke:#000000; stroke-width:0.5; stroke-linecap:butt; stroke-linejoin:miter; stroke-dasharray:none;" d="M0.09 0 L0 0 " transform="translate(7.61, 35.93)"/>
  <path style="fill:none;stroke:#000000; stroke-width:0.5; stroke-linecap:butt; stroke-linejoin:miter; stroke-dasharray:none;" d="M0 0.16 L0 0 " transform="translate(7.61, 35.77)"/>
  <path style="fill:none;stroke:#000000; stroke-width:0.5; stroke-linecap:butt; stroke-linejoin:miter; stroke-dasharray:none;" d="M0 2.12 L0 0 " transform="translate(7.73, 35.77)"/>
  <path style="fill:none;stroke:#000000; stroke-width:0.5; stroke-linecap:butt; stroke-linejoin:miter; stroke-dasharray:none;" d="M0 0 L0 0 L0 0 Z" transform="translate(7.73, 37.89)"/>
  <path style="fill:none;stroke:#000000; stroke-width:0.5; stroke-linecap:butt; stroke-linejoin:miter; stroke-dasharray:none;" d="M0 0 L0.02 0.07 " transform="translate(7.71, 37.82)"/>
  <path style="fill:none;stroke:#000000; stroke-width:0.5; stroke-linecap:butt; stroke-linejoin:miter; stroke-dasharray:none;" d="M0 1.88 L0 0 " transform="translate(7.71, 35.94)"/>
  <path style="fill:none;stroke:#000000; stroke-width:0.5; stroke-linecap:butt; stroke-linejoin:miter; stroke-dasharray:none;" d="M0.01 0.01 L0 0 " transform="translate(7.7, 35.93)"/>
  <path style="fill:none;stroke:#000000; stroke-width:0.5; stroke-linecap:butt; stroke-linejoin:miter; stroke-dasharray:none;" d="M0.12 0 L0 0 " transform="translate(7.61, 35.77)"/>
  <path style="fill:none;stroke:#000000; stroke-width:0.5; stroke-linecap:butt; stroke-linejoin:miter; stroke-dasharray:none;" d="M0.12 0.11 L0.08 0.03 L0.12 0.11 Z M0.08 0.03 L0 0 " transform="translate(7.75, 35.77)"/>
  <path style="fill:none;stroke:#000000; stroke-width:0.5; stroke-linecap:butt; stroke-linejoin:miter; stroke-dasharray:none;" d="M0 0 L0.76 1.09 " transform="translate(7.73, 37.89)"/>
  <path style="fill:none;stroke:#000000; stroke-width:0.5; stroke-linecap:butt; stroke-linejoin:miter; stroke-dasharray:none;" d="M0.02 0 L0 0 " transform="translate(7.73, 35.77)"/>
  <path style="fill:none;stroke:#000000; stroke-width:0.5; stroke-linecap:butt; stroke-linejoin:miter; stroke-dasharray:none;" d="M0 0 L0 0.1 " transform="translate(8.49, 38.98)"/>
  <path style="fill:none;stroke:#000000; stroke-width:0.5; stroke-linecap:butt; stroke-linejoin:miter; stroke-dasharray:none;" d="M0 0.06 L0 0 " transform="translate(8.69, 39.02)"/>
  <path style="fill:none;stroke:#000000; stroke-width:0.5; stroke-linecap:butt; stroke-linejoin:miter; stroke-dasharray:none;" d="M0.02 0.07 L0 0 " transform="translate(8.67, 38.95)"/>
  <path style="fill:none;stroke:#000000; stroke-width:0.5; stroke-linecap:butt; stroke-linejoin:miter; stroke-dasharray:none;" d="M0 0 L0 0 L0 0 Z" transform="translate(8.49, 38.98)"/>
  <path style="fill:none;stroke:#000000; stroke-width:0.5; stroke-linecap:butt; stroke-linejoin:miter; stroke-dasharray:none;" d="M0 1.93 L0 0 " transform="translate(7.87, 35.88)"/>
  <path style="fill:none;stroke:#000000; stroke-width:0.5; stroke-linecap:butt; stroke-linejoin:miter; stroke-dasharray:none;" d="M0 0 L0 0 L0 0 Z" transform="translate(7.87, 37.81)"/>
  <path style="fill:none;stroke:#000000; stroke-width:0.5; stroke-linecap:butt; stroke-linejoin:miter; stroke-dasharray:none;" d="M0.8 1.14 L0 0 " transform="translate(7.87, 37.81)"/>
  <path style="fill:none;stroke:#000000; stroke-width:0.5; stroke-linecap:butt; stroke-linejoin:miter; stroke-dasharray:none;" d="M0.01 0 L0 0 " transform="translate(7.6, 35.93)"/>
  <path style="fill:none;stroke:#000000; stroke-width:0.5; stroke-linecap:butt; stroke-linejoin:miter; stroke-dasharray:none;" d="M0.01 0 L0 0 " transform="translate(7.6, 35.77)"/>
  <path style="fill:none;stroke:#000000; stroke-width:0.5; stroke-linecap:butt; stroke-linejoin:miter; stroke-dasharray:none;" d="M0 0 L0.22 0 " transform="translate(8.48, 39.08)"/>
  <path style="fill:none;stroke:#000000; stroke-width:0.5; stroke-linecap:butt; stroke-linejoin:miter; stroke-dasharray:none;" d="M0.07 0.07 L0.05 0.02 L0.07 0.07 Z M0.05 0.02 L0 0 " transform="translate(8.7, 39.08)"/>
  <path style="fill:none;stroke:#000000; stroke-width:0.5; stroke-linecap:butt; stroke-linejoin:miter; stroke-dasharray:none;" d="M0 3.3 L0 0 " transform="translate(8.42, 39.15)"/>
  <path style="fill:none;stroke:#000000; stroke-width:0.5; stroke-linecap:butt; stroke-linejoin:miter; stroke-dasharray:none;" d="M0 0 L0 3.3 " transform="translate(8.77, 39.15)"/>
  <path style="fill:none;stroke:#000000; stroke-width:0.5; stroke-linecap:butt; stroke-linejoin:miter; stroke-dasharray:none;" d="M0.06 0 L0.01 0.02 L0.06 0 Z M0.01 0.02 L0 0.07 " transform="translate(8.42, 39.08)"/>
  <path style="fill:none;stroke:#000000; stroke-width:0.5; stroke-linecap:butt; stroke-linejoin:miter; stroke-dasharray:none;" d="M0 0.9 L0 0 " transform="translate(8.42, 42.45)"/>
  <path style="fill:none;stroke:#000000; stroke-width:0.5; stroke-linecap:butt; stroke-linejoin:miter; stroke-dasharray:none;" d="M0 0 L0 0.9 " transform="translate(8.77, 42.45)"/>
  <path style="fill:none;stroke:#000000; stroke-width:0.5; stroke-linecap:butt; stroke-linejoin:miter; stroke-dasharray:none;" d="M0.05 0.41 L0.04 0.35 L0.05 0.41 Z M0.04 0.35 L0.03 0.3 L0.04 0.35 Z M0.03 0.3 L0.02 0.25 L0.03 0.3 Z M0.02 0.25 L0.01 0.2 L0.02 0.25 Z M0.01 0.2 L0 0.15 L0.01 0.2 Z M0 0.15 L0 0.1 L0 0.15 Z M0 0.1 L0 0.05 L0 0.1 Z M0 0.05 L0 0 " transform="translate(7.87, 36.87)"/>
  <path style="fill:none;stroke:#000000; stroke-width:0.5; stroke-linecap:butt; stroke-linejoin:miter; stroke-dasharray:none;" d="M0.05 0 L0.04 0.02 L0.05 0 Z M0.04 0.02 L0.03 0.05 L0.04 0.02 Z M0.03 0.05 L0.02 0.07 L0.03 0.05 Z M0.02 0.07 L0.01 0.1 L0.02 0.07 Z M0.01 0.1 L0 0.12 L0.01 0.1 Z M0 0.12 L0 0.15 L0 0.12 Z M0 0.15 L0 0.17 L0 0.15 Z M0 0.17 L0 0.2 " transform="translate(7.87, 37.28)"/>
  <path style="fill:none;stroke:#000000; stroke-width:0.5; stroke-linecap:butt; stroke-linejoin:miter; stroke-dasharray:none;" d="M0 0.41 L0.01 0.35 L0 0.41 Z M0.01 0.35 L0.02 0.3 L0.01 0.35 Z M0.02 0.3 L0.03 0.25 L0.02 0.3 Z M0.03 0.25 L0.04 0.2 L0.03 0.25 Z M0.04 0.2 L0.04 0.15 L0.04 0.2 Z M0.04 0.15 L0.05 0.1 L0.04 0.15 Z M0.05 0.1 L0.05 0.05 L0.05 0.1 Z M0.05 0.05 L0.05 0 " transform="translate(8.12, 36.87)"/>
  <path style="fill:none;stroke:#000000; stroke-width:0.5; stroke-linecap:butt; stroke-linejoin:miter; stroke-dasharray:none;" d="M0 0.61 L0 0 " transform="translate(8.17, 36.87)"/>
  <path style="fill:none;stroke:#000000; stroke-width:0.5; stroke-linecap:butt; stroke-linejoin:miter; stroke-dasharray:none;" d="M0.05 0.2 L0.05 0.18 L0.05 0.2 Z M0.05 0.18 L0.05 0.15 L0.05 0.18 Z M0.05 0.15 L0.04 0.12 L0.05 0.15 Z M0.04 0.12 L0.04 0.1 L0.04 0.12 Z M0.04 0.1 L0.03 0.07 L0.04 0.1 Z M0.03 0.07 L0.02 0.05 L0.03 0.07 Z M0.02 0.05 L0.01 0.02 L0.02 0.05 Z M0.01 0.02 L0 0 " transform="translate(8.12, 37.28)"/>
  <path style="fill:none;stroke:#000000; stroke-width:0.5; stroke-linecap:butt; stroke-linejoin:miter; stroke-dasharray:none;" d="M0.05 0.41 L0.05 0.35 L0.05 0.41 Z M0.05 0.35 L0.05 0.3 L0.05 0.35 Z M0.05 0.3 L0.04 0.25 L0.05 0.3 Z M0.04 0.25 L0.04 0.2 L0.04 0.25 Z M0.04 0.2 L0.03 0.15 L0.04 0.2 Z M0.03 0.15 L0.02 0.1 L0.03 0.15 Z M0.02 0.1 L0.01 0.05 L0.02 0.1 Z M0.01 0.05 L0 0 " transform="translate(8.12, 36.46)"/>
  <path style="fill:none;stroke:#000000; stroke-width:0.5; stroke-linecap:butt; stroke-linejoin:miter; stroke-dasharray:none;" d="M0.2 0 L0 0 " transform="translate(7.92, 37.28)"/>
  <path style="fill:none;stroke:#000000; stroke-width:0.5; stroke-linecap:butt; stroke-linejoin:miter; stroke-dasharray:none;" d="M0 0.41 L0 0.35 L0 0.41 Z M0 0.35 L0 0.3 L0 0.35 Z M0 0.3 L0 0.25 L0 0.3 Z M0 0.25 L0.01 0.2 L0 0.25 Z M0.01 0.2 L0.02 0.15 L0.01 0.2 Z M0.02 0.15 L0.03 0.1 L0.02 0.15 Z M0.03 0.1 L0.04 0.05 L0.03 0.1 Z M0.04 0.05 L0.05 0 " transform="translate(7.87, 36.46)"/>
  <path style="fill:none;stroke:#000000; stroke-width:0.5; stroke-linecap:butt; stroke-linejoin:miter; stroke-dasharray:none;" d="M0.2 0 L0 0 " transform="translate(7.92, 36.46)"/>
  <path style="fill:none;stroke:#000000; stroke-width:0.5; stroke-linecap:butt; stroke-linejoin:miter; stroke-dasharray:none;" d="M0 0.21 L0.01 0.18 L0 0.21 Z M0.01 0.18 L0.02 0.15 L0.01 0.18 Z M0.02 0.15 L0.03 0.13 L0.02 0.15 Z M0.03 0.13 L0.04 0.1 L0.03 0.13 Z M0.04 0.1 L0.04 0.08 L0.04 0.1 Z M0.04 0.08 L0.05 0.05 L0.04 0.08 Z M0.05 0.05 L0.05 0.03 L0.05 0.05 Z M0.05 0.03 L0.05 0 " transform="translate(8.12, 36.25)"/>
  <path style="fill:none;stroke:#000000; stroke-width:0.5; stroke-linecap:butt; stroke-linejoin:miter; stroke-dasharray:none;" d="M0 0 L0 0.62 " transform="translate(8.17, 36.25)"/>
  <path style="fill:none;stroke:#000000; stroke-width:0.5; stroke-linecap:butt; stroke-linejoin:miter; stroke-dasharray:none;" d="M0.05 0.2 L0.05 0.18 L0.05 0.2 Z M0.05 0.18 L0.05 0.15 L0.05 0.18 Z M0.05 0.15 L0.04 0.12 L0.05 0.15 Z M0.04 0.12 L0.04 0.1 L0.04 0.12 Z M0.04 0.1 L0.03 0.07 L0.04 0.1 Z M0.03 0.07 L0.02 0.05 L0.03 0.07 Z M0.02 0.05 L0.01 0.02 L0.02 0.05 Z M0.01 0.02 L0 0 " transform="translate(8.12, 36.05)"/>
  <path style="fill:none;stroke:#000000; stroke-width:0.5; stroke-linecap:butt; stroke-linejoin:miter; stroke-dasharray:none;" d="M0 0 L0 0.03 L0 0 Z M0 0.03 L0 0.05 L0 0.03 Z M0 0.05 L0 0.08 L0 0.05 Z M0 0.08 L0.01 0.1 L0 0.08 Z M0.01 0.1 L0.02 0.13 L0.01 0.1 Z M0.02 0.13 L0.03 0.16 L0.02 0.13 Z M0.03 0.16 L0.04 0.18 L0.03 0.16 Z M0.04 0.18 L0.05 0.21 " transform="translate(7.87, 36.25)"/>
  <path style="fill:none;stroke:#000000; stroke-width:0.5; stroke-linecap:butt; stroke-linejoin:miter; stroke-dasharray:none;" d="M0.05 0 L0.04 0.02 L0.05 0 Z M0.04 0.02 L0.03 0.05 L0.04 0.02 Z M0.03 0.05 L0.02 0.07 L0.03 0.05 Z M0.02 0.07 L0.01 0.1 L0.02 0.07 Z M0.01 0.1 L0 0.12 L0.01 0.1 Z M0 0.12 L0 0.15 L0 0.12 Z M0 0.15 L0 0.18 L0 0.15 Z M0 0.18 L0 0.2 " transform="translate(7.87, 36.05)"/>
  <path style="fill:none;stroke:#000000; stroke-width:0.5; stroke-linecap:butt; stroke-linejoin:miter; stroke-dasharray:none;" d="M0.2 0 L0 0 " transform="translate(7.92, 36.05)"/>
  <path style="fill:none;stroke:#000000; stroke-width:0.5; stroke-linecap:butt; stroke-linejoin:miter; stroke-dasharray:none;" d="M0 0.21 L0.01 0.18 L0 0.21 Z M0.01 0.18 L0.02 0.15 L0.01 0.18 Z M0.02 0.15 L0.03 0.13 L0.02 0.15 Z M0.03 0.13 L0.04 0.1 L0.03 0.13 Z M0.04 0.1 L0.04 0.08 L0.04 0.1 Z M0.04 0.08 L0.05 0.05 L0.04 0.08 Z M0.05 0.05 L0.05 0.03 L0.05 0.05 Z M0.05 0.03 L0.05 0 " transform="translate(8.12, 37.48)"/>
  <path style="fill:none;stroke:#000000; stroke-width:0.5; stroke-linecap:butt; stroke-linejoin:miter; stroke-dasharray:none;" d="M0.2 0 L0 0 " transform="translate(7.92, 37.69)"/>
  <path style="fill:none;stroke:#000000; stroke-width:0.5; stroke-linecap:butt; stroke-linejoin:miter; stroke-dasharray:none;" d="M0 0 L0 0.03 L0 0 Z M0 0.03 L0 0.05 L0 0.03 Z M0 0.05 L0 0.08 L0 0.05 Z M0 0.08 L0.01 0.1 L0 0.08 Z M0.01 0.1 L0.02 0.13 L0.01 0.1 Z M0.02 0.13 L0.03 0.15 L0.02 0.13 Z M0.03 0.15 L0.04 0.18 L0.03 0.15 Z M0.04 0.18 L0.05 0.21 " transform="translate(7.87, 37.48)"/>
  <path style="fill:none;stroke:#000000; stroke-width:0.5; stroke-linecap:butt; stroke-linejoin:miter; stroke-dasharray:none;" d="M0 0 L0 0.1 " transform="translate(8.17, 37.48)"/>
  <path style="fill:none;stroke:#000000; stroke-width:0.5; stroke-linecap:butt; stroke-linejoin:miter; stroke-dasharray:none;" d="M0 0 L0 0.09 " transform="translate(8.17, 36.16)"/>
  <path style="fill:none;stroke:#000000; stroke-width:0.5; stroke-linecap:butt; stroke-linejoin:miter; stroke-dasharray:none;" d="M2.31 0 L0 0 " transform="translate(6.32, 36.87)"/>
  <path style="fill:none;stroke:#000000; stroke-width:0.5; stroke-linecap:butt; stroke-linejoin:miter; stroke-dasharray:none;" d="M0 4.64 L0 0 " transform="translate(9.75, 4.84)"/>
  <path style="fill:none;stroke:#000000; stroke-width:0.5; stroke-linecap:butt; stroke-linejoin:miter; stroke-dasharray:none;" d="M0 0 L0 1.61 " transform="translate(9.85, 30.68)"/>
 </g>
</svg>
