<?xml version="1.0" encoding="UTF-8"?>
<svg width="51.1pt" version="1.1" xmlns="http://www.w3.org/2000/svg" height="89.45pt" viewBox="0 0 51.1 89.45" xmlns:xlink="http://www.w3.org/1999/xlink">
 <defs>
  <clipPath id="Clip0">
   <path d="M0 0 L38.588 0 L38.588 100.521 L0 100.521 L0 0 Z" transform="translate(-30.75, 18.1897) rotate(-30.25)"/>
  </clipPath>
 </defs>
 <g id="Background">
  <g id="Group4" clip-path="url(#Clip0)">
   <path style="fill:#848383; fill-rule:evenodd;stroke:none;" d="M2.1488 20.0584 L2.1488 19.3816 L3.5888 19.3816 L3.5888 20.0584 L2.1488 20.0584 L2.1488 20.0584 Z M3.5888 17.2336 L2.1488 17.2336 L2.1488 15.5952 L3.5888 15.5952 L3.5888 17.2336 Z M2.1488 8.588 L2.5168 8.588 L2.5168 1.0728 C2.5168 1.0728 2.1752 0.7336 2.1488 0.7336 L2.1488 0 L2.5168 0 C2.5168 0 3.0192 0.6672 3.3104 1.2576 C3.6008 1.848 3.5888 2.8832 3.5888 2.8832 L3.5888 13.108 L2.1488 13.108 L2.1488 8.588 Z M2.1488 11.4704 L0 11.4704 L0 4.2944 L1.44 4.2944 L1.44 5.0296 L0.7352 5.0296 L0.7352 8.588 L1.808 8.588 L2.1488 8.588 L2.1488 11.4704 Z" transform="translate(3.22897, 8.4942) rotate(-30.25)"/>
   <path style="fill:none;stroke:#191918; stroke-width:0.56696; stroke-linecap:round; stroke-linejoin:round; stroke-dasharray:none;" d="M0 7.1752 L0 0 " transform="translate(4.90302, 12.4902) rotate(-30.25)"/>
   <path style="fill:none;stroke:#191918; stroke-width:0.56696; stroke-linecap:round; stroke-linejoin:round; stroke-dasharray:none;" d="M0 0 L1.4136 0 " transform="translate(8.19048, 15.5424) rotate(-30.25)"/>
   <path style="fill:none;stroke:#191918; stroke-width:0.56696; stroke-linecap:round; stroke-linejoin:round; stroke-dasharray:none;" d="M0 0 L1.44 0 " transform="translate(15.1901, 24.7388) rotate(-30.25)"/>
   <path style="fill:none;stroke:#191918; stroke-width:0.56696; stroke-linecap:round; stroke-linejoin:round; stroke-dasharray:none;" d="M0 0 L0 7.5152 " transform="translate(5.45376, 8.43864) rotate(-30.25)"/>
   <path style="fill:none;stroke:#191918; stroke-width:0.56696; stroke-linecap:round; stroke-linejoin:round; stroke-dasharray:none;" d="M0.0264 0 L-4.7011e-15 0 " transform="translate(4.9878, 8.31772) rotate(-30.25)"/>
   <path style="fill:none;stroke:#191918; stroke-width:0.56696; stroke-linecap:round; stroke-linejoin:round; stroke-dasharray:none;" d="M0 0 L0 0.7336 " transform="translate(4.59542, 7.69731) rotate(-30.25)"/>
   <path style="fill:none;stroke:#191918; stroke-width:0.56696; stroke-linecap:round; stroke-linejoin:round; stroke-dasharray:none;" d="M0.368 0 L-4.996e-15 0 " transform="translate(4.91331, 7.51192) rotate(-30.25)"/>
   <path style="fill:none;stroke:#191918; stroke-width:0.56696; stroke-linecap:round; stroke-linejoin:round; stroke-dasharray:none;" d="M-4.996e-15 0 L0.368 0 " transform="translate(9.23973, 14.9305) rotate(-30.25)"/>
   <path style="fill:none;stroke:#191918; stroke-width:0.56696; stroke-linecap:round; stroke-linejoin:round; stroke-dasharray:none;" d="M0 0 L2.1488 0 " transform="translate(9.00746, 18.4027) rotate(-30.25)"/>
   <path style="fill:none;stroke:#191918; stroke-width:0.56696; stroke-linecap:round; stroke-linejoin:round; stroke-dasharray:none;" d="M1.44 0 L0 0 " transform="translate(5.39278, 12.2045) rotate(-30.25)"/>
   <path style="fill:none;stroke:#191918; stroke-width:0.56696; stroke-linecap:round; stroke-linejoin:round; stroke-dasharray:none;" d="M0 0.7344 L0 0 " transform="translate(6.14695, 11.7647) rotate(-30.25)"/>
   <path style="fill:none;stroke:#191918; stroke-width:0.56696; stroke-linecap:round; stroke-linejoin:round; stroke-dasharray:none;" d="M-9.99201e-16 0 L0.7048 0 " transform="translate(6.39785, 12.4686) rotate(-30.25)"/>
   <path style="fill:none;stroke:#191918; stroke-width:0.56696; stroke-linecap:round; stroke-linejoin:round; stroke-dasharray:none;" d="M0 3.5584 L0 0 " transform="translate(5.90809, 12.7542) rotate(-30.25)"/>
   <path style="fill:none;stroke:#191918; stroke-width:0.56696; stroke-linecap:round; stroke-linejoin:round; stroke-dasharray:none;" d="M1.9984e-15 0 L0.3408 0 " transform="translate(8.92183, 15.1159) rotate(-30.25)"/>
   <path style="fill:none;stroke:#191918; stroke-width:0.56696; stroke-linecap:round; stroke-linejoin:round; stroke-dasharray:none;" d="M0 2.8824 L0 0 " transform="translate(8.92183, 15.1159) rotate(-30.25)"/>
   <path style="fill:none;stroke:#191918; stroke-width:0.56696; stroke-linecap:round; stroke-linejoin:round; stroke-dasharray:none;" d="M0 0 L0 11.4704 " transform="translate(8.92183, 15.1159) rotate(-30.25)"/>
   <path style="fill:none;stroke:#191918; stroke-width:0.56696; stroke-linecap:round; stroke-linejoin:round; stroke-dasharray:none;" d="M0 0.6768 L0 0 " transform="translate(15.6033, 23.7144) rotate(-30.25)"/>
   <path style="fill:#adacac; fill-rule:evenodd;stroke:none;" d="M1.6968 1.9776 L1.3296 1.9776 L1.3296 0.1688 L1.6968 0.1688 L1.6968 1.9776 Z M1.6968 0 L1.6968 0.1688 L1.3296 0.1688 L1.3296 0 L1.6968 0 Z M1.3288 2.148 L1.3288 1.9776 L1.6968 1.9776 L1.6968 2.148 L1.3288 2.148 Z M0.368 2.148 L0.368 1.9776 L1.3288 1.9776 L1.3288 2.148 L0.368 2.148 Z M0.368 1.9776 L0.368 0.1688 L1.3288 0.1688 L1.3288 1.9768 L0.368 1.9768 L0.368 1.9776 Z M0.368 0.1688 L0.368 0 L1.3288 0 L1.3288 0.1688 L0.368 0.1688 Z M0 0.34 L0.1992 0.1688 L0.3672 0.1688 L0.3672 1.9768 L0.1992 1.9768 L0 1.808 L0 0.34 Z" transform="translate(13.8631, 22.2427) rotate(-30.25)"/>
   <path style="fill:none;stroke:#191918; stroke-width:0.56696; stroke-linecap:round; stroke-linejoin:round; stroke-dasharray:0 0 ; stroke-dashoffset:0;" d="M0 2.148 L0 0 " transform="translate(14.5212, 21.8589) rotate(-30.25)"/>
   <path style="fill:#adacac; fill-rule:evenodd;stroke:none;" d="M0 1.0744 L0 0 L0 1.0744 Z" transform="translate(10.2498, 14.9972) rotate(-30.25)"/>
   <path style="fill:none;stroke:#191918; stroke-width:0.56696; stroke-linecap:round; stroke-linejoin:round; stroke-dasharray:none;" d="M0 14.3504 L0 0 " transform="translate(7.29183, 9.46249) rotate(-30.25)"/>
   <path style="fill:none;stroke:#191918; stroke-width:0.56696; stroke-linecap:round; stroke-linejoin:round; stroke-dasharray:0 0 ; stroke-dashoffset:0;" d="M0 0 L0 1.468 " transform="translate(13.5446, 22.822) rotate(-30.25)"/>
   <path style="fill:none;stroke:#191918; stroke-width:0.56696; stroke-linecap:round; stroke-linejoin:round; stroke-dasharray:none;" d="M1.072 2.8832 C1.072 1.808 0.7048 0.7912 0 0 " transform="translate(5.40307, 7.2263) rotate(-30.25)"/>
   <path style="fill:none;stroke:#191918; stroke-width:0.56696; stroke-linecap:round; stroke-linejoin:round; stroke-dasharray:none;" d="M0.3416 0.3392 C0.3416 0.1712 0.2 0 0 0 " transform="translate(5.28288, 8.14563) rotate(-30.25)"/>
   <path style="fill:none;stroke:#191918; stroke-width:0.56696; stroke-linecap:round; stroke-linejoin:round; stroke-dasharray:none;" d="M1.2712 0 L-1.02141e-14 17.176 " transform="translate(-0.612485, 1.08233) rotate(325.25)"/>
   <path style="fill:none;stroke:#191918; stroke-width:0.56696; stroke-linecap:round; stroke-linejoin:round; stroke-dasharray:none;" d="M9.99201e-15 16.7808 L1.2448 0 " transform="translate(-0.677177, 1.11766) rotate(325.25)"/>
   <path style="fill:none;stroke:#191918; stroke-width:0.56696; stroke-linecap:round; stroke-linejoin:round; stroke-dasharray:none;" d="M-9.04832e-15 0 L0.336 0 " transform="translate(8.38211, 15.4307) rotate(-30.25)"/>
   <path style="fill:#b8b8bb; fill-rule:evenodd;stroke:none;" d="M1.268 2.2024 L0.704 2.1472 L0.8464 0 L1.4104 0.056 L1.268 2.2024 Z M0.3944 1.6376 L0 1.6376 L0.0848 0.3944 L0.4792 0.3944 L0.3944 1.6376 Z" transform="translate(6.56992, 12.3682) rotate(-30.25)"/>
   <path style="fill:none;stroke:#191918; stroke-width:0.56696; stroke-linecap:round; stroke-linejoin:round; stroke-dasharray:none;" d="M0 0 L0.564 0.056 " transform="translate(7.29852, 11.9433) rotate(-30.25)"/>
   <path style="fill:none;stroke:#191918; stroke-width:0.56696; stroke-linecap:round; stroke-linejoin:round; stroke-dasharray:none;" d="M0.1424 0 L1.9984e-15 2.1464 " transform="translate(7.32673, 11.9917) rotate(-30.25)"/>
   <path style="fill:none;stroke:#191918; stroke-width:0.56696; stroke-linecap:round; stroke-linejoin:round; stroke-dasharray:none;" d="M0.564 0.0544 L0 0 " transform="translate(8.25761, 13.8706) rotate(-30.25)"/>
   <path style="fill:none;stroke:#191918; stroke-width:0.56696; stroke-linecap:round; stroke-linejoin:round; stroke-dasharray:none;" d="M1.9984e-15 2.148 L0.1424 0 " transform="translate(6.81131, 12.2274) rotate(-30.25)"/>
   <path style="fill:none;stroke:#191918; stroke-width:0.56696; stroke-linecap:round; stroke-linejoin:round; stroke-dasharray:none;" d="M0.0848 0 L1.30451e-15 1.2432 " transform="translate(6.6928, 12.7531) rotate(-30.25)"/>
   <path style="fill:none;stroke:#191918; stroke-width:0.56696; stroke-linecap:round; stroke-linejoin:round; stroke-dasharray:none;" d="M0.4256 0 L-3.9968e-15 0 " transform="translate(7.24584, 13.8698) rotate(-30.25)"/>
   <path style="fill:none;stroke:#191918; stroke-width:0.56696; stroke-linecap:round; stroke-linejoin:round; stroke-dasharray:none;" d="M0 1.2432 L0.116 0 " transform="translate(6.3521, 12.9518) rotate(-30.25)"/>
   <path style="fill:none;stroke:#191918; stroke-width:0.56696; stroke-linecap:round; stroke-linejoin:round; stroke-dasharray:none;" d="M-2.9976e-15 0 L0.3944 0 " transform="translate(6.6928, 12.7531) rotate(-30.25)"/>
   <path style="fill:none;stroke:#191918; stroke-width:0.56696; stroke-linecap:round; stroke-linejoin:round; stroke-dasharray:0 0 ; stroke-dashoffset:0;" d="M1.44 0 L0 0 " transform="translate(14.8491, 24.1542) rotate(-30.25)"/>
   <path style="fill:#adacac; fill-rule:evenodd;stroke:none;" d="M5.9952e-15 1.9776 L0.168 1.9776 L0.168 2.148 L5.9952e-15 1.9776 Z M5.9952e-15 0.1688 L0.168 0 L0.168 0.1688 L5.9952e-15 0.1688 Z" transform="translate(13.4892, 22.4607) rotate(-30.25)"/>
   <path style="fill:none;stroke:#191918; stroke-width:0.56696; stroke-linecap:round; stroke-linejoin:round; stroke-dasharray:0 0 ; stroke-dashoffset:0;" d="M1.44 0 L0 0 " transform="translate(14.7633, 24.007) rotate(-30.25)"/>
   <path style="fill:none;stroke:#191918; stroke-width:0.56696; stroke-linecap:round; stroke-linejoin:round; stroke-dasharray:0 0 ; stroke-dashoffset:0;" d="M1.44 0 L0 0 " transform="translate(13.767, 22.2987) rotate(-30.25)"/>
   <path style="fill:none;stroke:#191918; stroke-width:0.56696; stroke-linecap:round; stroke-linejoin:round; stroke-dasharray:0 0 ; stroke-dashoffset:0;" d="M1.44 0 L0 0 " transform="translate(13.8521, 22.4445) rotate(-30.25)"/>
   <path style="fill:none;stroke:#191918; stroke-width:0.56696; stroke-linecap:round; stroke-linejoin:round; stroke-dasharray:0 0 ; stroke-dashoffset:0;" d="M1.44 0 L0 0 " transform="translate(12.9416, 20.8834) rotate(-30.25)"/>
   <path style="fill:none;stroke:#191918; stroke-width:0.56696; stroke-linecap:round; stroke-linejoin:round; stroke-dasharray:0 0 ; stroke-dashoffset:0;" d="M1.44 0 L0 0 " transform="translate(11.6887, 18.7348) rotate(-30.25)"/>
   <path style="fill:none;stroke:#191918; stroke-width:0.56696; stroke-linecap:round; stroke-linejoin:round; stroke-dasharray:none;" d="M1.9984e-15 0 L0.368 0 " transform="translate(14.8391, 21.6735) rotate(-30.25)"/>
   <path style="fill:none;stroke:#191918; stroke-width:0.56696; stroke-linecap:round; stroke-linejoin:round; stroke-dasharray:none;" d="M1.9984e-15 0 L0.368 0 " transform="translate(15.9212, 23.529) rotate(-30.25)"/>
   <path style="fill:none;stroke:#191918; stroke-width:0.56696; stroke-linecap:round; stroke-linejoin:round; stroke-dasharray:none;" d="M0 0 L0 2.148 " transform="translate(14.8391, 21.6735) rotate(-30.25)"/>
   <path style="fill:none;stroke:#191918; stroke-width:0.56696; stroke-linecap:round; stroke-linejoin:round; stroke-dasharray:0 0 ; stroke-dashoffset:0;" d="M1.9984e-15 0 L0.368 0.34 " transform="translate(14.602, 23.9047) rotate(-30.25)"/>
   <path style="fill:none;stroke:#191918; stroke-width:0.56696; stroke-linecap:round; stroke-linejoin:round; stroke-dasharray:0 0 ; stroke-dashoffset:0;" d="M1.9984e-15 0.34 L0.368 0 " transform="translate(13.6912, 22.3429) rotate(-30.25)"/>
   <path style="fill:none;stroke:#191918; stroke-width:0.56696; stroke-linecap:round; stroke-linejoin:round; stroke-dasharray:0 0 ; stroke-dashoffset:0;" d="M0 0 L0 2.148 " transform="translate(13.6912, 22.3429) rotate(-30.25)"/>
   <path style="fill:none;stroke:#191918; stroke-width:0.56696; stroke-linecap:round; stroke-linejoin:round; stroke-dasharray:none;" d="M1.9984e-15 0 L0.368 0 " transform="translate(14.9241, 21.8193) rotate(-30.25)"/>
   <path style="fill:none;stroke:#191918; stroke-width:0.56696; stroke-linecap:round; stroke-linejoin:round; stroke-dasharray:none;" d="M1.9984e-15 0 L0.368 0 " transform="translate(15.8353, 23.3818) rotate(-30.25)"/>
   <path style="fill:none;stroke:#191918; stroke-width:0.56696; stroke-linecap:round; stroke-linejoin:round; stroke-dasharray:none;" d="M-9.99201e-16 1.0744 C0.284 1.016 0.4792 0.7344 0.3944 0.396 C0.3672 0.2248 0.1992 0.056 -9.99201e-16 0 " transform="translate(10.865, 14.6384) rotate(-30.25)"/>
   <path style="fill:none;stroke:#191918; stroke-width:0.56696; stroke-linecap:round; stroke-linejoin:round; stroke-dasharray:none;" d="M0 38.4592 L0 0 L3.8464 0 L3.8464 79.5496 L0 79.5496 L0 46.5552 " transform="translate(7.34908, 19.9203) rotate(-30.25)"/>
   <path style="fill:none;stroke:#191918; stroke-width:0.56696; stroke-linecap:round; stroke-linejoin:round; stroke-dasharray:none;" d="M29.0224 28.9968 L0 0 " transform="translate(4.79832, 78.5826) rotate(-30.25)"/>
   <path style="fill:none;stroke:#191918; stroke-width:0.56696; stroke-linecap:round; stroke-linejoin:round; stroke-dasharray:none;" d="M0 29.0472 L29.0224 0 " transform="translate(-9.83491, 53.4906) rotate(-30.25)"/>
   <path style="fill:none;stroke:#191918; stroke-width:0.56696; stroke-linecap:round; stroke-linejoin:round; stroke-dasharray:none;" d="M0 0 L2.7336 2.7336 " transform="translate(15.2357, 38.8699) rotate(-30.25)"/>
   <path style="fill:none;stroke:#191918; stroke-width:0.56696; stroke-linecap:round; stroke-linejoin:round; stroke-dasharray:none;" d="M26.3168 0 L0 26.3136 " transform="translate(-3.75922, 53.1119) rotate(-30.25)"/>
   <path style="fill:none;stroke:#191918; stroke-width:0.56696; stroke-linecap:round; stroke-linejoin:round; stroke-dasharray:none;" d="M0 0 L26.3168 26.3144 " transform="translate(9.49689, 75.8425) rotate(-30.25)"/>
   <path style="fill:none;stroke:#191918; stroke-width:0.56696; stroke-linecap:round; stroke-linejoin:round; stroke-dasharray:none;" d="M2.7336 0 L0 2.6824 " transform="translate(43.1254, 86.6932) rotate(-30.25)"/>
   <path style="fill:#5b5b5a; fill-rule:evenodd;stroke:none;" d="M35.6032 79.5496 L31.7568 79.5496 L31.7568 46.5552 L33.1984 42.5072 L31.7568 38.4584 L31.7568 0 L35.6032 0 L35.6032 79.5496 Z M5.44 49.3896 L31.7568 75.704 L29.0232 78.3872 L0 49.3904 L29.0232 20.3424 L31.7568 23.076 L5.44 49.3896 Z" transform="translate(-20.0836, 35.9186) rotate(-30.25)"/>
   <path style="fill:#a5a6a9; fill-rule:evenodd;stroke:#191918; stroke-width:0.56696; stroke-linecap:round; stroke-linejoin:round; stroke-dasharray:none;" d="M12.8544 6.428 C12.8544 2.8848 9.9688 0 6.4288 0 C2.884 0 0 2.8848 0 6.428 C0 9.9696 2.884 12.8544 6.4288 12.8544 C9.968 12.8544 12.8544 9.9688 12.8544 6.428 L12.8544 6.428 Z" transform="translate(15.6672, 56.8366) rotate(-30.25)"/>
  </g>
 </g>
</svg>
