<?xml version="1.0" encoding="UTF-8"?>
<svg width="38.59pt" version="1.1" xmlns="http://www.w3.org/2000/svg" height="100.65pt" viewBox="0 0 38.59 100.65" xmlns:xlink="http://www.w3.org/1999/xlink">
 <defs>
  <clipPath id="Clip0">
   <path d="M0 0 L38.588 0 L38.588 100.65 L0 100.65 L0 0 Z" transform="translate(0, 0)"/>
  </clipPath>
  <clipPath id="Clip1">
   <path d="M0 0 L4.63496 0 L4.63496 29.2134 L0 29.2134 L0 0 Z" transform="translate(0, 0)"/>
  </clipPath>
  <clipPath id="Clip2">
   <path d="M0 0 L36.1694 0 L36.1694 80.1166 L0 80.1166 L0 0 Z" transform="translate(2.41868, 20.5339)"/>
  </clipPath>
 </defs>
 <g id="Background">
  <g id="Group6" clip-path="url(#Clip0)">
   <g id="INSERT_14_" clip-path="url(#Clip1)">
    <path style="fill:#848383; fill-rule:evenodd;stroke:none;" d="M1.452 20.0584 L1.452 19.3816 L0.012 19.3816 L0.012 20.0584 L1.452 20.0584 L1.452 20.0584 Z M0.012 17.2336 L1.452 17.2336 L1.452 15.5952 L0.012 15.5952 L0.012 17.2336 Z M1.452 8.588 L1.084 8.588 L1.084 1.0728 C1.084 1.0728 1.4256 0.7336 1.452 0.7336 L1.452 0 L1.084 0 C1.084 0 0.5816 0.6672 0.2904 1.2576 C0 1.848 0.012 2.8832 0.012 2.8832 L0.012 13.108 L1.452 13.108 L1.452 8.588 Z M1.452 11.4704 L3.6008 11.4704 L3.6008 4.2944 L2.1608 4.2944 L2.1608 5.0296 L2.8656 5.0296 L2.8656 8.588 L1.7928 8.588 L1.452 8.588 L1.452 11.4704 Z" transform="translate(0.75068, 8.87148)"/>
    <path style="fill:none;stroke:#191918; stroke-width:0.56696; stroke-linecap:round; stroke-linejoin:round; stroke-dasharray:none;" d="M0 7.1752 L0 0 " transform="translate(4.35148, 13.1667)"/>
    <path style="fill:none;stroke:#191918; stroke-width:0.56696; stroke-linecap:round; stroke-linejoin:round; stroke-dasharray:none;" d="M1.4136 0 L0 0 " transform="translate(2.20268, 17.4595)"/>
    <path style="fill:none;stroke:#191918; stroke-width:0.56696; stroke-linecap:round; stroke-linejoin:round; stroke-dasharray:none;" d="M1.44 0 L0 0 " transform="translate(0.76268, 28.9299)"/>
    <path style="fill:none;stroke:#191918; stroke-width:0.56696; stroke-linecap:round; stroke-linejoin:round; stroke-dasharray:none;" d="M0 0 L0 7.5152 " transform="translate(1.83468, 9.94428)"/>
    <path style="fill:none;stroke:#191918; stroke-width:0.56696; stroke-linecap:round; stroke-linejoin:round; stroke-dasharray:none;" d="M0 0 L0.0264 0 " transform="translate(2.17628, 9.60508)"/>
    <path style="fill:none;stroke:#191918; stroke-width:0.56696; stroke-linecap:round; stroke-linejoin:round; stroke-dasharray:none;" d="M0 0 L0 0.7336 " transform="translate(2.20268, 8.87148)"/>
    <path style="fill:none;stroke:#191918; stroke-width:0.56696; stroke-linecap:round; stroke-linejoin:round; stroke-dasharray:none;" d="M0 0 L0.368 0 " transform="translate(1.83468, 8.87148)"/>
    <path style="fill:none;stroke:#191918; stroke-width:0.56696; stroke-linecap:round; stroke-linejoin:round; stroke-dasharray:none;" d="M0.368 0 L0 0 " transform="translate(1.83468, 17.4595)"/>
    <path style="fill:none;stroke:#191918; stroke-width:0.56696; stroke-linecap:round; stroke-linejoin:round; stroke-dasharray:none;" d="M2.1488 0 L0 0 " transform="translate(2.20268, 20.3419)"/>
    <path style="fill:none;stroke:#191918; stroke-width:0.56696; stroke-linecap:round; stroke-linejoin:round; stroke-dasharray:none;" d="M0 0 L1.44 0 " transform="translate(2.91148, 13.1667)"/>
    <path style="fill:#95704b; fill-rule:evenodd;stroke:none;" d="M0 0.3952 L0.3096 0 L1.3288 13.6176 L1.5808 17.176 L1.2448 17.176 L0 0.3952 Z" transform="translate(1.58268, 0.28348)"/>
    <path style="fill:none;stroke:#191918; stroke-width:0.56696; stroke-linecap:round; stroke-linejoin:round; stroke-dasharray:none;" d="M0 0.7344 L0 0 " transform="translate(2.91148, 13.1667)"/>
    <path style="fill:none;stroke:#191918; stroke-width:0.56696; stroke-linecap:round; stroke-linejoin:round; stroke-dasharray:none;" d="M0.7048 0 L0 0 " transform="translate(2.91148, 13.9011)"/>
    <path style="fill:none;stroke:#191918; stroke-width:0.56696; stroke-linecap:round; stroke-linejoin:round; stroke-dasharray:none;" d="M0 3.5584 L0 0 " transform="translate(3.61628, 13.9011)"/>
    <path style="fill:none;stroke:#191918; stroke-width:0.56696; stroke-linecap:round; stroke-linejoin:round; stroke-dasharray:none;" d="M0.3408 0 L0 0 " transform="translate(2.20268, 17.4595)"/>
    <path style="fill:none;stroke:#191918; stroke-width:0.56696; stroke-linecap:round; stroke-linejoin:round; stroke-dasharray:none;" d="M0 2.8824 L0 0 " transform="translate(2.20268, 17.4595)"/>
    <path style="fill:none;stroke:#191918; stroke-width:0.56696; stroke-linecap:round; stroke-linejoin:round; stroke-dasharray:none;" d="M0 0 L0 11.4704 " transform="translate(2.20268, 17.4595)"/>
    <path style="fill:none;stroke:#191918; stroke-width:0.56696; stroke-linecap:round; stroke-linejoin:round; stroke-dasharray:none;" d="M0 0.6768 L0 0 " transform="translate(0.76268, 28.2531)"/>
    <path style="fill:#adacac; fill-rule:evenodd;stroke:none;" d="M0 1.9776 L0.3672 1.9776 L0.3672 0.1688 L0 0.1688 L0 1.9776 Z M0 0 L0 0.1688 L0.3672 0.1688 L0.3672 0 L0 0 Z M0.368 2.148 L0.368 1.9776 L0 1.9776 L0 2.148 L0.368 2.148 Z M1.3288 2.148 L1.3288 1.9776 L0.368 1.9776 L0.368 2.148 L1.3288 2.148 Z M1.3288 1.9776 L1.3288 0.1688 L0.368 0.1688 L0.368 1.9768 L1.3288 1.9768 L1.3288 1.9776 Z M1.3288 0.1688 L1.3288 0 L0.368 0 L0.368 0.1688 L1.3288 0.1688 Z M1.6968 0.34 L1.4976 0.1688 L1.3296 0.1688 L1.3296 1.9768 L1.4976 1.9768 L1.6968 1.808 L1.6968 0.34 Z" transform="translate(0.39468, 26.1051)"/>
    <path style="fill:none;stroke:#191918; stroke-width:0.56696; stroke-linecap:round; stroke-linejoin:round; stroke-dasharray:0 0 ; stroke-dashoffset:0;" d="M0 2.148 L0 0 " transform="translate(0.76268, 26.1051)"/>
    <path style="fill:#adacac; fill-rule:evenodd;stroke:none;" d="M0 1.0744 L0 0 L0 1.0744 Z" transform="translate(0.76268, 18.0259)"/>
    <path style="fill:none;stroke:#191918; stroke-width:0.56696; stroke-linecap:round; stroke-linejoin:round; stroke-dasharray:none;" d="M0 14.3504 L0 0 " transform="translate(0.76268, 11.7547)"/>
    <path style="fill:none;stroke:#191918; stroke-width:0.56696; stroke-linecap:round; stroke-linejoin:round; stroke-dasharray:0 0 ; stroke-dashoffset:0;" d="M0 0 L0 1.468 " transform="translate(2.09148, 26.4451)"/>
    <path style="fill:none;stroke:#191918; stroke-width:0.56696; stroke-linecap:round; stroke-linejoin:round; stroke-dasharray:none;" d="M0 2.8832 C0 1.808 0.3672 0.7912 1.072 0 " transform="translate(0.76268, 8.87148)"/>
    <path style="fill:none;stroke:#191918; stroke-width:0.56696; stroke-linecap:round; stroke-linejoin:round; stroke-dasharray:none;" d="M0 0.3392 C0 0.1712 0.1416 0 0.3416 0 " transform="translate(1.83468, 9.60508)"/>
    <path style="fill:none;stroke:#191918; stroke-width:0.56696; stroke-linecap:round; stroke-linejoin:round; stroke-dasharray:none;" d="M0 0 L1.2712 17.176 " transform="translate(1.89228, 0.28348)"/>
    <path style="fill:none;stroke:#191918; stroke-width:0.56696; stroke-linecap:round; stroke-linejoin:round; stroke-dasharray:none;" d="M0 0.3952 L0.3096 0 " transform="translate(1.58268, 0.28348)"/>
    <path style="fill:none;stroke:#191918; stroke-width:0.56696; stroke-linecap:round; stroke-linejoin:round; stroke-dasharray:none;" d="M1.2448 16.7808 L0 0 " transform="translate(1.58268, 0.67868)"/>
    <path style="fill:none;stroke:#191918; stroke-width:0.56696; stroke-linecap:round; stroke-linejoin:round; stroke-dasharray:none;" d="M0.336 0 L0 0 " transform="translate(2.82748, 17.4595)"/>
    <path style="fill:#b8b8bb; fill-rule:evenodd;stroke:none;" d="M0.1424 2.2024 L0.7064 2.1472 L0.564 0 L0 0.056 L0.1424 2.2024 Z M1.016 1.6376 L1.4104 1.6376 L1.3256 0.3944 L0.9312 0.3944 L1.016 1.6376 Z" transform="translate(2.00668, 13.9011)"/>
    <path style="fill:none;stroke:#191918; stroke-width:0.56696; stroke-linecap:round; stroke-linejoin:round; stroke-dasharray:none;" d="M0.564 0 L0 0.056 " transform="translate(2.00668, 13.9011)"/>
    <path style="fill:none;stroke:#191918; stroke-width:0.56696; stroke-linecap:round; stroke-linejoin:round; stroke-dasharray:none;" d="M0 0 L0.1424 2.1464 " transform="translate(2.00668, 13.9571)"/>
    <path style="fill:none;stroke:#191918; stroke-width:0.56696; stroke-linecap:round; stroke-linejoin:round; stroke-dasharray:none;" d="M0 0.0544 L0.564 0 " transform="translate(2.14908, 16.0491)"/>
    <path style="fill:none;stroke:#191918; stroke-width:0.56696; stroke-linecap:round; stroke-linejoin:round; stroke-dasharray:none;" d="M0.1424 2.148 L0 0 " transform="translate(2.57068, 13.9011)"/>
    <path style="fill:none;stroke:#191918; stroke-width:0.56696; stroke-linecap:round; stroke-linejoin:round; stroke-dasharray:none;" d="M0 0 L0.0848 1.2432 " transform="translate(2.93788, 14.2955)"/>
    <path style="fill:none;stroke:#191918; stroke-width:0.56696; stroke-linecap:round; stroke-linejoin:round; stroke-dasharray:none;" d="M0 0 L0.4256 0 " transform="translate(3.02268, 15.5387)"/>
    <path style="fill:none;stroke:#191918; stroke-width:0.56696; stroke-linecap:round; stroke-linejoin:round; stroke-dasharray:none;" d="M0.116 1.2432 L0 0 " transform="translate(3.33228, 14.2955)"/>
    <path style="fill:none;stroke:#191918; stroke-width:0.56696; stroke-linecap:round; stroke-linejoin:round; stroke-dasharray:none;" d="M0.3944 0 L0 0 " transform="translate(2.93788, 14.2955)"/>
    <path style="fill:none;stroke:#191918; stroke-width:0.56696; stroke-linecap:round; stroke-linejoin:round; stroke-dasharray:0 0 ; stroke-dashoffset:0;" d="M0 0 L1.44 0 " transform="translate(0.76268, 28.2531)"/>
    <path style="fill:#adacac; fill-rule:evenodd;stroke:none;" d="M0.168 1.9776 L0 1.9776 L0 2.148 L0.168 1.9776 Z M0.168 0.1688 L0 0 L0 0.1688 L0.168 0.1688 Z" transform="translate(1.72428, 26.1051)"/>
    <path style="fill:none;stroke:#191918; stroke-width:0.56696; stroke-linecap:round; stroke-linejoin:round; stroke-dasharray:0 0 ; stroke-dashoffset:0;" d="M0 0 L1.44 0 " transform="translate(0.76268, 28.0827)"/>
    <path style="fill:none;stroke:#191918; stroke-width:0.56696; stroke-linecap:round; stroke-linejoin:round; stroke-dasharray:0 0 ; stroke-dashoffset:0;" d="M0 0 L1.44 0 " transform="translate(0.76268, 26.1051)"/>
    <path style="fill:none;stroke:#191918; stroke-width:0.56696; stroke-linecap:round; stroke-linejoin:round; stroke-dasharray:0 0 ; stroke-dashoffset:0;" d="M0 0 L1.44 0 " transform="translate(0.76268, 26.2739)"/>
    <path style="fill:none;stroke:#191918; stroke-width:0.56696; stroke-linecap:round; stroke-linejoin:round; stroke-dasharray:0 0 ; stroke-dashoffset:0;" d="M0 0 L1.44 0 " transform="translate(0.76268, 24.4667)"/>
    <path style="fill:none;stroke:#191918; stroke-width:0.56696; stroke-linecap:round; stroke-linejoin:round; stroke-dasharray:0 0 ; stroke-dashoffset:0;" d="M0 0 L1.44 0 " transform="translate(0.76268, 21.9795)"/>
    <path style="fill:none;stroke:#191918; stroke-width:0.56696; stroke-linecap:round; stroke-linejoin:round; stroke-dasharray:none;" d="M0.368 0 L0 0 " transform="translate(0.39468, 26.1051)"/>
    <path style="fill:none;stroke:#191918; stroke-width:0.56696; stroke-linecap:round; stroke-linejoin:round; stroke-dasharray:none;" d="M0.368 0 L0 0 " transform="translate(0.39468, 28.2531)"/>
    <path style="fill:none;stroke:#191918; stroke-width:0.56696; stroke-linecap:round; stroke-linejoin:round; stroke-dasharray:none;" d="M0 0 L0 2.148 " transform="translate(0.39468, 26.1051)"/>
    <path style="fill:none;stroke:#191918; stroke-width:0.56696; stroke-linecap:round; stroke-linejoin:round; stroke-dasharray:0 0 ; stroke-dashoffset:0;" d="M0.368 0 L0 0.34 " transform="translate(1.72348, 27.9131)"/>
    <path style="fill:none;stroke:#191918; stroke-width:0.56696; stroke-linecap:round; stroke-linejoin:round; stroke-dasharray:0 0 ; stroke-dashoffset:0;" d="M0.368 0.34 L0 0 " transform="translate(1.72348, 26.1051)"/>
    <path style="fill:none;stroke:#191918; stroke-width:0.56696; stroke-linecap:round; stroke-linejoin:round; stroke-dasharray:0 0 ; stroke-dashoffset:0;" d="M0 0 L0 2.148 " transform="translate(1.72348, 26.1051)"/>
    <path style="fill:none;stroke:#191918; stroke-width:0.56696; stroke-linecap:round; stroke-linejoin:round; stroke-dasharray:none;" d="M0.368 0 L0 0 " transform="translate(0.39468, 26.2739)"/>
    <path style="fill:none;stroke:#191918; stroke-width:0.56696; stroke-linecap:round; stroke-linejoin:round; stroke-dasharray:none;" d="M0.368 0 L0 0 " transform="translate(0.39468, 28.0827)"/>
    <path style="fill:none;stroke:#191918; stroke-width:0.56696; stroke-linecap:round; stroke-linejoin:round; stroke-dasharray:none;" d="M0.4792 1.0744 C0.1952 1.016 0 0.7344 0.0848 0.396 C0.112 0.2248 0.28 0.056 0.4792 0 " transform="translate(0.28348, 18.0259)"/>
   </g>
   <g id="Group3" clip-path="url(#Clip2)">
    <path style="fill:none;stroke:#191918; stroke-width:0.56696; stroke-linecap:round; stroke-linejoin:round; stroke-dasharray:none;" d="M3.8464 38.4592 L3.8464 0 L0 0 L0 79.5496 L3.8464 79.5496 L3.8464 46.5552 " transform="translate(2.70216, 20.8174)"/>
    <path style="fill:none;stroke:#191918; stroke-width:0.56696; stroke-linecap:round; stroke-linejoin:round; stroke-dasharray:none;" d="M0 28.9968 L29.0224 0 " transform="translate(9.28216, 70.207)"/>
    <path style="fill:none;stroke:#191918; stroke-width:0.56696; stroke-linecap:round; stroke-linejoin:round; stroke-dasharray:none;" d="M29.0224 29.0472 L0 0 " transform="translate(9.28216, 41.1598)"/>
    <path style="fill:none;stroke:#191918; stroke-width:0.56696; stroke-linecap:round; stroke-linejoin:round; stroke-dasharray:none;" d="M2.7336 0 L0 2.7336 " transform="translate(6.54856, 41.1598)"/>
    <path style="fill:none;stroke:#191918; stroke-width:0.56696; stroke-linecap:round; stroke-linejoin:round; stroke-dasharray:none;" d="M0 0 L26.3168 26.3136 " transform="translate(6.54856, 43.8934)"/>
    <path style="fill:none;stroke:#191918; stroke-width:0.56696; stroke-linecap:round; stroke-linejoin:round; stroke-dasharray:none;" d="M26.3168 0 L0 26.3144 " transform="translate(6.54856, 70.207)"/>
    <path style="fill:none;stroke:#191918; stroke-width:0.56696; stroke-linecap:round; stroke-linejoin:round; stroke-dasharray:none;" d="M0 0 L2.7336 2.6824 " transform="translate(6.54856, 96.5214)"/>
    <path style="fill:#5b5b5a; fill-rule:evenodd;stroke:none;" d="M0 79.5496 L3.8464 79.5496 L3.8464 46.5552 L2.4048 42.5072 L3.8464 38.4584 L3.8464 0 L0 0 L0 79.5496 Z M30.1632 49.3896 L3.8464 75.704 L6.58 78.3872 L35.6032 49.3904 L6.58 20.3424 L3.8464 23.076 L30.1632 49.3896 Z" transform="translate(2.70216, 20.8174)"/>
    <path style="fill:#a5a6a9; fill-rule:evenodd;stroke:#191918; stroke-width:0.56696; stroke-linecap:round; stroke-linejoin:round; stroke-dasharray:none;" d="M0 6.428 C0 2.8848 2.8856 0 6.4256 0 C9.9704 0 12.8544 2.8848 12.8544 6.428 C12.8544 9.9696 9.9704 12.8544 6.4256 12.8544 C2.8864 12.8544 0 9.9688 0 6.428 L0 6.428 Z" transform="translate(5.10616, 56.8974)"/>
   </g>
  </g>
 </g>
</svg>
